<?xml version="1.0" standalone="no"?>
<!DOCTYPE svg PUBLIC "-//W3C//DTD SVG 1.1//EN" "http://www.w3.org/Graphics/SVG/1.1/DTD/svg11.dtd" >
<svg>
<metadata>
Created by FontForge 20090914 at Fri Sep 25 09:23:21 2015
 By www-data
Copyright by Danh Hong, 2011.
</metadata>
<defs>
<font id="Hanuman-Bold" horiz-adv-x="0" >
  <font-face 
    font-family="Hanuman"
    font-weight="700"
    font-stretch="normal"
    units-per-em="2048"
    panose-1="2 2 5 2 6 5 6 2 3 4"
    ascent="1638"
    descent="-410"
    x-height="1140"
    cap-height="1500"
    bbox="-3000 -1020 4450 2000"
    underline-thickness="102"
    underline-position="-103"
    unicode-range="U+0020-U+25CC"
  />
<missing-glyph horiz-adv-x="1020" 
d="M2 1434h1018v-1434h-1018v1434zM856 1331h-696l348 -522zM918 195v1044l-343 -522zM856 102l-348 523l-348 -523h696zM98 195l355 522l-355 522v-1044z" />
    <glyph glyph-name="uni17D21780" unicode="&#x17d2;&#x1780;" 
d="M-850 -600c0 -33.333 -33.333 -50.001 -100 -50.001s-100 16.667 -100 50v301c0 66 33.333 115.667 100 149s166.667 50 300 50s233.333 -16.667 300 -50s100 -83.666 100 -150.999v-299c0 -33.333 -33.333 -50 -100 -50s-100 16.667 -100 50v300
c0 33.333 -21 58.333 -63 75c-41.333 16.667 -87 25 -137 25s-95.667 -8.33301 -137 -25c-42 -16.667 -63 -41.667 -63 -75v-300z" />
    <glyph glyph-name="uni17D21781" unicode="&#x17d2;&#x1781;" 
d="M-650 -650c-133.333 0 -233.334 15.998 -300.001 47.998c-66.667 30.667 -100 76.667 -100 138c0 52 22.333 81 67 87l285 44c77.333 12 137.5 26.667 180.5 44s64.5 38.333 64.5 63c0 18.667 -20.5 36 -61.5 52s-86.167 24 -135.5 24c-77.333 0 -130 -12 -158 -36
s-42 -62 -42 -114c-133.333 0 -200 30.667 -200 92c0 46 41.667 83.667 125 113s175 44 275 44c106.667 0 200 -17.5 280 -52.5s120 -74.167 120 -117.5c0 -50.667 -37.333 -92.667 -112 -126s-160 -57.666 -256 -72.999l-233 -42c0 -31.333 20.833 -53.833 62.5 -67.5
s87.834 -20.5 138.501 -20.5c50 0 95.833 8.33301 137.5 25s62.5 43.334 62.5 80.001l200 37c0 -80 -33.333 -140 -100 -180c-66.667 -41.333 -166.667 -62 -300 -62z" />
    <glyph glyph-name="uni17D21782" unicode="&#x17d2;&#x1782;" 
d="M-850 -487l50 61.999c67.333 83.333 117.333 125 150 125c66.667 0 100 -25 100 -75s-33.333 -75 -100 -75c-33.333 0 -71 -26.667 -113 -80l-47 -60c-32 -40 -62 -60 -90 -60h-50c-66.667 0 -100 16.667 -100 50v301c0 66 33.333 115.667 100 149s166.667 50 300 50
s233.333 -16.667 300 -50s100 -83.666 100 -150.999v-299c0 -33.333 -33.333 -50 -100 -50s-100 16.667 -100 50v300c0 33.333 -21 58.333 -63 75c-41.333 16.667 -87 25 -137 25s-95.667 -8.33301 -137 -25c-42 -16.667 -63 -41.667 -63 -75v-187z" />
    <glyph glyph-name="uni17D21783" unicode="&#x17d2;&#x1783;" horiz-adv-x="650" 
d="M450 -400c0 -100 -43.834 -166.668 -131.501 -200.001s-178.834 -50 -273.501 -50c-73.333 0 -133.333 4.66699 -180 14c-46 9.33301 -75 23 -87 41c-11.333 -18 -35 -31.667 -71 -41s-86.667 -14 -152 -14c-120 0 -205 16.667 -255 50s-75 100 -75 200v50
c-38.667 0 -65 10 -79 30s-21 46.667 -21 80s16.667 65 50 95s75 45 125 45c83.333 0 125 -33.333 125 -100v-201c0 -66 12.667 -107.333 38 -124c24.667 -16.667 55.334 -25 92.001 -25c30 0 57.333 8.33301 82 25c25.333 16.667 38 58.334 38 125.001v150
c0 33.333 -26.667 50 -80 50c0 66.667 46.667 100 140 100s140 -50 140 -150v-150c0 -66.667 16.667 -108.334 50 -125.001s73.333 -25 120 -25c36.667 0 71.667 8.33301 105 25s50 58.334 50 125.001v1217c0 61.333 -44 101.333 -132 120c12 58 42.833 133 92.5 225
s90.5 138 122.5 138c25.333 0 59 -12.333 101 -37l60 -38c18.667 -10.667 40.334 -16 65.001 -16c12.667 0 26.334 1.33301 41.001 4c-6 -40 -20 -82.667 -42 -128s-47.333 -70 -76 -74h-10c-28.667 0 -65.334 12 -110.001 36c-24 12 -43.667 18 -59 18
c-20 0 -34.333 -9.33301 -43 -28l-22 -51c174.667 -33.333 262 -73 262 -119v-1267z" />
    <glyph glyph-name="uni17D21784" unicode="&#x17d2;&#x1784;" 
d="M-730 -650c-100 0 -178.331 20.835 -234.998 62.502s-85 104.167 -85 187.5c0 66.667 12.333 116.667 37 150c25.333 33.333 79.666 50 162.999 50c33.333 0 58.333 -8.33301 75 -25s25 -41.667 25 -75c-33.333 0 -58.333 -8.33301 -75 -25s-25 -41.667 -25 -75
c0 -36.667 12.5 -65.834 37.5 -87.501s60.167 -32.5 105.5 -32.5s87 13.667 125 41s72.667 69.166 104 125.499s58 124.166 80 203.499c2 16.667 7 29.334 15 38.001c8 8 35.667 12 83 12c33.333 0 50 -16.667 50 -50c-8.66699 -33.333 -25.334 -87.333 -50.001 -162
c-24.667 -75.333 -58 -138 -100 -188s-92 -87.333 -150 -112c-58 -25.333 -118 -38 -180 -38z" />
    <glyph glyph-name="uni17D21785" unicode="&#x17d2;&#x1785;" 
d="M-690 -100c34.667 0 51.999 -12.334 51.999 -37.001c0 -11.333 -3.66699 -25.333 -11 -42l-41 -95c-26.667 -41.333 -54.167 -78 -82.5 -110s-57.5 -59 -87.5 -81c0 -28.667 10.833 -45 32.5 -49s47.5 -6 77.5 -6c66.667 0 129.334 28.333 188.001 85l50 49
c-38.667 22.667 -58 61.334 -58 116.001c0 46.667 12.333 81.334 37 104.001c25.333 23.333 63 35 113 35c43.333 0 75.666 -11.667 96.999 -35c22 -22.667 33 -57.334 33 -104.001c0 -12 -5.33301 -27.333 -16 -46h36c18 0 51.333 12.333 100 37
c6 -22.667 9 -43.334 9 -62.001c0 -71.333 -45.667 -107 -137 -107h-48c-8.66699 0 -17.167 0.166992 -25.5 0.5s-16.166 0.833008 -23.499 1.5c-8.66699 -11.333 -20.334 -23.666 -35.001 -36.999c-46.667 -55.333 -98.334 -97 -155.001 -125s-111.667 -42 -165 -42
c-113.333 0 -195 15.333 -245 46s-75 77 -75 139c0 63.333 16.667 97 50 101c43.333 9.33301 81.333 26 114 50s56.334 55.333 71.001 94l29 72c6.66699 32 45.334 48 116.001 48z" />
    <glyph glyph-name="uni17D21786" unicode="&#x17d2;&#x1786;" 
d="M-820 -160l-0.000976562 -150h30c66.667 0 125 -34 175 -102c50 -72 91.667 -108 125 -108c20 0 36.667 7.5 50 22.5s20 47.833 20 98.5v50c-26 0 -44.167 6.66699 -54.5 20s-15.5 31.333 -15.5 54c0 84.667 33.333 143 100 175h85c56.667 0 85 -23 85 -69v-230
c0 -84 -21 -146.667 -63 -188c-41.333 -42 -110.333 -63 -207 -63c-53.333 0 -120 48.333 -200 145c-33.333 43.333 -66.666 65 -99.999 65h-30v-105c0 -70 -33.333 -105 -100 -105s-116.667 33.333 -150 100c-33.333 53.333 -50 100 -50 140c0 33.333 8.33301 58.333 25 75
s41.667 25 75 25v150c0 40 23.333 60 70 60h60c46.667 0 70 -20 70 -60z" />
    <glyph glyph-name="uni17D21787" unicode="&#x17d2;&#x1787;" 
d="M-442 -220c-8.66699 0 -15 -3 -19 -9c-4.66699 -6.66699 -7 -16 -7 -28c0 -25.333 8.33301 -38 25 -38h19c3.33301 0 5.33301 0.333008 6 1c-4 49.333 -12 74 -24 74zM-146 -258c16.667 0 25 -11 25 -33c0 -30 -16.667 -51.667 -50 -65l-22.5 -8
c-7.66699 -2.66699 -15.834 -5.33398 -24.501 -8.00098v-8c0 -56.667 -17 -116 -51 -178c-33.333 -61.333 -83.666 -92 -150.999 -92c-34 0 -68.667 5.5 -104 16.5s-83.333 35.833 -144 74.5c-66 -39.333 -115.667 -64.333 -149 -75s-67 -16 -101 -16
c-66.667 0 -116.667 31 -150 93s-50 121.333 -50 178c0 92.667 16.667 162.334 50 209.001s100 70 200 70c33.333 0 50 -16.667 50 -50s-16.667 -50 -50 -50c-16.667 0 -29 -15 -37 -45c-8.66699 -30 -13 -74.667 -13 -134c0 -23.333 4.16699 -49.333 12.5 -78
s20.833 -43 37.5 -43c36.667 0 103.334 42.667 200.001 128c92 -85.333 158.667 -128 200 -128c16 0 28.167 12.667 36.5 38s12.833 46.666 13.5 63.999c-8 -0.666992 -16.167 -1.16699 -24.5 -1.5s-16.833 -0.5 -25.5 -0.5c-16.667 0 -37.667 12.667 -63 38
c-24.667 24.667 -37 62 -37 112s12.333 87.333 37 112c25.333 25.333 63 38 113 38c53.333 0 96 -15 128 -45s53.333 -74.667 64 -134c9.33301 2.66699 18.666 5.16699 27.999 7.5s18.333 5.16602 27 8.49902c4 0.666992 7.5 1.33398 10.5 2.00098s5.5 1.33398 7.5 2.00098
c2.66699 0.666992 5 1 7 1z" />
    <glyph glyph-name="uni17D21788" unicode="&#x17d2;&#x1788;" horiz-adv-x="650" 
d="M450 -450c0 -66.667 -45.5039 -116.668 -136.504 -150.001s-183.833 -50 -278.5 -50c-60 0 -111 5 -153 15s-75.667 25 -101 45c-24.667 -20 -56 -35 -94 -45c-57.333 -10 -101.333 -15 -132 -15c-120 0 -205 16.667 -255 50s-75 100 -75 200v80c0 60 -12.5 95 -37.5 105
s-55.833 15 -92.5 15s-65.834 -5 -87.501 -15s-32.5 -45 -32.5 -105v-80c46.667 0 70 -16.667 70 -50c0 -32 -16.667 -73.667 -50 -125c-33.333 -50 -81.666 -75 -144.999 -75c-50 0 -75 33.333 -75 100v251c0 66 25 115.667 75 149s131.667 50 245 50
c86.667 0 163.334 -16.667 230.001 -50s100 -90 100 -170v-81c0 -66 12.667 -107.333 38 -124c24.667 -16.667 55.334 -25 92.001 -25c30 0 57.333 8.33301 82 25c25.333 16.667 38 58.667 38 126v149c0 33.333 -26.667 50 -80 50c0 66.667 46.667 100 140 100
s140 -50 140 -150v-157c0 -58 12.667 -96.333 38 -115c26 -18.667 66.667 -28 122 -28c36.667 0 73.334 8.33301 110.001 25s55 58.334 55 125.001v1217c0 61.333 -44 101.333 -132 120c12 58 42.833 133 92.5 225s90.5 138 122.5 138c25.333 0 59 -12.333 101 -37l60 -38
c18.667 -10.667 40.334 -16 65.001 -16c12.667 0 26.334 1.33301 41.001 4c-6 -40 -20 -82.667 -42 -128s-47.333 -70 -76 -74h-10c-28.667 0 -65.334 12 -110.001 36c-24 12 -43.667 18 -59 18c-20 0 -34.333 -9.33301 -43 -28l-22 -51c174.667 -33.333 262 -73 262 -119
v-1317z" />
    <glyph glyph-name="uni17D21789" unicode="&#x17d2;&#x1789;" 
d="M-200 -300c0 -100 -22.3311 -174.999 -66.998 -224.999c-45.333 -50 -113 -75 -203 -75c-75.333 0 -141 12 -197 36s-102.333 60.333 -139 109c-52.667 68.667 -99 120 -139 154c-41.333 34 -76.333 51 -105 51c-35.333 0 -65.333 -7.33301 -90 -22
c-24.667 -15.333 -44.667 -38 -60 -68v50c0 33.333 12.667 65 38 95c24.667 30 62 45 112 45c79.333 0 149.666 -18.333 210.999 -55s120.333 -92 177 -166c42.667 -52.667 90 -79 142 -79c40 0 70 11.667 90 35s30 61.666 30 114.999c0 33.333 -8.33301 58.333 -25 75
s-41.667 25 -75 25c0 33.333 8.33301 58.333 25 75s51.667 25 105 25c63.333 0 107.666 -16.667 132.999 -50c24.667 -33.333 37 -83.333 37 -150z" />
    <glyph glyph-name="uni17D2178A" unicode="&#x17d2;&#x178a;" 
d="M-850 -550c26.667 0 40 23 40 69c0 20.667 -13.333 31 -40 31v-100zM-850 -350c93.333 0 140 -43.333 140 -130c0 -113.333 -46.667 -170 -140 -170h-100c-66.667 0 -100 33.333 -100 100v250c0 66.667 33.333 116.667 100 150s166.667 50 300 50
s233.333 -16.667 300 -50s100 -83.333 100 -150v-300c0 -33.333 -33.333 -50 -100 -50s-100 16.667 -100 50v300c0 33.333 -20.833 58.333 -62.5 75s-87.5 25 -137.5 25s-95.833 -8.33301 -137.5 -25s-62.5 -41.667 -62.5 -75v-50z" />
    <glyph glyph-name="uni17D2178B" unicode="&#x17d2;&#x178b;" 
d="M-450 -321h-223c-40 0 -68.667 -1.66699 -86 -5c-36.667 -4 -70 -10 -100 -18l100 -116l110 107l199 -117v149zM-492 -191c-5.33301 12 -8.00195 27.3311 -8.00195 45.998c0 24.667 8.33301 43.334 25 56.001s58.334 19 125.001 19c33.333 0 58.333 -12.667 75 -38
c16.667 -24.667 25 -62 25 -112v-337c0 -31.333 -9 -54.666 -27 -69.999c-17.333 -15.333 -44 -23 -80 -23l-276 158l-113 -119c-25.333 -26 -45 -39 -59 -39s-30.333 14.333 -49 43l-170 205c-16.667 24.667 -25 51.667 -25 81c0 41.333 29.333 76.333 88 105
c60.667 8.66699 115.334 15 164.001 19c49.333 4 95 6 137 6h168z" />
    <glyph glyph-name="uni17D2178C" unicode="&#x17d2;&#x178c;" 
d="M-850 -221c33.333 0 49.998 -10.333 49.998 -31c0 -23.333 -11.667 -45.333 -35 -66s-70 -31 -140 -31c-50 0 -75 21.667 -75 65v53c0 35.333 28.333 74.333 85 117s101.667 64 135 64s93.333 -25.333 180 -76c86.667 50.667 146.667 76 180 76s78.333 -21.333 135 -64
s85 -84.334 85 -125.001c0 -37.333 -21.667 -69.333 -65 -96c-42.667 -26 -108 -50.667 -196 -74l-389 -103c33.333 -14 75 -21 125 -21c49.333 0 103 6.33301 161 19s112.667 45.334 164 98.001l200 24v-197c0 -28.667 -8.33301 -50 -25 -64
c-16.667 -14.667 -91.667 -22 -225 -22c33.333 28.667 50 57.334 50 86.001v42c-26 -33.333 -76.667 -58.833 -152 -76.5s-158 -26.5 -248 -26.5c-66.667 0 -116.667 11.667 -150 35s-50 58 -50 104c0 50 22.333 80.333 67 91l429 113
c44.667 13.333 73.167 27.166 85.5 41.499s18.5 29.833 18.5 46.5c0 7.33301 -4.16699 15.5 -12.5 24.5s-20.166 13.5 -35.499 13.5c-16 0 -66.667 -31.333 -152 -94c-84 62.667 -133.667 94 -149 94s-27.666 -4.66699 -36.999 -14s-14 -18 -14 -26z" />
    <glyph glyph-name="uni17D2178D" unicode="&#x17d2;&#x178d;" horiz-adv-x="650" 
d="M450 -449c0 -67.333 -28.833 -117.669 -86.5 -151.002s-143.834 -50 -258.501 -50c-54 0 -95.167 8.83301 -123.5 26.5s-49.833 39.334 -64.5 65.001s-31.167 51.834 -49.5 78.501s-35.833 40 -52.5 40h-70v-110c0 -66.667 -25 -100 -75 -100
c-63.333 0 -111.666 21.667 -144.999 65s-50 85 -50 125c0 66.667 23.333 100 70 100v98l-25 23l-175 -89l-172 79l-28 -14v-87h20c19.333 0 37.666 -16.667 54.999 -50c8.66699 -16.667 13 -35.667 13 -57c0 -18.667 -6.33301 -38.834 -19 -60.501
s-35.667 -49.167 -69 -82.5s-75 -50 -125 -50s-75 33.333 -75 100v300l200 150l200 -103l200 103l200 -150v-110h70c34 0 65.667 -8.33301 95 -25c28.667 -17.333 51 -49.166 67 -95.499s58.667 -69.5 128 -69.5c63.333 0 95 33.333 95 100v1267
c0 61.333 -44 101.333 -132 120c12 58 42.833 133 92.5 225s90.5 138 122.5 138c25.333 0 59 -12.333 101 -37l60 -38c18.667 -10.667 40.334 -16 65.001 -16c12.667 0 26.334 1.33301 41.001 4c-6 -40 -20 -82.667 -42 -128s-47.333 -70 -76 -74h-10
c-28.667 0 -65.334 12 -110.001 36c-24 12 -43.667 18 -59 18c-20 0 -34.333 -9.33301 -43 -28l-22 -51c174.667 -33.333 262 -73 262 -119v-1316z" />
    <glyph glyph-name="uni17D2178E" unicode="&#x17d2;&#x178e;" 
d="M-450 -330c0 66.667 -19.1689 108.335 -57.502 125.002s-89.166 25 -152.499 25s-115 -8.33301 -155 -25s-60 -58.334 -60 -125.001v-320h-200l-225 195l-225 -195h-200v320c0 66.667 -20 108.334 -60 125.001s-91.667 25 -155 25s-114.166 -8.33301 -152.499 -25
s-57.5 -58.334 -57.5 -125.001v-20c16.667 0 37.667 -10 63 -30c24.667 -20 37 -50 37 -90c0 -46.667 -16.667 -88.334 -50 -125.001s-70.666 -55 -112 -55h-63c-50 0 -75 25 -75 75v245c0 86.667 36.667 150 110 190s173.333 60 300 60c113.333 0 210.833 -20 292.5 -60
s122.5 -103.333 122.5 -190v-154l225 196l225 -196v154c0 86.667 40.833 150 122.5 190s179.167 60 292.5 60c126.667 0 226.667 -20 300 -60s110 -103.333 110 -190v-270c0 -33.333 -33.333 -50 -100 -50s-100 16.667 -100 50v270z" />
    <glyph glyph-name="uni17D2178F" unicode="&#x17d2;&#x178f;" 
d="M-850 -550c26.667 0 40 23 40 69c0 20.667 -13.333 31 -40 31v-100zM-850 -350c93.333 0 140 -43.333 140 -130c0 -113.333 -46.667 -170 -140 -170h-100c-66.667 0 -100 33.333 -100 100v250c0 66.667 33.333 116.667 100 150s166.667 50 300 50
s233.333 -16.667 300 -50s100 -83.333 100 -150v-300c0 -33.333 -33.333 -50 -100 -50s-100 16.667 -100 50v300c0 33.333 -20.833 58.333 -62.5 75s-87.5 25 -137.5 25s-95.833 -8.33301 -137.5 -25s-62.5 -41.667 -62.5 -75v-50z" />
    <glyph glyph-name="uni17D21790" unicode="&#x17d2;&#x1790;" 
d="M-1150 -400c0 83.333 29.333 153.998 88 211.998c58 58.667 145.333 88 262 88c109.333 0 203.333 -28 282 -84c77.333 -55.333 133.666 -116.333 168.999 -183c34.667 -66.667 67 -113.667 97 -141c30.667 -28 64.667 -42 102 -42c0 -66.667 -16.667 -100 -50 -100
c-100 0 -172 15.333 -216 46s-80.333 79.334 -109 146.001s-71 121.334 -127 164.001s-105.333 64 -148 64c-53.333 0 -91.666 -15.833 -114.999 -47.5s-35 -72.5 -35 -122.5s12.667 -87.333 38 -112c24.667 -25.333 62 -38 112 -38c0 -33.333 -8.33301 -58.333 -25 -75
s-41.667 -25 -75 -25c-66.667 0 -125 20.833 -175 62.5s-75 104.167 -75 187.5z" />
    <glyph glyph-name="uni17D21791" unicode="&#x17d2;&#x1791;" 
d="M-750 -196c0 8 -13.3359 12.001 -40.0029 12.001c0 28 8.33301 49 25 63s56.667 21 120 21s103.333 -7 120 -21s25 -35 25 -63c0 -27.333 -17.833 -67.5 -53.5 -120.5s-75.667 -92.833 -120 -119.5s-86.5 -49 -126.5 -67c0 -11.333 4.83301 -20.666 14.5 -27.999
s21.167 -11 34.5 -11c48 0 94 20 138 60s87.667 98.667 131 176l11 38c6.66699 24.667 17.334 42.667 32.001 54c14.667 12 56 18 124 18c43.333 0 65 -14 65 -42v-338c0 -28 -16.333 -49 -49 -63c-65.333 -14.667 -147.333 -22 -246 -22c30 28.667 45 57 45 85v26
c-27.333 -30 -61.166 -56.167 -101.499 -78.5s-90.166 -33.5 -149.499 -33.5c-82.667 0 -153.167 13.667 -211.5 41s-87.5 67.666 -87.5 120.999c0 45.333 16.667 72.333 50 81c133.333 36.667 208.333 76.667 225 120s25 73.666 25 90.999z" />
    <glyph glyph-name="uni17D21792" unicode="&#x17d2;&#x1792;" 
d="M-459 -221c-12 -34 -44.334 -72.001 -97.001 -114.001c-28 -21.333 -53.333 -37.666 -76 -48.999l43 -20l60 -21c6 -2 12 -3.33301 18 -4h5c22 0 40 10.333 54 31c14.667 22 24.334 57 29.001 105c1.33301 12 2 22.333 2 31c0 24.667 -5 37 -15 37
c-9.33301 0.666992 -17 2 -23 4zM-864.001 -492.001c-0.666992 -2.66699 -1 -5.33301 -1 -8c0 -15.333 7.33301 -28.333 22 -39c18 -15.333 36.333 -23 55 -23c16.667 0 32 6 46 18c16.667 14 26.667 36 30 66l-2 44zM-437.001 -127c13.333 8.66699 34.333 13 63 13
c3.33301 0 7 -0.333008 11 -1c38.667 -3.33301 70.667 -19.666 96 -48.999c21.333 -24.667 32 -57 32 -97c0 -9.33301 -0.666992 -19.333 -2 -30c-10 -84.667 -33.333 -146.667 -70 -186c-32 -34.667 -74 -52 -126 -52c-8 0 -16 0.333008 -24 1
c-12.667 1.33301 -26.5 4 -41.5 8s-30.833 8 -47.5 12l-66 19c-7.33301 -58.667 -28.333 -101.334 -63 -128.001c-28.667 -22 -67.334 -33 -116.001 -33c-10 0 -20.333 0.333008 -31 1c-86 8.66699 -149.333 27 -190 55c-34.667 26 -52 59 -52 99v16
c5.33301 50 25.333 81.333 60 94c113.333 20 197.833 45.5 253.5 76.5s106.834 70.833 153.501 119.5v8c0 24 -15 37.667 -45 41c3.33301 25.333 48.333 38 135 38c6 0 12.667 -0.333008 20 -1c23.333 -2 40 -10 50 -24z" />
    <glyph glyph-name="uni17D21793" unicode="&#x17d2;&#x1793;" 
d="M-850 -532c-166.667 0 -250.002 59 -250.002 177c0 130 100 195 300 195h300c0 40 16.667 60 50 60h100c33.333 0 50 -20 50 -60h100c33.333 0 50 -23.333 50 -70s-16.667 -70 -50 -70h-100v-80c33.333 0 58.333 -10.333 75 -31s25 -58.667 25 -114
c0 -42 -10.333 -73.333 -31 -94c-21.333 -20.667 -52.666 -31 -93.999 -31c-74.667 0 -122.667 12.667 -144 38c-20.667 24.667 -31 62 -31 112l-250 -30h-27c-5.33301 -0.666992 -10.166 -1.16699 -14.499 -1.5s-23.833 -0.5 -58.5 -0.5zM-900.002 -355
c0 -38.667 16.667 -58 50 -58c48.667 0 82 1 100 3l250 30v80h-300c-66.667 0 -100 -18.333 -100 -55z" />
    <glyph glyph-name="uni17D21794" unicode="&#x17d2;&#x1794;" horiz-adv-x="650" 
d="M450 -650h-250.001l-225 171l-225 -171h-250v450c0 66.667 33.333 100 100 100h100c100 0 150 -50 150 -150c0 -60 -33.333 -110 -100 -150v-111l225 171l225 -171v1328c0 61.333 -44 101.333 -132 120c12 58 42.833 133 92.5 225s90.5 138 122.5 138
c25.333 0 59 -12.333 101 -37l60 -38c18.667 -10.667 40.334 -16 65.001 -16c12.667 0 26.334 1.33301 41.001 4c-6 -40 -20 -82.667 -42 -128s-47.333 -70 -76 -74h-10c-28.667 0 -65.334 12 -110.001 36c-24 12 -43.667 18 -59 18c-20 0 -34.333 -9.33301 -43 -28l-22 -51
c174.667 -33.333 262 -73 262 -119v-1517z" />
    <glyph glyph-name="uni17D21795" unicode="&#x17d2;&#x1795;" 
d="M-520 -275c0 50 11.667 91.667 35 125s68.333 50 135 50s100 -23.333 100 -70v-480h-200l-200 137l-200 -137h-200v470c0 53.333 33.333 80 100 80s100 -26.667 100 -80v-320l200 137l200 -137v150c-46.667 0 -70 25 -70 75z" />
    <glyph glyph-name="uni17D21796" unicode="&#x17d2;&#x1796;" 
d="M-450 -272l-44.999 23.001l-155 -89l-172 89l-28 -24v-77c32.667 0 57.667 -16.667 75 -50c8.66699 -16.667 13 -35.667 13 -57c0 -18.667 -5 -43 -15 -73c-15.333 -46.667 -36.333 -78.334 -63 -95.001s-63.334 -25 -110.001 -25c-66.667 0 -100 26.667 -100 80v320
l200 150l200 -113l200 113l200 -150v-350c0 -33.333 -33.333 -50 -100 -50s-100 16.667 -100 50v328z" />
    <glyph glyph-name="uni17D21797" unicode="&#x17d2;&#x1797;" 
d="M-1050 -450c-33.333 0 -50 -10.333 -50 -31c0 -18 16.667 -33.333 50 -46v77zM-450 -300c0 33.333 -20.833 58.333 -62.5 75s-87.5 25 -137.5 25s-95.833 -8.33301 -137.5 -25s-62.5 -41.667 -62.5 -75v-295c0 -36.667 -33.333 -55 -100 -55h-100
c-50 16.667 -87.5 37.5 -112.5 62.5s-37.5 60.833 -37.5 107.5c0 43.333 12.333 76 37 98c25.333 21.333 63 32 113 32v50c0 66.667 33.333 116.667 100 150s166.667 50 300 50s233.333 -16.667 300 -50s100 -83.333 100 -150v-300c0 -33.333 -33.333 -50 -100 -50
s-100 16.667 -100 50v300z" />
    <glyph glyph-name="uni17D21798" unicode="&#x17d2;&#x1798;" 
d="M-919 -494c-66.667 0 -116.998 16 -150.998 48c-33.333 32.667 -50 81.334 -50 146.001c0 33.333 12.333 58.333 37 75c25.333 16.667 79.666 25 162.999 25v-70c0 -30.667 7.66699 -53.334 23 -68.001c14.667 -15.333 37 -23 67 -23h10c6 0 9.33301 0.333008 10 1
l360 40v170c0 33.333 33.333 50 100 50s100 -16.667 100 -50v-170c53.333 0 96.666 -12.667 129.999 -38c33.333 -24.667 50 -72 50 -142c0 -50 -14.667 -87.333 -44 -112c-28.667 -25.333 -65.667 -38 -111 -38c-92 0 -152.333 16.667 -181 50
c-29.333 33.333 -44 83.333 -44 150l-410 -40h-3c-10 -0.666992 -19.667 -1.5 -29 -2.5s-18.333 -1.5 -27 -1.5zM-174.998 -500c0 33.333 -26.667 50 -80 50c0 -66.667 9.66699 -100 29 -100h1c33.333 0 50 16.667 50 50z" />
    <glyph glyph-name="uni17D21799" unicode="&#x17d2;&#x1799;" horiz-adv-x="650" 
d="M450 -400c0 -83.333 -39.6699 -146 -119.003 -188c-79.333 -41.333 -189.666 -62 -330.999 -62s-251.666 20.667 -330.999 62c-79.333 42 -119 104.667 -119 188v226c0 49.333 38.333 74 115 74h135c66.667 0 100 -37 100 -111c0 -56 -33.333 -90.667 -100 -104v-85
c0 -100 66.667 -150 200 -150s200 50 200 150v1217c0 61.333 -44 101.333 -132 120c12 58 42.833 133 92.5 225s90.5 138 122.5 138c25.333 0 59 -12.333 101 -37l60 -38c18.667 -10.667 40.334 -16 65.001 -16c12.667 0 26.334 1.33301 41.001 4
c-6 -40 -20 -82.667 -42 -128s-47.333 -70 -76 -74h-10c-28.667 0 -65.334 12 -110.001 36c-24 12 -43.667 18 -59 18c-20 0 -34.333 -9.33301 -43 -28l-22 -51c174.667 -33.333 262 -73 262 -119v-1267z" />
    <glyph glyph-name="uni17D2179A" unicode="&#x17d2;&#x179a;" horiz-adv-x="650" 
d="M450 -400c0 -100 66.6641 -150 199.997 -150s200 50 200 150v300h250v-300c0 -83.333 -39.667 -146 -119 -188c-79.333 -41.333 -189.666 -62 -330.999 -62s-251.666 20.667 -330.999 62c-79.333 42 -119 104.667 -119 188v1217c0 61.333 -44 101.333 -132 120
c12 58 42.833 133 92.5 225s90.5 138 122.5 138c25.333 0 59 -12.333 101 -37l60 -38c18.667 -10.667 40.334 -16 65.001 -16c12.667 0 26.334 1.33301 41.001 4c-6 -40 -20 -82.667 -42 -128s-47.333 -70 -76 -74h-10c-28.667 0 -65.334 12 -110.001 36
c-24 12 -43.667 18 -59 18c-20 0 -34.333 -9.33301 -43 -28l-22 -51c174.667 -33.333 262 -73 262 -119v-1267z" />
    <glyph glyph-name="uni17D2179B" unicode="&#x17d2;&#x179b;" 
d="M-1160 -450c0 100 24.999 183.332 74.999 249.999s125 100 225 100c80 0 147.333 -23.667 202 -71s96.334 -99.333 125.001 -156s56.5 -94.667 83.5 -114s53.5 -29 79.5 -29s49.167 28.333 69.5 85s32.833 118.334 37.5 185.001c4 66.667 39.667 100 107 100
c57.333 0 86 -15 86 -45c0 -5.33301 -0.666992 -11 -2 -17l-17 -63c-23.333 -83.333 -60.333 -175 -111 -275c-51.333 -100 -105.333 -150 -162 -150c-73.333 0 -134.333 19.667 -183 59s-85.334 92.333 -110.001 159s-54.167 110.334 -88.5 131.001s-73.166 31 -116.499 31
c-30 0 -54.167 -13.333 -72.5 -40s-27.5 -73.334 -27.5 -140.001c0 -46.667 10 -70 30 -70c33.333 0 50 23.333 50 70c33.333 0 58.333 -8.33301 75 -25s25 -41.667 25 -75s-12.667 -58.333 -38 -75c-24.667 -16.667 -62 -25 -112 -25c-86.667 0 -146.667 16.667 -180 50
s-50 83.333 -50 150z" />
    <glyph glyph-name="uni17D2179C" unicode="&#x17d2;&#x179c;" 
d="M-750 -650c-100 0 -175 14.5 -225 43.5s-75 75.833 -75 140.5v91c120 0.666992 234.167 18 342.5 52s210.833 108.333 307.5 223c100 0 150 -33.333 150 -100c0 -146 -51.5 -257.5 -154.5 -334.5s-218.167 -115.5 -345.5 -115.5zM-685 -443
c-52.667 -16 -108.998 -25.001 -168.998 -27.001c0 -26 9.83301 -43.5 29.5 -52.5s48.834 -13.5 87.501 -13.5c78 0 142.5 21.833 193.5 65.5s77.167 93.5 78.5 149.5l-4 -3c-6.66699 -6 -13.334 -11.667 -20.001 -17s-27.834 -19.666 -63.501 -42.999
s-79.834 -43 -132.501 -59z" />
    <glyph glyph-name="uni17D2179F" unicode="&#x17d2;&#x179f;" horiz-adv-x="650" 
d="M450 150c25.333 0 48.332 4.00195 68.999 12.002c20 8.66699 30.333 21 31 37v1c6.66699 0 13 -0.666992 19 -2c7.33301 -2 13.666 -5.33301 18.999 -10c8 -8.66699 12 -21.334 12 -38.001c0 -66.667 -14.667 -108.334 -44 -125.001s-64.666 -25 -105.999 -25v-400
c0 -166.667 -150 -250 -450 -250s-450 83.333 -450 250v50c-66.667 0 -100 41.667 -100 125s33.333 125 100 125h150c66.667 0 100 -33.333 100 -100v-200c0 -100 66.667 -150 200 -150s200 50 200 150v400h-100v150h100v667c0 61.333 -44 101.333 -132 120
c12 58 42.833 133 92.5 225s90.5 138 122.5 138c25.333 0 59 -12.333 101 -37l60 -38c18.667 -10.667 40.334 -16 65.001 -16c12.667 0 26.334 1.33301 41.001 4c-6 -40 -20 -82.667 -42 -128s-47.333 -70 -76 -74h-10c-28.667 0 -65.334 12 -110.001 36
c-24 12 -43.667 18 -59 18c-20 0 -34.333 -9.33301 -43 -28l-22 -51c174.667 -33.333 262 -73 262 -119v-717z" />
    <glyph glyph-name="uni17D217A0" unicode="&#x17d2;&#x17a0;" 
d="M-175 -600c0 -33.333 -33.333 -50 -100 -50s-100 16.667 -100 50v300c0 33.333 -8.33301 58.333 -25 75s-38.334 25 -65.001 25c-23.333 0 -43.333 -8.33301 -60 -25s-25 -41.667 -25 -75v-150c0 -66.667 -25 -116.667 -75 -150s-120 -50 -210 -50
c-110 0 -186 16.667 -228 50c-41.333 33.333 -62 83.333 -62 150v300c0 33.333 33.333 50 100 50s100 -16.667 100 -50v-300c0 -33.333 8.33301 -58.333 25 -75s38.334 -25 65.001 -25c23.333 0 43.333 8.33301 60 25s25 41.667 25 75v150c0 66.667 25 116.667 75 150
s120 50 210 50c110 0 186 -16.667 228 -50c41.333 -33.333 62 -83.333 62 -150v-300z" />
    <glyph glyph-name="uni17D217A2" unicode="&#x17d2;&#x17a2;" 
d="M-1130 -525c0 50 26.667 75 80 75v220c0 20 -10 30 -30 30c-33.333 0 -50 16.667 -50 50s18.333 50 55 50h113c74.667 0 112 -43.333 112 -130v-60h400v60c0 20 -10 30 -30 30c-33.333 0 -50 16.667 -50 50s18.333 50 55 50h113c74.667 0 112 -43.333 112 -130v-320
c0 -66.667 -25 -100 -75 -100c-83.333 0 -138.333 13.167 -165 39.5s-40 54.833 -40 85.5c0 50 26.667 75 80 75v50h-400v-150c0 -66.667 -41.667 -100 -125 -100c-50 0 -88.333 13.167 -115 39.5s-40 54.833 -40 85.5z" />
    <glyph glyph-name="uni178017B6" unicode="&#x1780;&#x17b6;" horiz-adv-x="1950" 
d="M1750 0h-250.003v888c0 42.667 -58.833 87 -176.5 133s-203.167 69 -256.5 69c-33.333 0 -82.166 -23.5 -146.499 -70.5s-114.166 -70.5 -149.499 -70.5c-64 0 -118.333 15 -163 45l-94 61c-42.667 23.333 -76.667 35 -102 35c-29.333 0 -55.833 -4.66699 -79.5 -14
s-35.5 -25.333 -35.5 -48c0 -14 36.333 -45 109 -93l-148 -93c-105.333 30.667 -158 97.667 -158 201c0 52.667 53 108.667 159 168s182 89 228 89c34 0 97.333 -29.667 190 -89l70 -42c30.667 -17.333 56.334 -26 77.001 -26c20 0 42.333 8.66699 67 26l81 56
c78 50 138.333 75 181 75c98 0 186.667 -20 266 -60c220.667 -108 331 -225.333 331 -352v-888zM1100 0h-250v650c0 102 -50 153 -150 153h-100c-100 0 -150 -51 -150 -153v-650h-250v650c0 168.667 133.333 253 400 253h100c266.667 0 400 -84.333 400 -253v-650z" />
    <glyph glyph-name="uni178117B6" unicode="&#x1781;&#x17b6;" horiz-adv-x="1950" 
d="M1051 1172c1.33301 26 18.666 49.999 51.999 71.999c57.333 37.333 114.333 56 171 56c65.333 0 130.333 -20.667 195 -62l137 -87c96 -60.667 144 -145 144 -253v-898h-250v888c0 22.667 -12.333 42.334 -37 59.001l-100 62c-50.667 33.333 -99 50 -145 50
c-30 0 -69.667 -13 -119 -39c0.666992 -7.33301 1 -15 1 -23v-61c0 -130 -216.667 -283 -650 -459v-174c0 -130 50 -195 150 -195h100c100 0 150 65 150 195v167l186 105h64v-272c0 -202 -133.333 -303 -400 -303h-100c-266.667 0 -400 101 -400 303v180
c433.333 191.333 650 342.333 650 453v61c0 130 -50 195 -150 195h-100c-94.667 0 -144.667 -59.667 -150 -179c46.667 -24 70 -62.667 70 -116c0 -78 -61.667 -117 -185 -117c-23.333 0 -45.666 5.16699 -66.999 15.5s-38 24.833 -50 43.5s-18 38 -18 58v143h2
c16 173.333 148.667 260 398 260h100c173.333 0 290.333 -42.667 351 -128z" />
    <glyph glyph-name="uni178217B6" unicode="&#x1782;&#x17b6;" horiz-adv-x="1950" 
d="M1750 0h-250.003v888c0 42.667 -58.833 87 -176.5 133s-203.167 69 -256.5 69c-33.333 0 -82.166 -23.5 -146.499 -70.5s-114.166 -70.5 -149.499 -70.5c-64 0 -118.333 15 -163 45l-94 61c-42.667 23.333 -76.667 35 -102 35c-29.333 0 -55.833 -4.66699 -79.5 -14
s-35.5 -25.333 -35.5 -48c0 -14 36.333 -45 109 -93l-148 -93c-105.333 30.667 -158 97.667 -158 201c0 52.667 53 108.667 159 168s182 89 228 89c34 0 97.333 -29.667 190 -89l70 -42c30.667 -17.333 56.334 -26 77.001 -26c20 0 42.333 8.66699 67 26l81 56
c78 50 138.333 75 181 75c98 0 186.667 -20 266 -60c220.667 -108 331 -225.333 331 -352v-888zM449.997 376c29.333 33.333 63.998 55.334 103.998 66.001c16 4.66699 31 7 45 7c58.667 0 98.334 -38.667 119.001 -116c4 -14.667 6 -28 6 -40
c0 -46.667 -28 -77.667 -84 -93c-6.66699 27.333 -23.667 41 -51 41c-9.33301 0 -19.666 -1.66699 -30.999 -5c-42 -10.667 -78 -74.334 -108 -191.001l-10 -45h-240v650c0 168.667 133.333 253 400 253h100c266.667 0 400 -84.333 400 -253v-650h-250v650
c0 102 -50 153 -150 153h-100c-100 0 -150 -51 -150 -153v-274z" />
    <glyph glyph-name="uni178317B6" unicode="&#x1783;&#x17b6;" horiz-adv-x="2600" 
d="M300 1052c0 56.667 -16.667 85 -50 85s-50 -31.333 -50 -94c0 -53.333 16.667 -80 50 -80s50 29.667 50 89zM1500 817c0 61.333 -44.002 101.334 -132.002 120.001c34.667 98 90.834 183 168.501 255s166.5 108 266.5 108c98 0 186.667 -17 266 -51
c220.667 -92 331 -208.333 331 -349v-900h-250v900c0 36 -50.333 78.333 -151 127c-101.333 48 -183.333 72 -246 72c-63.333 0 -115.666 -9.33301 -156.999 -28c-42 -18.667 -71.333 -47 -88 -85c161.333 -33.333 242 -73 242 -119v-564c0 -202 -150 -303 -450 -303
c-158.667 0 -267 29.333 -325 88c-58 -58.667 -166.333 -88 -325 -88c-300 0 -450 101 -450 303v217c0 140.667 16.667 242 50 304c7.33301 13.333 13.666 27.666 18.999 42.999h-19c-100 0 -150 58.667 -150 176c0 171.333 66.667 257 200 257s200 -82.667 200 -248
c0 -86 -8.33301 -167 -25 -243s-25 -172.333 -25 -289v-217c0 -135.333 66.667 -203 200 -203s200 67.667 200 203v514c0 61.333 -44 101.333 -132 120c12 58 42.833 133 92.5 225s90.5 138 122.5 138c25.333 0 59 -12.333 101 -37l60 -38
c18.667 -10.667 40.334 -16 65.001 -16c12.667 0 26.334 1.33301 41.001 4c-6 -40 -20 -82.667 -42 -128s-47.333 -70 -76 -74h-10c-28.667 0 -65.334 12 -110.001 36c-24 12 -43.667 18 -59 18c-20 0 -34.333 -9.33301 -43 -28l-22 -51c174.667 -33.333 262 -73 262 -119
v-564c0 -135.333 66.667 -203 200 -203s200 67.667 200 203v514z" />
    <glyph glyph-name="uni178417B6" unicode="&#x1784;&#x17b6;" horiz-adv-x="1950" 
d="M830 1120c0 40 -13.333 60 -40 60s-40 -20 -40 -60c0 -22.667 11 -42.334 33 -59.001c31.333 14.667 47 34.334 47 59.001zM1009 1144c41.333 52.667 72.665 85.9971 93.998 99.9971c57.333 37.333 114.333 56 171 56c65.333 0 130.333 -20.667 195 -62l137 -87
c96 -60.667 144 -145 144 -253v-898h-250v888c0 22.667 -12.333 42.334 -37 59.001l-100 62c-50.667 33.333 -99 50 -145 50c-26 0 -116 -37 -270 -111c101.333 -58 152 -140.667 152 -248v-700h-250l-200 193l-200 -193h-250v470c-66.667 22.667 -100 57.334 -100 104.001
s13.333 84.334 40 113.001s63.334 43 110.001 43h100c66.667 0 100 -28.667 100 -86v-482l198 195l202 -195v538c0 72 -2.66699 117.5 -8 136.5s-20 36.5 -44 52.5c-74.667 -59.333 -150.667 -89 -228 -89c-98.667 0 -185 24 -259 72s-111 114 -111 198
c0 50 8.33301 90.833 25 122.5s25 74.167 25 127.5s-33.333 80 -100 80c0 66.667 43.333 100 130 100c146.667 0 220 -60 220 -180c0 -50 -8.33301 -90.833 -25 -122.5s-25 -74.167 -25 -127.5c0 -46 15 -77.5 45 -94.5s55 -25.5 75 -25.5
c42.667 0 84.334 15.333 125.001 46c-70 32 -105 73.333 -105 124c0 120 66.667 180 200 180c136.667 0 209.667 -52 219 -156z" />
    <glyph glyph-name="uni178517B6" unicode="&#x1785;&#x17b6;" horiz-adv-x="1950" 
d="M200 865c-66.667 36.667 -100.004 96 -100.004 178c0 52.667 53 108.667 159 168s182 89 228 89c34 0 97.333 -29.667 190 -89l70 -42c30.667 -17.333 56.334 -26 77.001 -26c20 0 42.333 8.66699 67 26l81 56c78 50 138.333 75 181 75c98 0 186.667 -20 266 -60
c220.667 -108 331 -225.333 331 -352v-888h-250v888c0 42.667 -58.833 87 -176.5 133s-203.167 69 -256.5 69c-33.333 0 -82.166 -23.5 -146.499 -70.5s-114.166 -70.5 -149.499 -70.5c-64 0 -118.333 15 -163 45l-94 61c-42.667 23.333 -76.667 35 -102 35
c-29.333 0 -55.833 -4.66699 -79.5 -14s-35.5 -25.333 -35.5 -48c0 -14 33.667 -45 101 -93l52 -38v-594c0 -135.333 50 -203 150 -203h100c100 0 150 67.667 150 203v317c-66.667 23.333 -100 58 -100 104s13.333 83.5 40 112.5s63.334 43.5 110.001 43.5h100
c66.667 0 100 -29 100 -87v-490c0 -202 -133.333 -303 -400 -303h-100c-266.667 0 -400 101 -400 303v562z" />
    <glyph glyph-name="uni178617B6" unicode="&#x1786;&#x17b6;" horiz-adv-x="1950" 
d="M850 608l0.000976562 141.999c-6.66699 0 -18.334 -7.16699 -35.001 -21.5s-25 -33.166 -25 -56.499s6.33301 -40 19 -50c9.33301 -8 23 -12.667 41 -14zM200.001 864.999c-66.667 36.667 -100.003 95.999 -100.003 177.999c0 52.667 53 108.667 159 168s182 89 228 89
c34 0 97.333 -29.667 190 -89l70 -42c30.667 -17.333 56.334 -26 77.001 -26c20 0 42.333 8.66699 67 26l81 56c78 50 138.333 75 181 75c98 0 186.667 -20 266 -60c220.667 -108 331 -225.333 331 -352v-888h-250v888c0 42.667 -58.833 87 -176.5 133
s-203.167 69 -256.5 69c-33.333 0 -82.166 -23.5 -146.499 -70.5s-114.166 -70.5 -149.499 -70.5c-64 0 -118.333 15 -163 45l-94 61c-42.667 23.333 -76.667 35 -102 35c-29.333 0 -55.833 -4.66699 -79.5 -14s-35.5 -25.333 -35.5 -48c0 -14 33.667 -45 101 -93l52 -38
v-464c166.667 0 250 -72 250 -216c0 -78 26.667 -117 80 -117c46.667 0 70 39 70 117v290c-51.333 2.66699 -90 17.334 -116 44.001c-29.333 28.667 -44 69 -44 121s16.667 99.667 50 143s70 65 110 65h150c66.667 0 100 -43.333 100 -130v-533
c0 -144.667 -106.667 -217 -320 -217c-153.333 0 -230 72.333 -230 217c0 77.333 -33.333 116 -100 116v-160c0 -115.333 -35 -173 -105 -173h-105c-93.333 0 -140 95.333 -140 286c0 70 33.333 116.333 100 139v440z" />
    <glyph glyph-name="uni178717B6" unicode="&#x1787;&#x17b6;" horiz-adv-x="1950" 
d="M1098 1241c1.33301 0.666992 3.00195 1.66504 5.00195 2.99805c57.333 37.333 114.333 56 171 56c65.333 0 130.333 -20.667 195 -62l137 -87c96 -60.667 144 -145 144 -253v-898h-250v888c0 22.667 -12.333 42.334 -37 59.001l-100 62c-50.667 33.333 -99 50 -145 50
c-27.333 0 -119 -13.333 -275 -40c-46.667 -21.333 -104.334 -32 -173.001 -32c-101.333 0 -204.333 19 -309 57c-50 30.667 -91.333 46 -124 46c-28.667 0 -50.334 -7 -65.001 -21s-22 -30 -22 -48c0 -17.333 66.667 -53.666 200 -108.999v-740l198 185l202 -195v718h250
v-880h-250l-200 193l-200 -193h-250v891c-66.667 28 -100 80.333 -100 157c0 48 33.667 102 101 162s128.333 90 183 90c59.333 0 135.333 -25.667 228 -77s162 -77 208 -77c41.333 0 73.333 5 96 15s34 34.333 34 73c0 44 -16.667 66 -50 66
c-66.667 0 -100 35.667 -100 107c0 72 33.333 108 100 108c133.333 0 200 -79.333 200 -238c0 -12.667 -0.666992 -24.667 -2 -36z" />
    <glyph glyph-name="uni178817B6" unicode="&#x1788;&#x17b6;" horiz-adv-x="3250" 
d="M450 100c33.333 0 58.332 12.167 74.999 36.5s25 65.5 25 123.5c0 28.667 -6.16699 48 -18.5 58s-31.166 15 -56.499 15h-25v-233zM2150 817c0 61.333 -44.0029 101.333 -132.003 120c34.667 98 90.834 183 168.5 255c77.667 72 166.5 108 266.5 108
c98 0 186.667 -17 266 -51c220.667 -92 331 -208.333 331 -349v-900h-250v900c0 36 -50.333 78.333 -151 127c-101.333 48 -183.333 72 -246 72c-63.333 0 -115.666 -9.33301 -156.999 -28c-42 -18.667 -71.333 -47 -88 -85c161.333 -33.333 242 -73 242 -119v-564
c0 -202 -133.333 -303 -400 -303h-100c-117.333 0 -209 19.667 -275 59c-66 -39.333 -157.667 -59 -275 -59h-100c-266.667 0 -400 101 -400 303v694c0 135.333 -50 203 -150 203h-100c-100 0 -150 -67.667 -150 -203v-564h25c58.667 0 102.334 -14.333 131.001 -43
c29.333 -28.667 44 -72 44 -130c0 -86.667 -16.667 -151.667 -50 -195s-83.333 -65 -150 -65h-150c-66.667 -0 -100 43.333 -100 130v867c0 202 133.333 303 400 303h100c266.667 0 400 -101 400 -303v-694c0 -135.333 50 -203 150 -203h100c100 0 150 67.667 150 203v514
c0 61.333 -44 101.333 -132 120c12 58 42.833 133 92.5 225s90.5 138 122.5 138c25.333 0 59 -12.333 101 -37l60 -38c18.667 -10.667 40.334 -16 65.001 -16c12.667 0 26.334 1.33301 41.001 4c-6 -40 -20 -82.667 -42 -128s-47.333 -70 -76 -74h-10
c-28.667 0 -65.334 12 -110.001 36c-24 12 -43.667 18 -59 18c-20 0 -34.333 -9.33301 -43 -28l-22 -51c174.667 -33.333 262 -73 262 -119v-564c0 -135.333 50 -203 150 -203h100c100 0 150 67.667 150 203v514z" />
    <glyph glyph-name="uni178917B6" unicode="&#x1789;&#x17b6;" horiz-adv-x="2600" 
d="M1500 -266c0 35.333 -11.667 53 -35 53c-41.333 0 -62 19 -62 57c0 37.333 20.667 56 62 56c190 0 285 -55.333 285 -166c0 -92.667 -38.333 -166 -115 -220c-107.333 -76 -289.333 -114 -546 -114c-186.667 0 -351.334 32.667 -494.001 98
c-138 62.667 -256 155 -354 277c-27.333 28 -41 56 -41 84c0 27.333 17.333 41 52 41c67.333 0 111.333 -13.667 132 -41c96 -102 198.5 -170.667 307.5 -206s241.5 -53 397.5 -53c130.667 0 231.834 10.667 303.501 32s107.5 55.333 107.5 102zM450 100
c33.333 0 58.332 12.167 74.999 36.5s25 65.5 25 123.5c0 28.667 -6.16699 48 -18.5 58s-31.166 15 -56.499 15h-25v-233zM1703 1166l-1.99902 6c1.33301 26 18.666 50 51.999 72c57.333 37.333 114.333 56 171 56c65.333 0 130.333 -20.667 195 -62l137 -87
c96 -60.667 144 -145 144 -253v-898h-250v888c0 22.667 -12.333 42.334 -37 59.001l-100 62c-50.667 33.333 -99 50 -145 50c-30 0 -69.333 -13 -118 -39v-1020h-250v1000c0 133.333 -59.667 200 -179 200c-65.333 0 -118.5 -17.667 -159.5 -53s-61.5 -84.333 -61.5 -147
v-1000h-250v1000c0 72 -17.667 108 -53 108c-28 0 -75 -36 -141 -108c-66 72 -113 108 -141 108c-43.333 0 -65 -36 -65 -108v-567h25c58.667 0 102.334 -14.333 131.001 -43c29.333 -28.667 44 -72 44 -130c0 -86.667 -16.667 -151.667 -50 -195s-83.333 -65 -150 -65h-150
c-66.667 0 -100 43.333 -100 130v870c0 81.333 35 151.666 105 210.999s123 89 159 89c30 0 94 -44.667 192 -134c98.667 89.333 163 134 193 134c36 0 89 -29.667 159 -89l30 -29c20.667 24 46.667 45 78 63c66 36.667 134.333 55 205 55
c191.333 0 318.666 -44.667 381.999 -134z" />
    <glyph glyph-name="uni178A17B6" unicode="&#x178a;&#x17b6;" horiz-adv-x="1950" 
d="M1100 1242c0.666992 0.666992 1.66699 1.33203 3 1.99902c57.333 37.333 114.333 56 171 56c65.333 0 130.333 -20.667 195 -62l137 -87c96 -60.667 144 -145 144 -253v-898h-250v888c0 22.667 -12.333 42.334 -37 59.001l-100 62c-50.667 33.333 -99 50 -145 50
c-24.667 0 -101.334 -11 -230.001 -33c-68.667 -51.333 -178 -77 -328 -77c-34 0 -66 0.666992 -96 2c-242.667 11.333 -364 69.333 -364 174c0 60 15.667 104.667 47 134c28.667 27.333 71.334 41 128.001 41c64 0 109.333 -10.667 136 -32c26 -21.333 39 -47.333 39 -78
c0 -31.333 -7.33301 -59.666 -22 -84.999c18 -22 37 -36.833 57 -44.5s45 -11.5 75 -11.5c88 0 146.667 20.167 176 60.5s44 82.166 44 125.499c0 55.333 -26.667 83 -80 83c-46.667 0 -70 21.667 -70 65c0 44 40 66 120 66c164 0 247.333 -69 250 -207zM200 862.998h250
v-691l198 185l202 -195v701h250v-863h-250l-200 193l-200 -193h-250v863z" />
    <glyph glyph-name="uni178B17B6" unicode="&#x178b;&#x17b6;" horiz-adv-x="1950" 
d="M300 1052c0 56.667 -16.667 85 -50 85s-50 -31.333 -50 -94c0 -53.333 16.667 -80 50 -80s50 29.667 50 89zM1180 1283c31.333 11.333 62.667 17 94 17c65.333 0 130.333 -20.667 195 -62l137 -87c96 -60.667 144 -145 144 -253v-898h-250v888
c0 22.667 -12.333 42.334 -37 59.001l-100 62c-50.667 33.333 -99 50 -145 50c-27.333 0 -62.666 -11 -105.999 -33c-16 -19.333 -33.333 -29 -52 -29c-32.667 0 -69.667 15.333 -111 46c-20 13.333 -36.667 20 -50 20c-14.667 0 -26 -8.66699 -34 -26l-22 -51
c171.333 -33.333 257 -73 257 -119v-564c0 -202 -133.333 -303 -400 -303h-100c-266.667 0 -400 101 -400 303v217c0 140.667 16.667 242 50 304c7.33301 13.333 13.666 27.666 18.999 42.999h-19c-100 0 -150 58.667 -150 176c0 171.333 66.667 257 200 257
s200 -82.667 200 -248c0 -86 -8.33301 -167 -25 -243s-25 -172.333 -25 -289v-217c0 -135.333 50 -203 150 -203h100c100 0 150 67.667 150 203v514c0 61.333 -39.333 101.333 -118 120c10.667 58 39.334 133 86.001 225s87.667 138 123 138c27.333 0 60.666 -18 99.999 -54
c10.667 -9.33301 19.667 -14 27 -14c6 0 11.333 2.66699 16 8c10.667 11.333 16 31.333 16 60s-24.333 43 -73 43c-60 0 -90 43.333 -90 130c0 58 30 87 90 87c103.333 0 155 -86.667 155 -260h-2v-17z" />
    <glyph glyph-name="uni178C17B6" unicode="&#x178c;&#x17b6;" horiz-adv-x="1950" 
d="M1051 1172c1.33301 26 18.667 49.999 52 71.999c57.333 37.333 114.333 56 171 56c65.333 0 130.333 -20.667 195 -62l137 -87c96 -60.667 144 -145 144 -253v-898h-250v888c0 22.667 -12.333 42.334 -37 59.001l-100 62c-50.667 33.333 -99 50 -145 50
c-30 0 -69.333 -13 -118 -39v-110c0 -110 -157.333 -232.333 -472 -367l-178 -78v-205c0 -106 33.667 -159 101 -159c102 0 201.667 61.333 299 184v200l250 87v-672h-250v222c-74 -81.333 -173.667 -122 -299 -122c-234 0 -351 86.667 -351 260v231l315 136
c223.333 90.667 335 185 335 283v130c0 62.667 -20 94 -60 94c-28 0 -74.667 -31.333 -140 -94c-64.667 62.667 -111 94 -139 94c-40.667 0 -61 -31.333 -61 -94v-65c50.667 0 87 -9 109 -27c22 -18.667 33 -45.667 33 -81c0 -86.667 -44.333 -130 -133 -130
c-172.667 0 -259 28.667 -259 86v217c0 70.667 34.5 131.667 103.5 183s121.167 77 156.5 77c30 0 93.333 -38.667 190 -116c97.333 77.333 161 116 191 116c35.333 0 87.333 -25.667 156 -77c21.333 -16 39.333 -33 54 -51z" />
    <glyph glyph-name="uni178D17B6" unicode="&#x178d;&#x17b6;" horiz-adv-x="2600" 
d="M450 100c13.333 0 28.333 12.167 45 36.5s25 65.5 25 123.5c0 28.667 -6.16699 48 -18.5 58s-29.5 15 -51.5 15v-233zM1500 817c0 61.333 -44.002 101.333 -132.002 120c34.667 98 90.834 183 168.501 255s166.5 108 266.5 108c98 0 186.667 -17 266 -51
c220.667 -92 331 -208.333 331 -349v-900h-250v900c0 36 -50.333 78.333 -151 127c-101.333 48 -183.333 72 -246 72c-63.333 0 -115.666 -9.33301 -156.999 -28c-42 -18.667 -71.333 -47 -88 -85c161.333 -33.333 242 -73 242 -119v-650
c0 -144.667 -106.667 -217 -320 -217c-153.333 -0 -230 72.333 -230 217c0 77.333 -33.333 116 -100 116v-160c0 -115.333 -35 -173 -105 -173h-105c-86.667 -0 -130 95.333 -130 286c0 70 30 116.333 90 139v575c0 72 -20 108 -60 108c-28 0 -74.667 -36 -140 -108
c-64.667 72 -111 108 -139 108c-40.667 0 -61 -36 -61 -108v-567c55.333 0 97.333 -14.333 126 -43c29.333 -28.667 44 -72 44 -130c0 -86.667 -16.667 -151.667 -50 -195s-73.333 -65 -120 -65h-150c-66.667 -0 -100 43.333 -100 130v870
c0 81.333 34.5 151.666 103.5 210.999s121.167 89 156.5 89c30 0 93.333 -44.667 190 -134c97.333 89.333 161 134 191 134c35.333 0 87.333 -29.667 156 -89s103 -129.666 103 -210.999v-567c166.667 0 250 -72 250 -216c0 -78 26.667 -117 80 -117c46.667 0 70 39 70 117
v600z" />
    <glyph glyph-name="uni178E17B6" unicode="&#x178e;&#x17b6;" horiz-adv-x="3250" 
d="M450 100c33.333 0 58.332 12.167 74.999 36.5s25 65.5 25 123.5c0 28.667 -6.16699 48 -18.5 58s-31.166 15 -56.499 15h-25v-233zM2351 1172c1.33301 26 18.665 49.999 51.999 71.999c57.333 37.333 114.333 56 171 56c65.333 0 130.333 -20.667 195 -62l137 -87
c96 -60.667 144 -145 144 -253v-898h-250v888c0 22.667 -12.333 42.334 -37 59.001l-100 62c-50.667 33.333 -99 50 -145 50c-30 0 -69.667 -13 -119 -39c0.666992 -7.33301 1 -15 1 -23v-997h-250v997c0 135.333 -50 203 -150 203h-100c-100 0 -150 -67.667 -150 -203v-997
h-250l-200 193l-200 -193h-250v997c0 135.333 -50 203 -150 203h-100c-100 0 -150 -67.667 -150 -203v-564h25c58.667 0 102.334 -14.333 131.001 -43c29.333 -28.667 44 -72 44 -130c0 -86.667 -16.667 -151.667 -50 -195s-83.333 -65 -150 -65h-150
c-66.667 -0 -100 43.333 -100 130v867c0 202 133.333 303 400 303h100c266.667 0 400 -101 400 -303v-825l198 185l202 -195v835c0 202 133.333 303 400 303h100c173.333 0 290.333 -42.667 351 -128z" />
    <glyph glyph-name="uni178F17B6" unicode="&#x178f;&#x17b6;" horiz-adv-x="1950" 
d="M1750 0h-250.003v888c0 42.667 -58.833 87 -176.5 133s-203.167 69 -256.5 69c-33.333 0 -82.166 -23.5 -146.499 -70.5s-114.166 -70.5 -149.499 -70.5c-64 0 -118.333 15 -163 45l-94 61c-42.667 23.333 -76.667 35 -102 35c-29.333 0 -55.833 -4.66699 -79.5 -14
s-35.5 -25.333 -35.5 -48c0 -14 36.333 -45 109 -93l-148 -93c-105.333 30.667 -158 97.667 -158 201c0 52.667 53 108.667 159 168s182 89 228 89c34 0 97.333 -29.667 190 -89l70 -42c30.667 -17.333 56.334 -26 77.001 -26c20 0 42.333 8.66699 67 26l81 56
c78 50 138.333 75 181 75c98 0 186.667 -20 266 -60c220.667 -108 331 -225.333 331 -352v-888zM449.997 433h24.999c58.667 0 102.334 -14.333 131.001 -43c29.333 -28.667 44 -72 44 -130c0 -86.667 -16.667 -151.667 -50 -195s-83.333 -65 -150 -65h-150
c-66.667 -0 -100 43.333 -100 130v520c0 168.667 133.333 253 400 253h100c266.667 0 400 -84.333 400 -253v-650h-250v650c0 102 -50 153 -150 153h-100c-100 0 -150 -51 -150 -153v-217zM449.996 100c33.333 0 58.332 12.167 74.999 36.5s25 65.5 25 123.5
c0 28.667 -6.16699 48 -18.5 58s-31.166 15 -56.499 15h-25v-233z" />
    <glyph glyph-name="uni179017B6" unicode="&#x1790;&#x17b6;" horiz-adv-x="1950" 
d="M1098 1241c1.33301 0.666992 3.00098 1.66504 5.00098 2.99805c57.333 37.333 114.333 56 171 56c65.333 0 130.333 -20.667 195 -62l137 -87c96 -60.667 144 -145 144 -253v-898h-250v888c0 22.667 -12.333 42.334 -37 59.001l-100 62c-50.667 33.333 -99 50 -145 50
c-27.333 0 -119 -13.333 -275 -40c-46.667 -21.333 -104.334 -32 -173.001 -32c-101.333 0 -204.333 19 -309 57c-50 30.667 -91.333 46 -124 46c-28.667 0 -50.334 -7 -65.001 -21s-22 -30 -22 -48c0 -17.333 66.667 -53.666 200 -108.999v-609
c0 -135.333 50 -203 150 -203h100c100 0 150 67.667 150 203v317c-66.667 23.333 -100 58 -100 104s13.333 83.5 40 112.5s63.334 43.5 110.001 43.5h100c66.667 0 100 -29 100 -87v-490c0 -202 -133.333 -303 -400 -303h-100c-266.667 0 -400 101 -400 303v588
c-66.667 28 -100 80.333 -100 157c0 48 33.667 102 101 162s128.333 90 183 90c59.333 0 135.333 -25.667 228 -77s162 -77 208 -77c41.333 0 73.333 5 96 15s34 34.333 34 73c0 44 -16.667 66 -50 66c-66.667 0 -100 35.667 -100 107c0 72 33.333 108 100 108
c133.333 0 200 -79.333 200 -238c0 -12.667 -0.666992 -24.667 -2 -36z" />
    <glyph glyph-name="uni179117B6" unicode="&#x1791;&#x17b6;" horiz-adv-x="1950" 
d="M1055 1191c7.33301 18.667 23.3311 36.332 47.998 52.999c57.333 37.333 114.333 56 171 56c65.333 0 130.333 -20.667 195 -62l137 -87c96 -60.667 144 -145 144 -253v-898h-250v888c0 22.667 -12.333 42.334 -37 59.001l-100 62c-50.667 33.333 -99 50 -145 50
c-30 0 -69.333 -13 -118 -39v-62c0 -20.667 -6 -40.167 -18 -58.5s-28.667 -32.666 -50 -42.999s-43.666 -15.5 -66.999 -15.5c-56.667 0 -95.667 5.16699 -117 15.5s-38 24.666 -50 42.999s-18 37.833 -18 58.5c0 20 6.83301 40.667 20.5 62s27.834 33.333 42.501 36h7
c-5.33301 96 -55.333 144 -150 144h-100c-100 0 -150 -67.667 -150 -203v-117c0 -195.333 116.667 -293 350 -293c0 106.667 50 160 150 160s150 -46.667 150 -140c0 -80 -33.333 -120 -100 -120l50 -87v-140c0 -173.333 -133.333 -260 -400 -260s-400 86.667 -400 260v147
h250v-147c0 -106.667 50 -160 150 -160s150 53.333 150 160v227c-400 0 -600 131 -600 393v117c0 202 133.333 303 400 303h100c176.667 0 295 -36.333 355 -109z" />
    <glyph glyph-name="uni179217B6" unicode="&#x1792;&#x17b6;" horiz-adv-x="1950" 
d="M200 865c-66.667 36.667 -100.004 96 -100.004 178c0 52.667 53 108.667 159 168s182 89 228 89c34 0 97.333 -29.667 190 -89l70 -42c30.667 -17.333 56.334 -26 77.001 -26c20 0 42.333 8.66699 67 26l81 56c78 50 138.333 75 181 75c98 0 186.667 -20 266 -60
c220.667 -108 331 -225.333 331 -352v-888h-250v888c0 42.667 -58.833 87 -176.5 133s-203.167 69 -256.5 69c-33.333 0 -82.166 -23.5 -146.499 -70.5s-114.166 -70.5 -149.499 -70.5c-64 0 -118.333 15 -163 45l-94 61c-42.667 23.333 -76.667 35 -102 35
c-29.333 0 -55.833 -4.66699 -79.5 -14s-35.5 -25.333 -35.5 -48c0 -14 33.667 -45 101 -93l52 -38v-725l198 185l202 -195v458c-66.667 23.333 -100 58 -100 104s13.333 83.5 40 112.5s63.334 43.5 110.001 43.5h100c66.667 0 100 -29 100 -87v-793h-250l-200 193
l-200 -193h-250v865z" />
    <glyph glyph-name="uni179317B6" unicode="&#x1793;&#x17b6;" horiz-adv-x="1950" 
d="M1051 1175c2.66699 24.667 19.999 47.667 51.999 69c57.333 37.333 114.333 56 171 56c65.333 0 130.333 -20.667 195 -62l137 -87c96 -60.667 144 -145 144 -253v-898h-250v888c0 22.667 -12.333 42.334 -37 59.001l-100 62c-50.667 33.333 -99 50 -145 50
c-30 0 -69.333 -13 -118 -39v-123c0 -20 -6 -39.333 -18 -58s-28.667 -33.167 -50 -43.5s-43.666 -15.5 -66.999 -15.5c-56.667 0 -95.667 5.16699 -117 15.5s-38 24.833 -50 43.5s-18 38 -18 58c0 40 6.83301 68.667 20.5 86s27.834 27 42.501 29l7 1
c-5.33301 124.667 -55.333 187 -150 187h-100c-100 0 -150 -67.667 -150 -203v-44c0 -137.333 90.667 -238 272 -302l378 -126v-265c0 -173.333 -111.667 -260 -335 -260c-80.667 0 -143 21.667 -187 65s-86.667 78.666 -128 105.999v-171h-250v520h250v-152
c60 -28 110.667 -79.667 152 -155s95.666 -113 162.999 -113c56.667 0 85 53.333 85 160v237l-164 54c-324 107.333 -486 241.333 -486 402v44c0 202 133.333 303 400 303h100c172.667 0 289.667 -41.667 351 -125z" />
    <glyph glyph-name="uni179417B6" unicode="&#x1794;&#x17b6;" horiz-adv-x="1950" 
d="M850 300l-0.00292969 580h250v-980h-250v130c-41.333 -18 -91.333 -28 -150 -30h-100c-266.667 0 -400 101 -400 303v562c-66.667 36.667 -100 96 -100 178c0 52.667 53 108.667 159 168s182 89 228 89c34 0 97.333 -29.667 190 -89l70 -42
c30.667 -17.333 56.334 -26 77.001 -26c20 0 42.333 8.66699 67 26l81 56c78 50 138.333 75 181 75c98 0 186.667 -20 266 -60c220.667 -108 331 -225.333 331 -352v-888h-250v888c0 42.667 -58.833 87 -176.5 133s-203.167 69 -256.5 69
c-33.333 0 -82.166 -23.5 -146.499 -70.5s-114.166 -70.5 -149.499 -70.5c-64 0 -118.333 15 -163 45l-94 61c-42.667 23.333 -76.667 35 -102 35c-29.333 0 -55.833 -4.66699 -79.5 -14s-35.5 -25.333 -35.5 -48c0 -14 33.667 -45 101 -93l52 -38v-594
c0 -135.333 50 -203 150 -203h100c99.333 0 149.333 66.667 150 200z" />
    <glyph glyph-name="uni179517B6" unicode="&#x1795;&#x17b6;" horiz-adv-x="1950" 
d="M850 608l0.000976562 141.999c-6.66699 0 -18.334 -7.16699 -35.001 -21.5s-25 -33.166 -25 -56.499s6.33301 -40 19 -50c9.33301 -8 23 -12.667 41 -14zM1098 1241c1.33301 0.666992 3.00195 1.66406 5.00195 2.99707c57.333 37.333 114.333 56 171 56
c65.333 0 130.333 -20.667 195 -62l137 -87c96 -60.667 144 -145 144 -253v-898h-250v888c0 22.667 -12.333 42.334 -37 59.001l-100 62c-50.667 33.333 -99 50 -145 50c-27.333 0 -119 -13.333 -275 -40c-46.667 -21.333 -104.334 -32 -173.001 -32
c-101.333 0 -204.333 19 -309 57c-50 30.667 -91.333 46 -124 46c-28.667 0 -50.334 -7 -65.001 -21s-22 -30 -22 -48c0 -17.333 66.667 -53.666 200 -108.999v-740l198 185l202 -195v345c-51.333 2.66699 -90 17.334 -116 44.001c-29.333 28.667 -44 69 -44 121
s16.667 99.667 50 143s70 65 110 65h150c66.667 0 100 -43.333 100 -130v-750h-250l-200 193l-200 -193h-250v891c-66.667 28 -100 80.333 -100 157c0 48 33.667 102 101 162s128.333 90 183 90c59.333 0 135.333 -25.667 228 -77s162 -77 208 -77c41.333 0 73.333 5 96 15
s34 34.333 34 73c0 44 -16.667 66 -50 66c-66.667 0 -100 35.667 -100 107c0 72 33.333 108 100 108c133.333 0 200 -79.333 200 -238c0 -12.667 -0.666992 -24.667 -2 -36z" />
    <glyph glyph-name="uni179617B6" unicode="&#x1796;&#x17b6;" horiz-adv-x="1950" 
d="M450 100c33.333 0 58.332 12.167 74.999 36.5s25 65.5 25 123.5c0 28.667 -6.16699 48 -18.5 58s-31.166 15 -56.499 15h-25v-233zM1034 1174c15.333 26.667 38.332 50.001 68.999 70.001c57.333 37.333 114.333 56 171 56c65.333 0 130.333 -20.667 195 -62l137 -87
c96 -60.667 144 -145 144 -253v-898h-250v888c0 22.667 -12.333 42.334 -37 59.001l-100 62c-50.667 33.333 -99 50 -145 50c-30 0 -69.667 -13 -119 -39c0.666992 -6.66699 1 -13.334 1 -20.001v-1000h-250v1000c0 72 -20 108 -60 108c-28 0 -74.667 -36 -140 -108
c-64.667 72 -111 108 -139 108c-40.667 0 -61 -36 -61 -108v-567h25c58.667 0 102.334 -14.333 131.001 -43c29.333 -28.667 44 -72 44 -130c0 -86.667 -16.667 -151.667 -50 -195s-83.333 -65 -150 -65h-150c-66.667 0 -100 43.333 -100 130v870
c0 81.333 34.5 151.666 103.5 210.999s121.167 89 156.5 89c30 0 93.333 -44.667 190 -134c97.333 89.333 161 134 191 134c35.333 0 87.333 -29.667 156 -89c14 -12 26.333 -24.333 37 -37z" />
    <glyph glyph-name="uni179717B6" unicode="&#x1797;&#x17b6;" horiz-adv-x="1950" 
d="M1750 0h-250.003v888c0 42.667 -58.833 87 -176.5 133s-203.167 69 -256.5 69c-33.333 0 -82.166 -23.5 -146.499 -70.5s-114.166 -70.5 -149.499 -70.5c-64 0 -118.333 15 -163 45l-94 61c-42.667 23.333 -76.667 35 -102 35c-29.333 0 -55.833 -4.66699 -79.5 -14
s-35.5 -25.333 -35.5 -48c0 -14 36.333 -45 109 -93l-148 -93c-105.333 30.667 -158 97.667 -158 201c0 52.667 53 108.667 159 168s182 89 228 89c34 0 97.333 -29.667 190 -89l70 -42c30.667 -17.333 56.334 -26 77.001 -26c20 0 42.333 8.66699 67 26l81 56
c78 50 138.333 75 181 75c98 0 186.667 -20 266 -60c220.667 -108 331 -225.333 331 -352v-888zM291.997 333l-42 0.000976562c-33.333 0 -50 -38.667 -50 -116c0 -56 16.667 -84 50 -84s50 38.333 50 115c0 35.333 -2.66699 63.666 -8 84.999zM849.997 650.001
c0 102 -50.001 153.001 -150.001 153.001h-100c-100 0 -150 -51 -150 -153c0 -30 8.33301 -83 25 -159s25 -157 25 -243c0 -165.333 -73.333 -248 -220 -248c-120 0 -180 72.333 -180 217c0 144 50 216 150 216h19c-5.33301 15.333 -11.666 29.666 -18.999 42.999
c-33.333 62 -50 120 -50 174c0 168.667 133.333 253 400 253h100c266.667 0 400 -84.333 400 -253v-650h-250v650z" />
    <glyph glyph-name="uni179817B6" unicode="&#x1798;&#x17b6;" horiz-adv-x="1950" 
d="M850 600h-400v-297c0 -135.333 50 -203 150 -203h100c100 0 150 67.667 150 203v297zM850 817c0 61.333 -44.0029 101.333 -132.003 120c34.667 98 90.834 183 168.501 255s166.5 108 266.5 108c98 0 186.667 -17 266 -51c220.667 -92 331 -208.333 331 -349v-900h-250
v900c0 36 -50.333 78.333 -151 127c-101.333 48 -183.333 72 -246 72c-63.333 0 -115.666 -9.33301 -156.999 -28c-42 -18.667 -71.333 -47 -88 -85c161.333 -33.333 242 -73 242 -119v-564c0 -202 -133.333 -303 -400 -303h-100c-266.667 0 -400 101 -400 303v514
c0 61.333 -44 101.333 -132 120c12 58 42.833 133 92.5 225s90.5 138 122.5 138c25.333 0 59 -12.333 101 -37l60 -38c18.667 -10.667 40.334 -16 65.001 -16c12.667 0 26.334 1.33301 41.001 4c-6 -40 -20 -82.667 -42 -128s-47.333 -70 -76 -74h-10
c-28.667 0 -65.334 12 -110.001 36c-24 12 -43.667 18 -59 18c-20 0 -34.333 -9.33301 -43 -28l-22 -51c174.667 -33.333 262 -73 262 -119v-167h400v117z" />
    <glyph glyph-name="uni179917B6" unicode="&#x1799;&#x17b6;" horiz-adv-x="2600" 
d="M450 1167v-200c33.333 0 50 38.667 50 116c0 56 -16.667 84 -50 84zM1500 817c0 61.333 -44.0029 101.333 -132.003 120c34.667 98 90.834 183 168.501 255s166.5 108 266.5 108c98 0 186.667 -17 266 -51c220.667 -92 331 -208.333 331 -349v-900h-250v900
c0 36 -50.333 78.333 -151 127c-101.333 48 -183.333 72 -246 72c-63.333 0 -115.666 -9.33301 -156.999 -28c-42 -18.667 -71.333 -47 -88 -85c161.333 -33.333 242 -73 242 -119v-564c0 -202 -150 -303 -450 -303c-158.667 -0 -267 29.333 -325 88
c-58 -58.667 -166.333 -88 -325 -88c-300 0 -450 101 -450 303v897c0 66.667 36.667 100 110 100h110c120 0 180 -72.333 180 -217c0 -144 -50 -216 -150 -216v-564c0 -135.333 66.667 -203 200 -203s200 67.667 200 203v514c0 61.333 -44 101.333 -132 120
c12 58 42.833 133 92.5 225s90.5 138 122.5 138c25.333 0 59 -12.333 101 -37l60 -38c18.667 -10.667 40.334 -16 65.001 -16c12.667 0 26.334 1.33301 41.001 4c-6 -40 -20 -82.667 -42 -128s-47.333 -70 -76 -74h-10c-28.667 0 -65.334 12 -110.001 36
c-24 12 -43.667 18 -59 18c-20 0 -34.333 -9.33301 -43 -28l-22 -51c174.667 -33.333 262 -73 262 -119v-564c0 -135.333 66.667 -203 200 -203s200 67.667 200 203v514z" />
    <glyph glyph-name="uni179A17B6" unicode="&#x179a;&#x17b6;" horiz-adv-x="1300" 
d="M225 313c-16.667 0 -25 -32 -25 -96c0 -49.333 8.33301 -74 25 -74s25 35 25 105c0 43.333 -8.33301 65 -25 65zM530 1210c17.333 14.667 36.666 29.999 57.999 45.999c39.333 29.333 77.333 44 114 44c44 0 94.333 -20.667 151 -62l121 -87
c84 -60.667 126 -145 126 -253v-898h-250v888c0 22.667 -26.167 56.834 -78.5 102.501s-105.166 68.5 -158.499 68.5c-40.667 0 -74 -7 -100 -21s-53 -23 -81 -27h-10c-28.667 0 -65.334 12 -110.001 36c-24 12 -43.667 18 -59 18c-20 0 -34.333 -9.33301 -43 -28l-22 -51
c174.667 -33.333 262 -73 262 -119v-739c0 -85.333 -28.333 -128 -85 -128h-125c-93.333 -0 -140 72.333 -140 217c0 117.333 33.333 187 100 209v391c0 61.333 -44 101.333 -132 120c12 58 42.833 133 92.5 225s90.5 138 122.5 138c25.333 0 59 -12.333 101 -37l60 -38
c18.667 -10.667 40.334 -16 65.001 -16c6.66699 0 13.667 0.333008 21 1z" />
    <glyph glyph-name="uni179B17B6" unicode="&#x179b;&#x17b6;" horiz-adv-x="2600" 
d="M450 100c33.333 0 58.332 12.167 74.999 36.5s25 65.5 25 123.5c0 28.667 -6.16699 48 -18.5 58s-31.166 15 -56.499 15h-25v-233zM1500 817c0 61.333 -44.0029 101.333 -132.003 120c34.667 98 90.834 183 168.501 255s166.5 108 266.5 108c98 0 186.667 -17 266 -51
c220.667 -92 331 -208.333 331 -349v-900h-250v900c0 36 -50.333 78.333 -151 127c-101.333 48 -183.333 72 -246 72c-63.333 0 -115.666 -9.33301 -156.999 -28c-42 -18.667 -71.333 -47 -88 -85c161.333 -33.333 242 -73 242 -119v-564c0 -202 -133.333 -303 -400 -303
h-100c-266.667 0 -400 101 -400 303v694c0 135.333 -50 203 -150 203h-100c-100 0 -150 -67.667 -150 -203v-564h25c58.667 0 102.334 -14.333 131.001 -43c29.333 -28.667 44 -72 44 -130c0 -86.667 -16.667 -151.667 -50 -195s-83.333 -65 -150 -65h-150
c-66.667 -0 -100 43.333 -100 130v867c0 202 133.333 303 400 303h100c266.667 0 400 -101 400 -303v-694c0 -135.333 50 -203 150 -203h100c100 0 150 67.667 150 203v514z" />
    <glyph glyph-name="uni179C17B6" unicode="&#x179c;&#x17b6;" horiz-adv-x="1300" 
d="M225 313c-16.667 0 -25 -32 -25 -96c0 -49.333 8.33301 -74 25 -74s25 35 25 105c0 43.333 -8.33301 65 -25 65zM530 1283c31.333 11.333 62.666 16.999 93.999 16.999c65.333 0 130.333 -20.667 195 -62l137 -87c96 -60.667 144 -145 144 -253v-898h-250v888
c0 22.667 -12.333 42.334 -37 59.001l-100 62c-50.667 33.333 -99 50 -145 50c-27.333 0 -62.666 -11 -105.999 -33c-16 -19.333 -33.333 -29 -52 -29c-32.667 0 -69.667 15.333 -111 46c-20 13.333 -36.667 20 -50 20c-14.667 0 -26 -8.66699 -34 -26l-22 -51
c171.333 -33.333 257 -73 257 -119v-739c0 -85.333 -28.333 -128 -85 -128h-125c-93.333 -0 -140 72.333 -140 217c0 117.333 33.333 187 100 209v391c0 61.333 -39.333 101.333 -118 120c10.667 58 39.334 133 86.001 225s87.667 138 123 138
c27.333 0 60.666 -18 99.999 -54c10.667 -9.33301 19.667 -14 27 -14c6 0 11.333 2.66699 16 8c10.667 11.333 16 31.333 16 60s-24.333 43 -73 43c-60 0 -90 43.333 -90 130c0 58 30 87 90 87c103.333 0 155 -86.667 155 -260h-2v-17z" />
    <glyph glyph-name="uni179D17B6" unicode="&#x179d;&#x17b6;" horiz-adv-x="1950" 
d="M1750 0h-250.003v888c0 42.667 -58.833 87 -176.5 133s-203.167 69 -256.5 69c-33.333 0 -82.166 -23.5 -146.499 -70.5s-114.166 -70.5 -149.499 -70.5c-64 0 -118.333 15 -163 45l-94 61c-42.667 23.333 -76.667 35 -102 35c-29.333 0 -55.833 -4.66699 -79.5 -14
s-35.5 -25.333 -35.5 -48c0 -14 36.333 -45 109 -93l-148 -93c-105.333 30.667 -158 97.667 -158 201c0 52.667 53 108.667 159 168s182 89 228 89c34 0 97.333 -29.667 190 -89l70 -42c30.667 -17.333 56.334 -26 77.001 -26c20 0 42.333 8.66699 67 26l81 56
c78 50 138.333 75 181 75c98 0 186.667 -20 266 -60c220.667 -108 331 -225.333 331 -352v-888zM1100 502l99.998 0.000976562v-150h-100v-352h-250v352h-100v150h100v148c0 102 -50 153 -150 153h-100c-100 0 -150 -51 -150 -153v-274c29.333 33.333 64 55.333 104 66
c16 4.66699 31 7 45 7c58.667 0 98.334 -38.667 119.001 -116c4 -14.667 6 -28 6 -40c0 -46.667 -28 -77.667 -84 -93c-6.66699 27.333 -23.667 41 -51 41c-9.33301 0 -19.666 -1.66699 -30.999 -5c-42 -10.667 -78 -74.334 -108 -191.001l-10 -45h-240v650
c0 168.667 133.333 253 400 253h100c266.667 0 400 -84.333 400 -253v-148z" />
    <glyph glyph-name="uni179E17B6" unicode="&#x179e;&#x17b6;" horiz-adv-x="1950" 
d="M850 452h-100.003v150h100v278h250v-278h100v-150h-100v-552h-250v130c-41.333 -18 -91.333 -28 -150 -30h-100c-266.667 0 -400 101 -400 303v562c-66.667 36.667 -100 96 -100 178c0 52.667 53 108.667 159 168s182 89 228 89c34 0 97.333 -29.667 190 -89l70 -42
c30.667 -17.333 56.334 -26 77.001 -26c20 0 42.333 8.66699 67 26l81 56c78 50 138.333 75 181 75c98 0 186.667 -20 266 -60c220.667 -108 331 -225.333 331 -352v-888h-250v888c0 42.667 -58.833 87 -176.5 133s-203.167 69 -256.5 69
c-33.333 0 -82.166 -23.5 -146.499 -70.5s-114.166 -70.5 -149.499 -70.5c-64 0 -118.333 15 -163 45l-94 61c-42.667 23.333 -76.667 35 -102 35c-29.333 0 -55.833 -4.66699 -79.5 -14s-35.5 -25.333 -35.5 -48c0 -14 33.667 -45 101 -93l52 -38v-594
c0 -135.333 50 -203 150 -203h100c99.333 0 149.333 66.667 150 200v152z" />
    <glyph glyph-name="uni179F17B6" unicode="&#x179f;&#x17b6;" horiz-adv-x="2600" 
d="M450 100c33.333 0 58.332 12.167 74.999 36.5s25 65.5 25 123.5c0 28.667 -6.16699 48 -18.5 58s-31.166 15 -56.499 15h-25v-233zM1500 817c0 61.333 -44.002 101.332 -132.002 119.999c34.667 98 90.834 183 168.501 255s166.5 108 266.5 108c98 0 186.667 -17 266 -51
c220.667 -92 331 -208.333 331 -349v-900h-250v900c0 36 -50.333 78.333 -151 127c-101.333 48 -183.333 72 -246 72c-63.333 0 -115.666 -9.33301 -156.999 -28c-42 -18.667 -71.333 -47 -88 -85c161.333 -33.333 242 -73 242 -119v-564c0 -202 -133.333 -303 -400 -303
h-100c-266.667 0 -400 101 -400 303v347c0 135.333 -50 203 -150 203h-100c-100 0 -150 -67.667 -150 -203v-217h25c58.667 0 102.334 -14.333 131.001 -43c29.333 -28.667 44 -72 44 -130c0 -86.667 -16.667 -151.667 -50 -195s-83.333 -65 -150 -65h-150
c-66.667 0 -100 43.333 -100 130v520c0 145.333 69 238.333 207 279c-38 25.333 -100 46 -186 62c22.667 52.667 73.667 118.334 153 197.001c74.667 74 134 111 178 111h8c35.333 -3.33301 81 -19.333 137 -48l80 -44c25.333 -12.667 55 -20.667 89 -24
c18 -1.33301 37.333 -2 58 -2c-12.667 -36 -36.667 -73.667 -72 -113s-73.333 -59 -114 -59l-14 2c-40 4 -90 20.333 -150 49c-32.667 14 -59.667 22.333 -81 25h-6c-26.667 0 -57.667 -15 -93 -45c105.333 -32 185.666 -61 240.999 -87h65c266.667 0 400 -101 400 -303
v-347c0 -135.333 50 -203 150 -203h100c100 0 150 67.667 150 203v514z" />
    <glyph glyph-name="uni17A017B6" unicode="&#x17a0;&#x17b6;" horiz-adv-x="2600" 
d="M1701 1172c1.33301 26 18.666 49.999 51.999 71.999c57.333 37.333 114.333 56 171 56c65.333 0 130.333 -20.667 195 -62l137 -87c96 -60.667 144 -145 144 -253v-898h-250v888c0 22.667 -12.333 42.334 -37 59.001l-100 62c-50.667 33.333 -99 50 -145 50
c-30 0 -69.667 -13 -119 -39c0.666992 -7.33301 1 -15 1 -23v-997h-250v997c0 135.333 -50 203 -150 203h-100c-100 0 -150 -67.667 -150 -203v-694c0 -202 -133.333 -303 -400 -303h-100c-266.667 0 -400 101 -400 303v514c0 61.333 -44 101.333 -132 120
c12 58 42.833 133 92.5 225s90.5 138 122.5 138c25.333 0 59 -12.333 101 -37l60 -38c18.667 -10.667 40.334 -16 65.001 -16c12.667 0 26.334 1.33301 41.001 4c-6 -40 -20 -82.667 -42 -128s-47.333 -70 -76 -74h-10c-28.667 0 -65.334 12 -110.001 36
c-24 12 -43.667 18 -59 18c-20 0 -34.333 -9.33301 -43 -28l-22 -51c174.667 -33.333 262 -73 262 -119v-564c0 -135.333 50 -203 150 -203h100c100 0 150 67.667 150 203v694c0 202 133.333 303 400 303h100c173.333 0 290.333 -42.667 351 -128z" />
    <glyph glyph-name="uni17A117B6" unicode="&#x17a1;&#x17b6;" horiz-adv-x="2600" 
d="M800 -200c-33.333 0 -50 -16.667 -50 -50s16.667 -50 50 -50v100zM450 880c0 -195.333 116.666 -293 349.999 -293c0 106.667 50 160 150 160s150 -46.667 150 -140c0 -80 -33.333 -120 -100 -120l50 -87v-140c0 -173.333 -133.333 -260 -400 -260s-400 86.667 -400 260
v147h250v-147c0 -106.667 50 -160 150 -160s150 53.333 150 160v227c-400 0 -600 131 -600 393v117c0 202 133.333 303 400 303h100c249.333 0 382.666 -72.333 399.999 -217v-125c0 -20.667 -6 -40.167 -18 -58.5s-28.667 -32.666 -50 -42.999s-43.666 -15.5 -66.999 -15.5
c-56.667 0 -95.667 5.16699 -117 15.5s-38 24.666 -50 42.999s-18 37.833 -18 58.5c0 20 6.83301 40.667 20.5 62s27.834 33.333 42.501 36h7c-5.33301 96 -55.333 144 -150 144h-100c-100 0 -150 -67.667 -150 -203v-117zM1500 817c0 61.333 -44.002 101.333 -132.002 120
c34.667 98 90.834 183 168.501 255s166.5 108 266.5 108c98 0 186.667 -17 266 -51c220.667 -92 331 -208.333 331 -349v-900h-250v900c0 36 -50.333 78.333 -151 127c-101.333 48 -183.333 72 -246 72c-63.333 0 -115.666 -9.33301 -156.999 -28
c-42 -18.667 -71.333 -47 -88 -85c161.333 -33.333 242 -73 242 -119v-1517h-250l-225 165l-225 -165h-250v250c-100 0 -150 50 -150 150s50 150 150 150h125c83.333 0 125 -33.333 125 -100v-301l225 165l225 -165v1318z" />
    <glyph glyph-name="uni17A217B6" unicode="&#x17a2;&#x17b6;" horiz-adv-x="1950" 
d="M875 313c-16.667 0 -25 -32 -25 -96c0 -49.333 8.33301 -74 25 -74s25 35 25 105c0 43.333 -8.33301 65 -25 65zM225 313c-16.667 0 -25 -32 -25 -96c0 -49.333 8.33301 -74 25 -74s25 35 25 105c0 43.333 -8.33301 65 -25 65zM886.5 1192
c77.667 72 166.497 108 266.497 108c98 0 186.667 -17 266 -51c220.667 -92 331 -208.333 331 -349v-900h-250v900c0 36 -50.333 78.333 -151 127c-101.333 48 -183.333 72 -246 72c-63.333 0 -115.666 -9.33301 -156.999 -28c-42 -18.667 -71.333 -47 -88 -85
c161.333 -33.333 242 -73 242 -119v-739c0 -85.333 -28.333 -128 -85 -128h-125c-93.333 -0 -140 72.333 -140 217c0 117.333 33.333 187 100 209v151h-400v-449c0 -85.333 -28.333 -128 -85 -128h-125c-93.333 -0 -140 72.333 -140 217c0 117.333 33.333 187 100 209v391
c0 61.333 -44 101.333 -132 120c12 58 42.833 133 92.5 225s90.5 138 122.5 138c25.333 0 59 -12.333 101 -37l60 -38c18.667 -10.667 40.334 -16 65.001 -16c12.667 0 26.334 1.33301 41.001 4c-6 -40 -20 -82.667 -42 -128s-47.333 -70 -76 -74h-10
c-28.667 0 -65.334 12 -110.001 36c-24 12 -43.667 18 -59 18c-20 0 -34.333 -9.33301 -43 -28l-22 -51c174.667 -33.333 262 -73 262 -119v-190h400v140c0 61.333 -44 101.333 -132 120c34.667 98 90.834 183 168.501 255z" />
    <glyph glyph-name="uni178017C5" unicode="&#x1780;&#x17c5;" horiz-adv-x="1950" 
d="M1550 1166l-0.00292969 308c0 57.333 -33.333 86 -100 86c0 58 41.667 87 125 87h113c74.667 0 112 -57.667 112 -173v-260c0 -58 -28.667 -125.667 -86 -203c24 -40 36 -81 36 -123v-888h-250v888c0 42.667 -58.833 87 -176.5 133s-203.167 69 -256.5 69
c-33.333 0 -82.166 -23.5 -146.499 -70.5s-114.166 -70.5 -149.499 -70.5c-64 0 -118.333 15 -163 45l-94 61c-42.667 23.333 -76.667 35 -102 35c-29.333 0 -55.833 -4.66699 -79.5 -14s-35.5 -25.333 -35.5 -48c0 -14 36.333 -45 109 -93l-148 -93
c-105.333 30.667 -158 97.667 -158 201c0 52.667 53 108.667 159 168s182 89 228 89c34 0 97.333 -29.667 190 -89l70 -42c30.667 -17.333 56.334 -26 77.001 -26c20 0 42.333 8.66699 67 26l81 56c78 50 138.333 75 181 75c98 0 186.667 -20 266 -60
c49.333 -24 93 -48.667 131 -74zM1100 0h-250v650c0 102 -50 153 -150 153h-100c-100 0 -150 -51 -150 -153v-650h-250v650c0 168.667 133.333 253 400 253h100c266.667 0 400 -84.333 400 -253v-650z" />
    <glyph glyph-name="uni178117C5" unicode="&#x1781;&#x17c5;" horiz-adv-x="1950" 
d="M1723 1024c18 -37.333 27 -79.334 27 -126.001v-898h-250v888c0 22.667 -12.333 42.334 -37 59.001l-100 62c-50.667 33.333 -99 50 -145 50c-30 0 -69.667 -13 -119 -39c0.666992 -7.33301 1 -15 1 -23v-61c0 -130 -216.667 -283 -650 -459v-174
c0 -130 50 -195 150 -195h100c100 0 150 65 150 195v167l186 105h64v-272c0 -202 -133.333 -303 -400 -303h-100c-266.667 0 -400 101 -400 303v180c433.333 191.333 650 342.333 650 453v61c0 130 -50 195 -150 195h-100c-94.667 0 -144.667 -59.667 -150 -179
c46.667 -24 70 -62.667 70 -116c0 -78 -61.667 -117 -185 -117c-23.333 0 -45.666 5.16699 -66.999 15.5s-38 24.833 -50 43.5s-18 38 -18 58v143h2c16 173.333 148.667 260 398 260h100c173.333 0 290.333 -42.667 351 -128c1.33301 26 18.666 50 51.999 72
c57.333 37.333 114.333 56 171 56c65.333 0 130.333 -20.667 195 -62l81 -51v287c0 57.333 -33.333 86 -100 86c0 58 41.667 87 125 87h113c74.667 0 112 -57.667 112 -173v-260c0 -54.667 -25.667 -118 -77 -190z" />
    <glyph glyph-name="uni178217C5" unicode="&#x1782;&#x17c5;" horiz-adv-x="1950" 
d="M450 376c29.333 33.333 63.998 55.334 103.998 66.001c16 4.66699 31 7 45 7c58.667 0 98.334 -38.667 119.001 -116c4 -14.667 6 -28 6 -40c0 -46.667 -28 -77.667 -84 -93c-6.66699 27.333 -23.667 41 -51 41c-9.33301 0 -19.666 -1.66699 -30.999 -5
c-42 -10.667 -78 -74.334 -108 -191.001l-10 -45h-240v650c0 168.667 133.333 253 400 253h100c266.667 0 400 -84.333 400 -253v-650h-250v650c0 102 -50 153 -150 153h-100c-100 0 -150 -51 -150 -153v-274zM1714 1011c24 -40 35.9971 -81 35.9971 -123v-888h-250v888
c0 42.667 -58.833 87 -176.5 133s-203.167 69 -256.5 69c-33.333 0 -82.166 -23.5 -146.499 -70.5s-114.166 -70.5 -149.499 -70.5c-64 0 -118.333 15 -163 45l-94 61c-42.667 23.333 -76.667 35 -102 35c-29.333 0 -55.833 -4.66699 -79.5 -14s-35.5 -25.333 -35.5 -48
c0 -14 36.333 -45 109 -93l-148 -93c-105.333 30.667 -158 97.667 -158 201c0 52.667 53 108.667 159 168s182 89 228 89c34 0 97.333 -29.667 190 -89l70 -42c30.667 -17.333 56.334 -26 77.001 -26c20 0 42.333 8.66699 67 26l81 56c78 50 138.333 75 181 75
c98 0 186.667 -20 266 -60c49.333 -24 93 -48.667 131 -74v308c0 57.333 -33.333 86 -100 86c0 58 41.667 87 125 87h113c74.667 0 112 -57.667 112 -173v-260c0 -58 -28.667 -125.667 -86 -203z" />
    <glyph glyph-name="uni178317C5" unicode="&#x1783;&#x17c5;" horiz-adv-x="2600" 
d="M300 1052c0 56.667 -16.667 85 -50 85s-50 -31.333 -50 -94c0 -53.333 16.667 -80 50 -80s50 29.667 50 89zM2370 1020c20 -38 29.998 -77.998 29.998 -119.998v-900h-250v900c0 36 -50.333 78.333 -151 127c-101.333 48 -183.333 72 -246 72
c-63.333 0 -115.666 -9.33301 -156.999 -28c-42 -18.667 -71.333 -47 -88 -85c161.333 -33.333 242 -73 242 -119v-564c0 -202 -150 -303 -450 -303c-158.667 0 -267 29.333 -325 88c-58 -58.667 -166.333 -88 -325 -88c-300 0 -450 101 -450 303v217
c0 140.667 16.667 242 50 304c7.33301 13.333 13.666 27.666 18.999 42.999h-19c-100 0 -150 58.667 -150 176c0 171.333 66.667 257 200 257s200 -82.667 200 -248c0 -86 -8.33301 -167 -25 -243s-25 -172.333 -25 -289v-217c0 -135.333 66.667 -203 200 -203
s200 67.667 200 203v514c0 61.333 -44 101.333 -132 120c12 58 42.833 133 92.5 225s90.5 138 122.5 138c25.333 0 59 -12.333 101 -37l60 -38c18.667 -10.667 40.334 -16 65.001 -16c12.667 0 26.334 1.33301 41.001 4c-6 -40 -20 -82.667 -42 -128s-47.333 -70 -76 -74
h-10c-28.667 0 -65.334 12 -110.001 36c-24 12 -43.667 18 -59 18c-20 0 -34.333 -9.33301 -43 -28l-22 -51c174.667 -33.333 262 -73 262 -119v-564c0 -135.333 66.667 -203 200 -203s200 67.667 200 203v514c0 61.333 -44 101.333 -132 120
c34.667 98 90.834 183 168.501 255s166.5 108 266.5 108c98 0 186.667 -17 266 -51c49.333 -20.667 93 -42.334 131 -65.001v290c0 57.333 -33.333 86 -100 86c0 58 41.667 87 125 87h113c74.667 0 112 -57.667 112 -173v-260c0 -55.333 -26.667 -120 -80 -194z" />
    <glyph glyph-name="uni178417C5" unicode="&#x1784;&#x17c5;" horiz-adv-x="1950" 
d="M830 1120c0 40 -13.333 60 -40 60s-40 -20 -40 -60c0 -22.667 11 -42.334 33 -59.001c31.333 14.667 47 34.334 47 59.001zM1723 1024c18 -37.333 26.999 -79.3359 26.999 -126.003v-898h-250v888c0 22.667 -12.333 42.334 -37 59.001l-100 62
c-50.667 33.333 -99 50 -145 50c-26 0 -116 -37 -270 -111c101.333 -58 152 -140.667 152 -248v-700h-250l-200 193l-200 -193h-250v470c-66.667 22.667 -100 57.334 -100 104.001s13.333 84.334 40 113.001s63.334 43 110.001 43h100c66.667 0 100 -28.667 100 -86v-482
l198 195l202 -195v538c0 72 -2.66699 117.5 -8 136.5s-20 36.5 -44 52.5c-74.667 -59.333 -150.667 -89 -228 -89c-98.667 0 -185 24 -259 72s-111 114 -111 198c0 50 8.33301 90.833 25 122.5s25 74.167 25 127.5s-33.333 80 -100 80c0 66.667 43.333 100 130 100
c146.667 0 220 -60 220 -180c0 -50 -8.33301 -90.833 -25 -122.5s-25 -74.167 -25 -127.5c0 -46 15 -77.5 45 -94.5s55 -25.5 75 -25.5c42.667 0 84.334 15.333 125.001 46c-70 32 -105 73.333 -105 124c0 120 66.667 180 200 180c136.667 0 209.667 -52 219 -156
c41.333 52.667 72.666 86 93.999 100c57.333 37.333 114.333 56 171 56c65.333 0 130.333 -20.667 195 -62l81 -51v287c0 57.333 -33.333 86 -100 86c0 58 41.667 87 125 87h113c74.667 0 112 -57.667 112 -173v-260c0 -54.667 -25.667 -118 -77 -190z" />
    <glyph glyph-name="uni178517C5" unicode="&#x1785;&#x17c5;" horiz-adv-x="1950" 
d="M1714 1011c24 -40 35.9961 -81 35.9961 -123v-888h-250v888c0 42.667 -58.833 87 -176.5 133s-203.167 69 -256.5 69c-33.333 0 -82.166 -23.5 -146.499 -70.5s-114.166 -70.5 -149.499 -70.5c-64 0 -118.333 15 -163 45l-94 61c-42.667 23.333 -76.667 35 -102 35
c-29.333 0 -55.833 -4.66699 -79.5 -14s-35.5 -25.333 -35.5 -48c0 -14 33.667 -45 101 -93l52 -38v-594c0 -135.333 50 -203 150 -203h100c100 0 150 67.667 150 203v317c-66.667 23.333 -100 58 -100 104s13.333 83.5 40 112.5s63.334 43.5 110.001 43.5h100
c66.667 0 100 -29 100 -87v-490c0 -202 -133.333 -303 -400 -303h-100c-266.667 0 -400 101 -400 303v562c-66.667 36.667 -100 96 -100 178c0 52.667 53 108.667 159 168s182 89 228 89c34 0 97.333 -29.667 190 -89l70 -42c30.667 -17.333 56.334 -26 77.001 -26
c20 0 42.333 8.66699 67 26l81 56c78 50 138.333 75 181 75c98 0 186.667 -20 266 -60c49.333 -24 93 -48.667 131 -74v308c0 57.333 -33.333 86 -100 86c0 58 41.667 87 125 87h113c74.667 0 112 -57.667 112 -173v-260c0 -58 -28.667 -125.667 -86 -203z" />
    <glyph glyph-name="uni178617C5" unicode="&#x1786;&#x17c5;" horiz-adv-x="1950" 
d="M850 608l0.000976562 141.999c-6.66699 0 -18.334 -7.16699 -35.001 -21.5s-25 -33.166 -25 -56.499s6.33301 -40 19 -50c9.33301 -8 23 -12.667 41 -14zM1714 1011c24 -40 35.9971 -81.001 35.9971 -123.001v-888h-250v888c0 42.667 -58.833 87 -176.5 133
s-203.167 69 -256.5 69c-33.333 0 -82.166 -23.5 -146.499 -70.5s-114.166 -70.5 -149.499 -70.5c-64 0 -118.333 15 -163 45l-94 61c-42.667 23.333 -76.667 35 -102 35c-29.333 0 -55.833 -4.66699 -79.5 -14s-35.5 -25.333 -35.5 -48c0 -14 33.667 -45 101 -93l52 -38
v-464c166.667 0 250 -72 250 -216c0 -78 26.667 -117 80 -117c46.667 0 70 39 70 117v290c-51.333 2.66699 -90 17.334 -116 44.001c-29.333 28.667 -44 69 -44 121s16.667 99.667 50 143s70 65 110 65h150c66.667 0 100 -43.333 100 -130v-533
c0 -144.667 -106.667 -217 -320 -217c-153.333 0 -230 72.333 -230 217c0 77.333 -33.333 116 -100 116v-160c0 -115.333 -35 -173 -105 -173h-105c-93.333 0 -140 95.333 -140 286c0 70 33.333 116.333 100 139v440c-66.667 36.667 -100 96 -100 178
c0 52.667 53 108.667 159 168s182 89 228 89c34 0 97.333 -29.667 190 -89l70 -42c30.667 -17.333 56.334 -26 77.001 -26c20 0 42.333 8.66699 67 26l81 56c78 50 138.333 75 181 75c98 0 186.667 -20 266 -60c49.333 -24 93 -48.667 131 -74v308
c0 57.333 -33.333 86 -100 86c0 58 41.667 87 125 87h113c74.667 0 112 -57.667 112 -173v-260c0 -58 -28.667 -125.667 -86 -203z" />
    <glyph glyph-name="uni178717C5" unicode="&#x1787;&#x17c5;" horiz-adv-x="1950" 
d="M1723 1024c18 -37.333 27.002 -79.335 27.002 -126.002v-898h-250v888c0 22.667 -12.333 42.334 -37 59.001l-100 62c-50.667 33.333 -99 50 -145 50c-27.333 0 -119 -13.333 -275 -40c-46.667 -21.333 -104.334 -32 -173.001 -32c-101.333 0 -204.333 19 -309 57
c-50 30.667 -91.333 46 -124 46c-28.667 0 -50.334 -7 -65.001 -21s-22 -30 -22 -48c0 -17.333 66.667 -53.666 200 -108.999v-740l198 185l202 -195v718h250v-880h-250l-200 193l-200 -193h-250v891c-66.667 28 -100 80.333 -100 157c0 48 33.667 102 101 162
s128.333 90 183 90c59.333 0 135.333 -25.667 228 -77s162 -77 208 -77c41.333 0 73.333 5 96 15s34 34.333 34 73c0 44 -16.667 66 -50 66c-66.667 0 -100 35.667 -100 107c0 72 33.333 108 100 108c133.333 0 200 -79.333 200 -238c0 -12.667 -0.666992 -24.667 -2 -36
c1.33301 0.666992 3 1.66699 5 3c57.333 37.333 114.333 56 171 56c65.333 0 130.333 -20.667 195 -62l81 -51v287c0 57.333 -33.333 86 -100 86c0 58 41.667 87 125 87h113c74.667 0 112 -57.667 112 -173v-260c0 -54.667 -25.667 -118 -77 -190z" />
    <glyph glyph-name="uni178817C5" unicode="&#x1788;&#x17c5;" horiz-adv-x="3250" 
d="M450 100c33.333 0 58.332 12.167 74.999 36.5s25 65.5 25 123.5c0 28.667 -6.16699 48 -18.5 58s-31.166 15 -56.499 15h-25v-233zM3020 1020c20 -38 29.9971 -77.999 29.9971 -119.999v-900h-250v900c0 36 -50.333 78.333 -151 127c-101.333 48 -183.333 72 -246 72
c-63.333 0 -115.666 -9.33301 -157 -28c-42 -18.667 -71.333 -47 -88 -85c161.333 -33.333 242 -73 242 -119v-564c0 -202 -133.333 -303 -400 -303h-100c-117.333 0 -209 19.667 -275 59c-66 -39.333 -157.667 -59 -275 -59h-100c-266.667 0 -400 101 -400 303v694
c0 135.333 -50 203 -150 203h-100c-100 0 -150 -67.667 -150 -203v-564h25c58.667 0 102.334 -14.333 131.001 -43c29.333 -28.667 44 -72 44 -130c0 -86.667 -16.667 -151.667 -50 -195s-83.333 -65 -150 -65h-150c-66.667 0 -100 43.333 -100 130v867
c0 202 133.333 303 400 303h100c266.667 0 400 -101 400 -303v-694c0 -135.333 50 -203 150 -203h100c100 0 150 67.667 150 203v514c0 61.333 -44 101.333 -132 120c12 58 42.833 133 92.5 225s90.5 138 122.5 138c25.333 0 59 -12.333 101 -37l60 -38
c18.667 -10.667 40.334 -16 65.001 -16c12.667 0 26.334 1.33301 41.001 4c-6 -40 -20 -82.667 -42 -128s-47.333 -70 -76 -74h-10c-28.667 0 -65.334 12 -110.001 36c-24 12 -43.667 18 -59 18c-20 0 -34.333 -9.33301 -43 -28l-22 -51c174.667 -33.333 262 -73 262 -119
v-564c0 -135.333 50 -203 150 -203h100c100 0 150 67.667 150 203v514c0 61.333 -44 101.333 -132 120c34.667 98 90.834 183 168.501 255s166.5 108 266.5 108c98 0 186.667 -17 266 -51c49.333 -20.667 93 -42.334 131 -65.001v290c0 57.333 -33.333 86 -100 86
c0 58 41.667 87 125 87h113c74.667 0 112 -57.667 112 -173v-260c0 -55.333 -26.667 -120 -80 -194z" />
    <glyph glyph-name="uni178917C5" unicode="&#x1789;&#x17c5;" horiz-adv-x="2600" 
d="M450 100c33.333 0 58.332 12.167 74.999 36.5s25 65.5 25 123.5c0 28.667 -6.16699 48 -18.5 58s-31.166 15 -56.499 15h-25v-233zM1500 -266c0 35.333 -11.667 53 -35 53c-41.333 0 -62 19 -62 57c0 37.333 20.667 56 62 56c190 0 285 -55.333 285 -166
c0 -92.667 -38.333 -166 -115 -220c-107.333 -76 -289.333 -114 -546 -114c-186.667 0 -351.334 32.667 -494.001 98c-138 62.667 -256 155 -354 277c-27.333 28 -41 56 -41 84c0 27.333 17.333 41 52 41c67.333 0 111.333 -13.667 132 -41
c96 -102 198.5 -170.667 307.5 -206s241.5 -53 397.5 -53c130.667 0 231.834 10.667 303.501 32s107.5 55.333 107.5 102zM2373 1024c18 -37.333 27.001 -79.333 27.001 -126v-898h-250v888c0 22.667 -12.333 42.334 -37 59.001l-100 62c-50.667 33.333 -99 50 -145 50
c-30 0 -69.333 -13 -118 -39v-1020h-250v1000c0 133.333 -59.667 200 -179 200c-65.333 0 -118.5 -17.667 -159.5 -53s-61.5 -84.333 -61.5 -147v-1000h-250v1000c0 72 -17.667 108 -53 108c-28 0 -75 -36 -141 -108c-66 72 -113 108 -141 108c-43.333 0 -65 -36 -65 -108
v-567h25c58.667 0 102.334 -14.333 131.001 -43c29.333 -28.667 44 -72 44 -130c0 -86.667 -16.667 -151.667 -50 -195s-83.333 -65 -150 -65h-150c-66.667 0 -100 43.333 -100 130v870c0 81.333 35 151.666 105 210.999s123 89 159 89c30 0 94 -44.667 192 -134
c98.667 89.333 163 134 193 134c36 0 89 -29.667 159 -89l30 -29c20.667 24 46.667 45 78 63c66 36.667 134.333 55 205 55c191.333 0 318.666 -44.667 381.999 -134l-2 6c1.33301 26 18.666 50 51.999 72c57.333 37.333 114.333 56 171 56
c65.333 0 130.333 -20.667 195 -62l81 -51v287c0 57.333 -33.333 86 -100 86c0 58 41.667 87 125 87h113c74.667 0 112 -57.667 112 -173v-260c0 -54.667 -25.667 -118 -77 -190z" />
    <glyph glyph-name="uni178A17C5" unicode="&#x178a;&#x17c5;" horiz-adv-x="1950" 
d="M200 863h250v-691l198 185l202 -195v701h250v-863h-250l-200 193l-200 -193h-250v863zM1723 1024c18 -37.333 27 -79.335 27 -126.002v-898h-250v888c0 22.667 -12.333 42.334 -37 59.001l-100 62c-50.667 33.333 -99 50 -145 50c-24.667 0 -101.334 -11 -230.001 -33
c-68.667 -51.333 -178 -77 -328 -77c-34 0 -66 0.666992 -96 2c-242.667 11.333 -364 69.333 -364 174c0 60 15.667 104.667 47 134c28.667 27.333 71.334 41 128.001 41c64 0 109.333 -10.667 136 -32c26 -21.333 39 -47.333 39 -78
c0 -31.333 -7.33301 -59.666 -22 -84.999c18 -22 37 -36.833 57 -44.5s45 -11.5 75 -11.5c88 0 146.667 20.167 176 60.5s44 82.166 44 125.499c0 55.333 -26.667 83 -80 83c-46.667 0 -70 21.667 -70 65c0 44 40 66 120 66c164 0 247.333 -69 250 -207
c0.666992 0.666992 1.66699 1.33398 3 2.00098c57.333 37.333 114.333 56 171 56c65.333 0 130.333 -20.667 195 -62l81 -51v287c0 57.333 -33.333 86 -100 86c0 58 41.667 87 125 87h113c74.667 0 112 -57.667 112 -173v-260c0 -54.667 -25.667 -118 -77 -190z" />
    <glyph glyph-name="uni178B17C5" unicode="&#x178b;&#x17c5;" horiz-adv-x="1950" 
d="M300 1052c0 56.667 -16.667 85 -50 85s-50 -31.333 -50 -94c0 -53.333 16.667 -80 50 -80s50 29.667 50 89zM1723 1024c18 -37.333 27.001 -79.333 27.001 -126v-898h-250v888c0 22.667 -12.333 42.334 -37 59.001l-100 62c-50.667 33.333 -99 50 -145 50
c-27.333 0 -62.666 -11 -105.999 -33c-16 -19.333 -33.333 -29 -52 -29c-32.667 0 -69.667 15.333 -111 46c-20 13.333 -36.667 20 -50 20c-14.667 0 -26 -8.66699 -34 -26l-22 -51c171.333 -33.333 257 -73 257 -119v-564c0 -202 -133.333 -303 -400 -303h-100
c-266.667 0 -400 101 -400 303v217c0 140.667 16.667 242 50 304c7.33301 13.333 13.666 27.666 18.999 42.999h-19c-100 0 -150 58.667 -150 176c0 171.333 66.667 257 200 257s200 -82.667 200 -248c0 -86 -8.33301 -167 -25 -243s-25 -172.333 -25 -289v-217
c0 -135.333 50 -203 150 -203h100c100 0 150 67.667 150 203v514c0 61.333 -39.333 101.333 -118 120c10.667 58 39.334 133 86.001 225s87.667 138 123 138c27.333 0 60.666 -18 99.999 -54c10.667 -9.33301 19.667 -14 27 -14c6 0 11.333 2.66699 16 8
c10.667 11.333 16 31.333 16 60s-24.333 43 -73 43c-60 0 -90 43.333 -90 130c0 58 30 87 90 87c103.333 0 155 -86.667 155 -260h-2v-17c31.333 11.333 62.666 17 93.999 17c65.333 0 130.333 -20.667 195 -62l81 -51v287c0 57.333 -33.333 86 -100 86
c0 58 41.667 87 125 87h113c74.667 0 112 -57.667 112 -173v-260c0 -54.667 -25.667 -118 -77 -190z" />
    <glyph glyph-name="uni178C17C5" unicode="&#x178c;&#x17c5;" horiz-adv-x="1950" 
d="M1723 1024c18 -37.333 27.001 -79.334 27.001 -126.001v-898h-250v888c0 22.667 -12.333 42.334 -37 59.001l-100 62c-50.667 33.333 -99 50 -145 50c-30 0 -69.333 -13 -118 -39v-110c0 -110 -157.333 -232.333 -472 -367l-178 -78v-205c0 -106 33.667 -159 101 -159
c102 0 201.667 61.333 299 184v200l250 87v-672h-250v222c-74 -81.333 -173.667 -122 -299 -122c-234 0 -351 86.667 -351 260v231l315 136c223.333 90.667 335 185 335 283v130c0 62.667 -20 94 -60 94c-28 0 -74.667 -31.333 -140 -94c-64.667 62.667 -111 94 -139 94
c-40.667 0 -61 -31.333 -61 -94v-65c50.667 0 87 -9 109 -27c22 -18.667 33 -45.667 33 -81c0 -86.667 -44.333 -130 -133 -130c-172.667 0 -259 28.667 -259 86v217c0 70.667 34.5 131.667 103.5 183s121.167 77 156.5 77c30 0 93.333 -38.667 190 -116
c97.333 77.333 161 116 191 116c35.333 0 87.333 -25.667 156 -77c21.333 -16 39.333 -33 54 -51c1.33301 26 18.666 50 51.999 72c57.333 37.333 114.333 56 171 56c65.333 0 130.333 -20.667 195 -62l81 -51v287c0 57.333 -33.333 86 -100 86c0 58 41.667 87 125 87h113
c74.667 0 112 -57.667 112 -173v-260c0 -54.667 -25.667 -118 -77 -190z" />
    <glyph glyph-name="uni178D17C5" unicode="&#x178d;&#x17c5;" horiz-adv-x="2600" 
d="M450 100c13.333 0 28.333 12.167 45 36.5s25 65.5 25 123.5c0 28.667 -6.16699 48 -18.5 58s-29.5 15 -51.5 15v-233zM2370 1020c20 -38 29.998 -77.999 29.998 -119.999v-900h-250v900c0 36 -50.333 78.333 -151 127c-101.333 48 -183.333 72 -246 72
c-63.333 0 -115.666 -9.33301 -156.999 -28c-42 -18.667 -71.333 -47 -88 -85c161.333 -33.333 242 -73 242 -119v-650c0 -144.667 -106.667 -217 -320 -217c-153.333 0 -230 72.333 -230 217c0 77.333 -33.333 116 -100 116v-160c0 -115.333 -35 -173 -105 -173h-105
c-86.667 0 -130 95.333 -130 286c0 70 30 116.333 90 139v575c0 72 -20 108 -60 108c-28 0 -74.667 -36 -140 -108c-64.667 72 -111 108 -139 108c-40.667 0 -61 -36 -61 -108v-567c55.333 0 97.333 -14.333 126 -43c29.333 -28.667 44 -72 44 -130
c0 -86.667 -16.667 -151.667 -50 -195s-73.333 -65 -120 -65h-150c-66.667 0 -100 43.333 -100 130v870c0 81.333 34.5 151.666 103.5 210.999s121.167 89 156.5 89c30 0 93.333 -44.667 190 -134c97.333 89.333 161 134 191 134c35.333 0 87.333 -29.667 156 -89
s103 -129.666 103 -210.999v-567c166.667 0 250 -72 250 -216c0 -78 26.667 -117 80 -117c46.667 0 70 39 70 117v600c0 61.333 -44 101.333 -132 120c34.667 98 90.834 183 168.501 255s166.5 108 266.5 108c98 0 186.667 -17 266 -51
c49.333 -20.667 93 -42.334 131 -65.001v290c0 57.333 -33.333 86 -100 86c0 58 41.667 87 125 87h113c74.667 0 112 -57.667 112 -173v-260c0 -55.333 -26.667 -120 -80 -194z" />
    <glyph glyph-name="uni178E17C5" unicode="&#x178e;&#x17c5;" horiz-adv-x="3250" 
d="M450 100c33.333 0 58.332 12.167 74.999 36.5s25 65.5 25 123.5c0 28.667 -6.16699 48 -18.5 58s-31.166 15 -56.499 15h-25v-233zM3023 1024c18 -37.333 27 -79.334 27 -126.001v-898h-250v888c0 22.667 -12.333 42.334 -37 59.001l-100 62
c-50.667 33.333 -99 50 -145 50c-30 0 -69.667 -13 -119 -39c0.666992 -7.33301 1 -15 1 -23v-997h-250v997c0 135.333 -50 203 -150 203h-100c-100 0 -150 -67.667 -150 -203v-997h-250l-200 193l-200 -193h-250v997c0 135.333 -50 203 -150 203h-100
c-100 0 -150 -67.667 -150 -203v-564h25c58.667 0 102.334 -14.333 131.001 -43c29.333 -28.667 44 -72 44 -130c0 -86.667 -16.667 -151.667 -50 -195s-83.333 -65 -150 -65h-150c-66.667 -0 -100 43.333 -100 130v867c0 202 133.333 303 400 303h100
c266.667 0 400 -101 400 -303v-825l198 185l202 -195v835c0 202 133.333 303 400 303h100c173.333 0 290.333 -42.667 351 -128c1.33301 26 18.666 50 51.999 72c57.333 37.333 114.333 56 171 56c65.333 0 130.333 -20.667 195 -62l81 -51v287c0 57.333 -33.333 86 -100 86
c0 58 41.667 87 125 87h113c74.667 0 112 -57.667 112 -173v-260c0 -54.667 -25.667 -118 -77 -190z" />
    <glyph glyph-name="uni178F17C5" unicode="&#x178f;&#x17c5;" horiz-adv-x="1950" 
d="M450 100c33.333 0 58.332 12.167 74.999 36.5s25 65.5 25 123.5c0 28.667 -6.16699 48 -18.5 58s-31.166 15 -56.499 15h-25v-233zM449.999 433h24.999c58.667 0 102.334 -14.333 131.001 -43c29.333 -28.667 44 -72 44 -130c0 -86.667 -16.667 -151.667 -50 -195
s-83.333 -65 -150 -65h-150c-66.667 -0 -100 43.333 -100 130v520c0 168.667 133.333 253 400 253h100c266.667 0 400 -84.333 400 -253v-650h-250v650c0 102 -50 153 -150 153h-100c-100 0 -150 -51 -150 -153v-217zM1714 1011c24 -40 35.9971 -81 35.9971 -123v-888h-250
v888c0 42.667 -58.833 87 -176.5 133s-203.167 69 -256.5 69c-33.333 0 -82.166 -23.5 -146.499 -70.5s-114.166 -70.5 -149.499 -70.5c-64 0 -118.333 15 -163 45l-94 61c-42.667 23.333 -76.667 35 -102 35c-29.333 0 -55.833 -4.66699 -79.5 -14s-35.5 -25.333 -35.5 -48
c0 -14 36.333 -45 109 -93l-148 -93c-105.333 30.667 -158 97.667 -158 201c0 52.667 53 108.667 159 168s182 89 228 89c34 0 97.333 -29.667 190 -89l70 -42c30.667 -17.333 56.334 -26 77.001 -26c20 0 42.333 8.66699 67 26l81 56c78 50 138.333 75 181 75
c98 0 186.667 -20 266 -60c49.333 -24 93 -48.667 131 -74v308c0 57.333 -33.333 86 -100 86c0 58 41.667 87 125 87h113c74.667 0 112 -57.667 112 -173v-260c0 -58 -28.667 -125.667 -86 -203z" />
    <glyph glyph-name="uni179017C5" unicode="&#x1790;&#x17c5;" horiz-adv-x="1950" 
d="M1723 1024c18 -37.333 27.001 -79.335 27.001 -126.002v-898h-250v888c0 22.667 -12.333 42.334 -37 59.001l-100 62c-50.667 33.333 -99 50 -145 50c-27.333 0 -119 -13.333 -275 -40c-46.667 -21.333 -104.334 -32 -173.001 -32c-101.333 0 -204.333 19 -309 57
c-50 30.667 -91.333 46 -124 46c-28.667 0 -50.334 -7 -65.001 -21s-22 -30 -22 -48c0 -17.333 66.667 -53.666 200 -108.999v-609c0 -135.333 50 -203 150 -203h100c100 0 150 67.667 150 203v317c-66.667 23.333 -100 58 -100 104s13.333 83.5 40 112.5
s63.334 43.5 110.001 43.5h100c66.667 0 100 -29 100 -87v-490c0 -202 -133.333 -303 -400 -303h-100c-266.667 0 -400 101 -400 303v588c-66.667 28 -100 80.333 -100 157c0 48 33.667 102 101 162s128.333 90 183 90c59.333 0 135.333 -25.667 228 -77s162 -77 208 -77
c41.333 0 73.333 5 96 15s34 34.333 34 73c0 44 -16.667 66 -50 66c-66.667 0 -100 35.667 -100 107c0 72 33.333 108 100 108c133.333 0 200 -79.333 200 -238c0 -12.667 -0.666992 -24.667 -2 -36c1.33301 0.666992 3 1.66699 5 3c57.333 37.333 114.333 56 171 56
c65.333 0 130.333 -20.667 195 -62l81 -51v287c0 57.333 -33.333 86 -100 86c0 58 41.667 87 125 87h113c74.667 0 112 -57.667 112 -173v-260c0 -54.667 -25.667 -118 -77 -190z" />
    <glyph glyph-name="uni179117C5" unicode="&#x1791;&#x17c5;" horiz-adv-x="1950" 
d="M1723 1024c18 -37.333 26.998 -79.335 26.998 -126.002v-898h-250v888c0 22.667 -12.333 42.334 -37 59.001l-100 62c-50.667 33.333 -99 50 -145 50c-30 0 -69.333 -13 -118 -39v-62c0 -20.667 -6 -40.167 -18 -58.5s-28.667 -32.666 -50 -42.999
s-43.666 -15.5 -66.999 -15.5c-56.667 0 -95.667 5.16699 -117 15.5s-38 24.666 -50 42.999s-18 37.833 -18 58.5c0 20 6.83301 40.667 20.5 62s27.834 33.333 42.501 36h7c-5.33301 96 -55.333 144 -150 144h-100c-100 0 -150 -67.667 -150 -203v-117
c0 -195.333 116.667 -293 350 -293c0 106.667 50 160 150 160s150 -46.667 150 -140c0 -80 -33.333 -120 -100 -120l50 -87v-140c0 -173.333 -133.333 -260 -400 -260s-400 86.667 -400 260v147h250v-147c0 -106.667 50 -160 150 -160s150 53.333 150 160v227
c-400 0 -600 131 -600 393v117c0 202 133.333 303 400 303h100c176.667 0 295 -36.333 355 -109c7.33301 18.667 23.333 36.334 48 53.001c57.333 37.333 114.333 56 171 56c65.333 0 130.333 -20.667 195 -62l81 -51v287c0 57.333 -33.333 86 -100 86
c0 58 41.667 87 125 87h113c74.667 0 112 -57.667 112 -173v-260c0 -54.667 -25.667 -118 -77 -190z" />
    <glyph glyph-name="uni179217C5" unicode="&#x1792;&#x17c5;" horiz-adv-x="1950" 
d="M1714 1011c24 -40 35.9961 -81 35.9961 -123v-888h-250v888c0 42.667 -58.833 87 -176.5 133s-203.167 69 -256.5 69c-33.333 0 -82.166 -23.5 -146.499 -70.5s-114.166 -70.5 -149.499 -70.5c-64 0 -118.333 15 -163 45l-94 61c-42.667 23.333 -76.667 35 -102 35
c-29.333 0 -55.833 -4.66699 -79.5 -14s-35.5 -25.333 -35.5 -48c0 -14 33.667 -45 101 -93l52 -38v-725l198 185l202 -195v458c-66.667 23.333 -100 58 -100 104s13.333 83.5 40 112.5s63.334 43.5 110.001 43.5h100c66.667 0 100 -29 100 -87v-793h-250l-200 193
l-200 -193h-250v865c-66.667 36.667 -100 96 -100 178c0 52.667 53 108.667 159 168s182 89 228 89c34 0 97.333 -29.667 190 -89l70 -42c30.667 -17.333 56.334 -26 77.001 -26c20 0 42.333 8.66699 67 26l81 56c78 50 138.333 75 181 75c98 0 186.667 -20 266 -60
c49.333 -24 93 -48.667 131 -74v308c0 57.333 -33.333 86 -100 86c0 58 41.667 87 125 87h113c74.667 0 112 -57.667 112 -173v-260c0 -58 -28.667 -125.667 -86 -203z" />
    <glyph glyph-name="uni179317C5" unicode="&#x1793;&#x17c5;" horiz-adv-x="1950" 
d="M1723 1024c18 -37.333 26.999 -79.333 26.999 -126v-898h-250v888c0 22.667 -12.333 42.334 -37 59.001l-100 62c-50.667 33.333 -99 50 -145 50c-30 0 -69.333 -13 -118 -39v-123c0 -20 -6 -39.333 -18 -58s-28.667 -33.167 -50 -43.5s-43.666 -15.5 -66.999 -15.5
c-56.667 0 -95.667 5.16699 -117 15.5s-38 24.833 -50 43.5s-18 38 -18 58c0 40 6.83301 68.667 20.5 86s27.834 27 42.501 29l7 1c-5.33301 124.667 -55.333 187 -150 187h-100c-100 0 -150 -67.667 -150 -203v-44c0 -137.333 90.667 -238 272 -302l378 -126v-265
c0 -173.333 -111.667 -260 -335 -260c-80.667 0 -143 21.667 -187 65s-86.667 78.666 -128 105.999v-171h-250v520h250v-152c60 -28 110.667 -79.667 152 -155s95.666 -113 162.999 -113c56.667 0 85 53.333 85 160v237l-164 54c-324 107.333 -486 241.333 -486 402v44
c0 202 133.333 303 400 303h100c172.667 0 289.667 -41.667 351 -125c2.66699 24.667 20 47.667 52 69c57.333 37.333 114.333 56 171 56c65.333 0 130.333 -20.667 195 -62l81 -51v287c0 57.333 -33.333 86 -100 86c0 58 41.667 87 125 87h113
c74.667 0 112 -57.667 112 -173v-260c0 -54.667 -25.667 -118 -77 -190z" />
    <glyph glyph-name="uni179417C5" unicode="&#x1794;&#x17c5;" horiz-adv-x="1950" 
d="M1714 1011c24 -40 35.9971 -81 35.9971 -123v-888h-250v888c0 42.667 -58.833 87 -176.5 133s-203.167 69 -256.5 69c-33.333 0 -82.166 -23.5 -146.499 -70.5s-114.166 -70.5 -149.499 -70.5c-64 0 -118.333 15 -163 45l-94 61c-42.667 23.333 -76.667 35 -102 35
c-29.333 0 -55.833 -4.66699 -79.5 -14s-35.5 -25.333 -35.5 -48c0 -14 33.667 -45 101 -93l52 -38v-594c0 -135.333 50 -203 150 -203h100c99.333 0 149.333 66.667 150 200v580h250v-980h-250v130c-41.333 -18 -91.333 -28 -150 -30h-100c-266.667 0 -400 101 -400 303
v562c-66.667 36.667 -100 96 -100 178c0 52.667 53 108.667 159 168s182 89 228 89c34 0 97.333 -29.667 190 -89l70 -42c30.667 -17.333 56.334 -26 77.001 -26c20 0 42.333 8.66699 67 26l81 56c78 50 138.333 75 181 75c98 0 186.667 -20 266 -60
c49.333 -24 93 -48.667 131 -74v308c0 57.333 -33.333 86 -100 86c0 58 41.667 87 125 87h113c74.667 0 112 -57.667 112 -173v-260c0 -58 -28.667 -125.667 -86 -203z" />
    <glyph glyph-name="uni179517C5" unicode="&#x1795;&#x17c5;" horiz-adv-x="1950" 
d="M850 608l0.000976562 141.999c-6.66699 0 -18.334 -7.16699 -35.001 -21.5s-25 -33.166 -25 -56.499s6.33301 -40 19 -50c9.33301 -8 23 -12.667 41 -14zM1723 1024c18 -37.333 27.002 -79.3359 27.002 -126.003v-898h-250v888c0 22.667 -12.333 42.334 -37 59.001
l-100 62c-50.667 33.333 -99 50 -145 50c-27.333 0 -119 -13.333 -275 -40c-46.667 -21.333 -104.334 -32 -173.001 -32c-101.333 0 -204.333 19 -309 57c-50 30.667 -91.333 46 -124 46c-28.667 0 -50.334 -7 -65.001 -21s-22 -30 -22 -48
c0 -17.333 66.667 -53.666 200 -108.999v-740l198 185l202 -195v345c-51.333 2.66699 -90 17.334 -116 44.001c-29.333 28.667 -44 69 -44 121s16.667 99.667 50 143s70 65 110 65h150c66.667 0 100 -43.333 100 -130v-750h-250l-200 193l-200 -193h-250v891
c-66.667 28 -100 80.333 -100 157c0 48 33.667 102 101 162s128.333 90 183 90c59.333 0 135.333 -25.667 228 -77s162 -77 208 -77c41.333 0 73.333 5 96 15s34 34.333 34 73c0 44 -16.667 66 -50 66c-66.667 0 -100 35.667 -100 107c0 72 33.333 108 100 108
c133.333 0 200 -79.333 200 -238c0 -12.667 -0.666992 -24.667 -2 -36c1.33301 0.666992 3 1.66699 5 3c57.333 37.333 114.333 56 171 56c65.333 0 130.333 -20.667 195 -62l81 -51v287c0 57.333 -33.333 86 -100 86c0 58 41.667 87 125 87h113
c74.667 0 112 -57.667 112 -173v-260c0 -54.667 -25.667 -118 -77 -190z" />
    <glyph glyph-name="uni179617C5" unicode="&#x1796;&#x17c5;" horiz-adv-x="1950" 
d="M450 100c33.333 0 58.332 12.167 74.999 36.5s25 65.5 25 123.5c0 28.667 -6.16699 48 -18.5 58s-31.166 15 -56.499 15h-25v-233zM1723 1024c18 -37.333 26.999 -79.332 26.999 -125.999v-898h-250v888c0 22.667 -12.333 42.334 -37 59.001l-100 62
c-50.667 33.333 -99 50 -145 50c-30 0 -69.667 -13 -119 -39c0.666992 -6.66699 1 -13.334 1 -20.001v-1000h-250v1000c0 72 -20 108 -60 108c-28 0 -74.667 -36 -140 -108c-64.667 72 -111 108 -139 108c-40.667 0 -61 -36 -61 -108v-567h25
c58.667 0 102.334 -14.333 131.001 -43c29.333 -28.667 44 -72 44 -130c0 -86.667 -16.667 -151.667 -50 -195s-83.333 -65 -150 -65h-150c-66.667 0 -100 43.333 -100 130v870c0 81.333 34.5 151.666 103.5 210.999s121.167 89 156.5 89c30 0 93.333 -44.667 190 -134
c97.333 89.333 161 134 191 134c35.333 0 87.333 -29.667 156 -89c14 -12 26.333 -24.333 37 -37c15.333 26.667 38.333 50 69 70c57.333 37.333 114.333 56 171 56c65.333 0 130.333 -20.667 195 -62l81 -51v287c0 57.333 -33.333 86 -100 86c0 58 41.667 87 125 87h113
c74.667 0 112 -57.667 112 -173v-260c0 -54.667 -25.667 -118 -77 -190z" />
    <glyph glyph-name="uni179717C5" unicode="&#x1797;&#x17c5;" horiz-adv-x="1950" 
d="M292 333l-42 0.000976562c-33.333 0 -50 -38.667 -50 -116c0 -56 16.667 -84 50 -84s50 38.333 50 115c0 35.333 -2.66699 63.666 -8 84.999zM850 650.001c0 102 -50.001 153.001 -150.001 153.001h-100c-100 0 -150 -51 -150 -153c0 -30 8.33301 -83 25 -159
s25 -157 25 -243c0 -165.333 -73.333 -248 -220 -248c-120 0 -180 72.333 -180 217c0 144 50 216 150 216h19c-5.33301 15.333 -11.666 29.666 -18.999 42.999c-33.333 62 -50 120 -50 174c0 168.667 133.333 253 400 253h100c266.667 0 400 -84.333 400 -253v-650h-250v650
zM1714 1011c24 -40 35.9971 -81 35.9971 -123v-888h-250v888c0 42.667 -58.833 87 -176.5 133s-203.167 69 -256.5 69c-33.333 0 -82.166 -23.5 -146.499 -70.5s-114.166 -70.5 -149.499 -70.5c-64 0 -118.333 15 -163 45l-94 61c-42.667 23.333 -76.667 35 -102 35
c-29.333 0 -55.833 -4.66699 -79.5 -14s-35.5 -25.333 -35.5 -48c0 -14 36.333 -45 109 -93l-148 -93c-105.333 30.667 -158 97.667 -158 201c0 52.667 53 108.667 159 168s182 89 228 89c34 0 97.333 -29.667 190 -89l70 -42c30.667 -17.333 56.334 -26 77.001 -26
c20 0 42.333 8.66699 67 26l81 56c78 50 138.333 75 181 75c98 0 186.667 -20 266 -60c49.333 -24 93 -48.667 131 -74v308c0 57.333 -33.333 86 -100 86c0 58 41.667 87 125 87h113c74.667 0 112 -57.667 112 -173v-260c0 -58 -28.667 -125.667 -86 -203z" />
    <glyph glyph-name="uni179817C5" unicode="&#x1798;&#x17c5;" horiz-adv-x="1950" 
d="M850 600h-400v-297c0 -135.333 50 -203 150 -203h100c100 0 150 67.667 150 203v297zM1720 1020c20 -38 29.9971 -77.999 29.9971 -119.999v-900h-250v900c0 36 -50.333 78.333 -151 127c-101.333 48 -183.333 72 -246 72c-63.333 0 -115.666 -9.33301 -156.999 -28
c-42 -18.667 -71.333 -47 -88 -85c161.333 -33.333 242 -73 242 -119v-564c0 -202 -133.333 -303 -400 -303h-100c-266.667 0 -400 101 -400 303v514c0 61.333 -44 101.333 -132 120c12 58 42.833 133 92.5 225s90.5 138 122.5 138c25.333 0 59 -12.333 101 -37l60 -38
c18.667 -10.667 40.334 -16 65.001 -16c12.667 0 26.334 1.33301 41.001 4c-6 -40 -20 -82.667 -42 -128s-47.333 -70 -76 -74h-10c-28.667 0 -65.334 12 -110.001 36c-24 12 -43.667 18 -59 18c-20 0 -34.333 -9.33301 -43 -28l-22 -51c174.667 -33.333 262 -73 262 -119
v-167h400v117c0 61.333 -44 101.333 -132 120c34.667 98 90.834 183 168.501 255s166.5 108 266.5 108c98 0 186.667 -17 266 -51c49.333 -20.667 93 -42.334 131 -65.001v290c0 57.333 -33.333 86 -100 86c0 58 41.667 87 125 87h113c74.667 0 112 -57.667 112 -173v-260
c0 -55.333 -26.667 -120 -80 -194z" />
    <glyph glyph-name="uni179917C5" unicode="&#x1799;&#x17c5;" horiz-adv-x="2600" 
d="M450 1167v-200c33.333 0 50 38.667 50 116c0 56 -16.667 84 -50 84zM2370 1020c20 -38 29.9971 -77.999 29.9971 -119.999v-900h-250v900c0 36 -50.333 78.333 -151 127c-101.333 48 -183.333 72 -246 72c-63.333 0 -115.666 -9.33301 -156.999 -28
c-42 -18.667 -71.333 -47 -88 -85c161.333 -33.333 242 -73 242 -119v-564c0 -202 -150 -303 -450 -303c-158.667 0 -267 29.333 -325 88c-58 -58.667 -166.333 -88 -325 -88c-300 0 -450 101 -450 303v897c0 66.667 36.667 100 110 100h110c120 0 180 -72.333 180 -217
c0 -144 -50 -216 -150 -216v-564c0 -135.333 66.667 -203 200 -203s200 67.667 200 203v514c0 61.333 -44 101.333 -132 120c12 58 42.833 133 92.5 225s90.5 138 122.5 138c25.333 0 59 -12.333 101 -37l60 -38c18.667 -10.667 40.334 -16 65.001 -16
c12.667 0 26.334 1.33301 41.001 4c-6 -40 -20 -82.667 -42 -128s-47.333 -70 -76 -74h-10c-28.667 0 -65.334 12 -110.001 36c-24 12 -43.667 18 -59 18c-20 0 -34.333 -9.33301 -43 -28l-22 -51c174.667 -33.333 262 -73 262 -119v-564c0 -135.333 66.667 -203 200 -203
s200 67.667 200 203v514c0 61.333 -44 101.333 -132 120c34.667 98 90.834 183 168.501 255s166.5 108 266.5 108c98 0 186.667 -17 266 -51c49.333 -20.667 93 -42.334 131 -65.001v290c0 57.333 -33.333 86 -100 86c0 58 41.667 87 125 87h113
c74.667 0 112 -57.667 112 -173v-260c0 -55.333 -26.667 -120 -80 -194z" />
    <glyph glyph-name="uni179A17C5" unicode="&#x179a;&#x17c5;" horiz-adv-x="1300" 
d="M225 313c-16.667 0 -25 -32 -25 -96c0 -49.333 8.33301 -74 25 -74s25 35 25 105c0 43.333 -8.33301 65 -25 65zM1075 1027c16.667 -38 25 -81.001 25 -129.001v-898h-250v888c0 22.667 -26.167 56.834 -78.5 102.501s-105.166 68.5 -158.499 68.5
c-40.667 0 -74 -7 -100 -21s-53 -23 -81 -27h-10c-28.667 0 -65.334 12 -110.001 36c-24 12 -43.667 18 -59 18c-20 0 -34.333 -9.33301 -43 -28l-22 -51c174.667 -33.333 262 -73 262 -119v-739c0 -85.333 -28.333 -128 -85 -128h-125c-93.333 -0 -140 72.333 -140 217
c0 117.333 33.333 187 100 209v391c0 61.333 -44 101.333 -132 120c12 58 42.833 133 92.5 225s90.5 138 122.5 138c25.333 0 59 -12.333 101 -37l60 -38c18.667 -10.667 40.334 -16 65.001 -16c6.66699 0 13.667 0.333008 21 1c17.333 14.667 36.666 30 57.999 46
c39.333 29.333 77.333 44 114 44c44 0 94.333 -20.667 151 -62l47 -34v270c0 57.333 -33.333 86 -100 86c0 58 41.667 87 125 87h113c74.667 0 112 -57.667 112 -173v-260c0 -54 -25 -116.333 -75 -187z" />
    <glyph glyph-name="uni179B17C5" unicode="&#x179b;&#x17c5;" horiz-adv-x="2600" 
d="M450 100c33.333 0 58.332 12.167 74.999 36.5s25 65.5 25 123.5c0 28.667 -6.16699 48 -18.5 58s-31.166 15 -56.499 15h-25v-233zM2370 1020c20 -38 29.9971 -77.999 29.9971 -119.999v-900h-250v900c0 36 -50.333 78.333 -151 127c-101.333 48 -183.333 72 -246 72
c-63.333 0 -115.666 -9.33301 -156.999 -28c-42 -18.667 -71.333 -47 -88 -85c161.333 -33.333 242 -73 242 -119v-564c0 -202 -133.333 -303 -400 -303h-100c-266.667 0 -400 101 -400 303v694c0 135.333 -50 203 -150 203h-100c-100 0 -150 -67.667 -150 -203v-564h25
c58.667 0 102.334 -14.333 131.001 -43c29.333 -28.667 44 -72 44 -130c0 -86.667 -16.667 -151.667 -50 -195s-83.333 -65 -150 -65h-150c-66.667 0 -100 43.333 -100 130v867c0 202 133.333 303 400 303h100c266.667 0 400 -101 400 -303v-694
c0 -135.333 50 -203 150 -203h100c100 0 150 67.667 150 203v514c0 61.333 -44 101.333 -132 120c34.667 98 90.834 183 168.501 255s166.5 108 266.5 108c98 0 186.667 -17 266 -51c49.333 -20.667 93 -42.334 131 -65.001v290c0 57.333 -33.333 86 -100 86
c0 58 41.667 87 125 87h113c74.667 0 112 -57.667 112 -173v-260c0 -55.333 -26.667 -120 -80 -194z" />
    <glyph glyph-name="uni179C17C5" unicode="&#x179c;&#x17c5;" horiz-adv-x="1300" 
d="M225 313c-16.667 0 -25 -32 -25 -96c0 -49.333 8.33301 -74 25 -74s25 35 25 105c0 43.333 -8.33301 65 -25 65zM1073 1024c18 -37.333 27 -79.334 27 -126.001v-898h-250v888c0 22.667 -12.333 42.334 -37 59.001l-100 62c-50.667 33.333 -99 50 -145 50
c-27.333 0 -62.666 -11 -105.999 -33c-16 -19.333 -33.333 -29 -52 -29c-32.667 0 -69.667 15.333 -111 46c-20 13.333 -36.667 20 -50 20c-14.667 0 -26 -8.66699 -34 -26l-22 -51c171.333 -33.333 257 -73 257 -119v-739c0 -85.333 -28.333 -128 -85 -128h-125
c-93.333 -0 -140 72.333 -140 217c0 117.333 33.333 187 100 209v391c0 61.333 -39.333 101.333 -118 120c10.667 58 39.334 133 86.001 225s87.667 138 123 138c27.333 0 60.666 -18 99.999 -54c10.667 -9.33301 19.667 -14 27 -14c6 0 11.333 2.66699 16 8
c10.667 11.333 16 31.333 16 60s-24.333 43 -73 43c-60 0 -90 43.333 -90 130c0 58 30 87 90 87c103.333 0 155 -86.667 155 -260h-2v-17c31.333 11.333 62.666 17 93.999 17c65.333 0 130.333 -20.667 195 -62l81 -51v287c0 57.333 -33.333 86 -100 86
c0 58 41.667 87 125 87h113c74.667 0 112 -57.667 112 -173v-260c0 -54.667 -25.667 -118 -77 -190z" />
    <glyph glyph-name="uni179D17C5" unicode="&#x179d;&#x17c5;" horiz-adv-x="1950" 
d="M1100 502l99.998 0.000976562v-150h-100v-352h-250v352h-100v150h100v148c0 102 -50 153 -150 153h-100c-100 0 -150 -51 -150 -153v-274c29.333 33.333 64 55.333 104 66c16 4.66699 31 7 45 7c58.667 0 98.334 -38.667 119.001 -116c4 -14.667 6 -28 6 -40
c0 -46.667 -28 -77.667 -84 -93c-6.66699 27.333 -23.667 41 -51 41c-9.33301 0 -19.666 -1.66699 -30.999 -5c-42 -10.667 -78 -74.334 -108 -191.001l-10 -45h-240v650c0 168.667 133.333 253 400 253h100c266.667 0 400 -84.333 400 -253v-148zM1714 1011
c24 -40 35.9971 -81 35.9971 -123v-888h-250v888c0 42.667 -58.833 87 -176.5 133s-203.167 69 -256.5 69c-33.333 0 -82.166 -23.5 -146.499 -70.5s-114.166 -70.5 -149.499 -70.5c-64 0 -118.333 15 -163 45l-94 61c-42.667 23.333 -76.667 35 -102 35
c-29.333 0 -55.833 -4.66699 -79.5 -14s-35.5 -25.333 -35.5 -48c0 -14 36.333 -45 109 -93l-148 -93c-105.333 30.667 -158 97.667 -158 201c0 52.667 53 108.667 159 168s182 89 228 89c34 0 97.333 -29.667 190 -89l70 -42c30.667 -17.333 56.334 -26 77.001 -26
c20 0 42.333 8.66699 67 26l81 56c78 50 138.333 75 181 75c98 0 186.667 -20 266 -60c49.333 -24 93 -48.667 131 -74v308c0 57.333 -33.333 86 -100 86c0 58 41.667 87 125 87h113c74.667 0 112 -57.667 112 -173v-260c0 -58 -28.667 -125.667 -86 -203z" />
    <glyph glyph-name="uni179E17C5" unicode="&#x179e;&#x17c5;" horiz-adv-x="1950" 
d="M1714 1011c24 -40 35.9971 -81 35.9971 -123v-888h-250v888c0 42.667 -58.833 87 -176.5 133s-203.167 69 -256.5 69c-33.333 0 -82.166 -23.5 -146.499 -70.5s-114.166 -70.5 -149.499 -70.5c-64 0 -118.333 15 -163 45l-94 61c-42.667 23.333 -76.667 35 -102 35
c-29.333 0 -55.833 -4.66699 -79.5 -14s-35.5 -25.333 -35.5 -48c0 -14 33.667 -45 101 -93l52 -38v-594c0 -135.333 50 -203 150 -203h100c99.333 0 149.333 66.667 150 200v152h-100v150h100v278h250v-278h100v-150h-100v-552h-250v130c-41.333 -18 -91.333 -28 -150 -30
h-100c-266.667 0 -400 101 -400 303v562c-66.667 36.667 -100 96 -100 178c0 52.667 53 108.667 159 168s182 89 228 89c34 0 97.333 -29.667 190 -89l70 -42c30.667 -17.333 56.334 -26 77.001 -26c20 0 42.333 8.66699 67 26l81 56c78 50 138.333 75 181 75
c98 0 186.667 -20 266 -60c49.333 -24 93 -48.667 131 -74v308c0 57.333 -33.333 86 -100 86c0 58 41.667 87 125 87h113c74.667 0 112 -57.667 112 -173v-260c0 -58 -28.667 -125.667 -86 -203z" />
    <glyph glyph-name="uni179F17C5" unicode="&#x179f;&#x17c5;" horiz-adv-x="2600" 
d="M450 100c33.333 0 58.332 12.167 74.999 36.5s25 65.5 25 123.5c0 28.667 -6.16699 48 -18.5 58s-31.166 15 -56.499 15h-25v-233zM2370 1020c20 -38 29.998 -78 29.998 -120v-900h-250v900c0 36 -50.333 78.333 -151 127c-101.333 48 -183.333 72 -246 72
c-63.333 0 -115.666 -9.33301 -156.999 -28c-42 -18.667 -71.333 -47 -88 -85c161.333 -33.333 242 -73 242 -119v-564c0 -202 -133.333 -303 -400 -303h-100c-266.667 0 -400 101 -400 303v347c0 135.333 -50 203 -150 203h-100c-100 0 -150 -67.667 -150 -203v-217h25
c58.667 0 102.334 -14.333 131.001 -43c29.333 -28.667 44 -72 44 -130c0 -86.667 -16.667 -151.667 -50 -195s-83.333 -65 -150 -65h-150c-66.667 -0 -100 43.333 -100 130v520c0 145.333 69 238.333 207 279c-38 25.333 -100 46 -186 62
c22.667 52.667 73.667 118.334 153 197.001c74.667 74 134 111 178 111h8c35.333 -3.33301 81 -19.333 137 -48l80 -44c25.333 -12.667 55 -20.667 89 -24c18 -1.33301 37.333 -2 58 -2c-12.667 -36 -36.667 -73.667 -72 -113s-73.333 -59 -114 -59l-14 2
c-40 4 -90 20.333 -150 49c-32.667 14 -59.667 22.333 -81 25h-6c-26.667 0 -57.667 -15 -93 -45c105.333 -32 185.666 -61 240.999 -87h65c266.667 0 400 -101 400 -303v-347c0 -135.333 50 -203 150 -203h100c100 0 150 67.667 150 203v514c0 61.333 -44 101.333 -132 120
c34.667 98 90.834 183 168.501 255s166.5 108 266.5 108c98 0 186.667 -17 266 -51c49.333 -20.667 93 -42.334 131 -65.001v290c0 57.333 -33.333 86 -100 86c0 58 41.667 87 125 87h113c74.667 0 112 -57.667 112 -173v-260c0 -55.333 -26.667 -120 -80 -194z" />
    <glyph glyph-name="uni17A017C5" unicode="&#x17a0;&#x17c5;" horiz-adv-x="2600" 
d="M2373 1024c18 -37.333 27.001 -79.334 27.001 -126.001v-898h-250v888c0 22.667 -12.333 42.334 -37 59.001l-100 62c-50.667 33.333 -99 50 -145 50c-30 0 -69.667 -13 -119 -39c0.666992 -7.33301 1 -15 1 -23v-997h-250v997c0 135.333 -50 203 -150 203h-100
c-100 0 -150 -67.667 -150 -203v-694c0 -202 -133.333 -303 -400 -303h-100c-266.667 0 -400 101 -400 303v514c0 61.333 -44 101.333 -132 120c12 58 42.833 133 92.5 225s90.5 138 122.5 138c25.333 0 59 -12.333 101 -37l60 -38c18.667 -10.667 40.334 -16 65.001 -16
c12.667 0 26.334 1.33301 41.001 4c-6 -40 -20 -82.667 -42 -128s-47.333 -70 -76 -74h-10c-28.667 0 -65.334 12 -110.001 36c-24 12 -43.667 18 -59 18c-20 0 -34.333 -9.33301 -43 -28l-22 -51c174.667 -33.333 262 -73 262 -119v-564c0 -135.333 50 -203 150 -203h100
c100 0 150 67.667 150 203v694c0 202 133.333 303 400 303h100c173.333 0 290.333 -42.667 351 -128c1.33301 26 18.666 50 51.999 72c57.333 37.333 114.333 56 171 56c65.333 0 130.333 -20.667 194.999 -62l81 -51v287c0 57.333 -33.333 86 -100 86
c0 58 41.667 87 125 87h113c74.667 0 112 -57.667 112 -173v-260c0 -54.667 -25.667 -118 -77 -190z" />
    <glyph glyph-name="uni17A117C5" unicode="&#x17a1;&#x17c5;" horiz-adv-x="2600" 
d="M800 -200c-33.333 0 -50 -16.667 -50 -50s16.667 -50 50 -50v100zM450 880c0 -195.333 116.666 -293 349.999 -293c0 106.667 50 160 150 160s150 -46.667 150 -140c0 -80 -33.333 -120 -100 -120l50 -87v-140c0 -173.333 -133.333 -260 -400 -260s-400 86.667 -400 260
v147h250v-147c0 -106.667 50 -160 150 -160s150 53.333 150 160v227c-400 0 -600 131 -600 393v117c0 202 133.333 303 400 303h100c249.333 0 382.666 -72.333 399.999 -217v-125c0 -20.667 -6 -40.167 -18 -58.5s-28.667 -32.666 -50 -42.999s-43.666 -15.5 -66.999 -15.5
c-56.667 0 -95.667 5.16699 -117 15.5s-38 24.666 -50 42.999s-18 37.833 -18 58.5c0 20 6.83301 40.667 20.5 62s27.834 33.333 42.501 36h7c-5.33301 96 -55.333 144 -150 144h-100c-100 0 -150 -67.667 -150 -203v-117zM2370 1020c20 -38 29.998 -77.999 29.998 -119.999
v-900h-250v900c0 36 -50.333 78.333 -151 127c-101.333 48 -183.333 72 -246 72c-63.333 0 -115.666 -9.33301 -156.999 -28c-42 -18.667 -71.333 -47 -88 -85c161.333 -33.333 242 -73 242 -119v-1517h-250l-225 165l-225 -165h-250v250c-100 0 -150 50 -150 150
s50 150 150 150h125c83.333 0 125 -33.333 125 -100v-301l225 165l225 -165v1318c0 61.333 -44 101.333 -132 120c34.667 98 90.834 183 168.501 255s166.5 108 266.5 108c98 0 186.667 -17 266 -51c49.333 -20.667 93 -42.334 131 -65.001v290c0 57.333 -33.333 86 -100 86
c0 58 41.667 87 125 87h113c74.667 0 112 -57.667 112 -173v-260c0 -55.333 -26.667 -120 -80 -194z" />
    <glyph glyph-name="uni17A217C5" unicode="&#x17a2;&#x17c5;" horiz-adv-x="1950" 
d="M875 313c-16.667 0 -25 -32 -25 -96c0 -49.333 8.33301 -74 25 -74s25 35 25 105c0 43.333 -8.33301 65 -25 65zM225 313c-16.667 0 -25 -32 -25 -96c0 -49.333 8.33301 -74 25 -74s25 35 25 105c0 43.333 -8.33301 65 -25 65zM1720 1020
c20 -38 29.9971 -77.999 29.9971 -119.999v-900h-250v900c0 36 -50.333 78.333 -151 127c-101.333 48 -183.333 72 -246 72c-63.333 0 -115.666 -9.33301 -156.999 -28c-42 -18.667 -71.333 -47 -88 -85c161.333 -33.333 242 -73 242 -119v-739
c0 -85.333 -28.333 -128 -85 -128h-125c-93.333 0 -140 72.333 -140 217c0 117.333 33.333 187 100 209v151h-400v-449c0 -85.333 -28.333 -128 -85 -128h-125c-93.333 0 -140 72.333 -140 217c0 117.333 33.333 187 100 209v391c0 61.333 -44 101.333 -132 120
c12 58 42.833 133 92.5 225s90.5 138 122.5 138c25.333 0 59 -12.333 101 -37l60 -38c18.667 -10.667 40.334 -16 65.001 -16c12.667 0 26.334 1.33301 41.001 4c-6 -40 -20 -82.667 -42 -128s-47.333 -70 -76 -74h-10c-28.667 0 -65.334 12 -110.001 36
c-24 12 -43.667 18 -59 18c-20 0 -34.333 -9.33301 -43 -28l-22 -51c174.667 -33.333 262 -73 262 -119v-190h400v140c0 61.333 -44 101.333 -132 120c34.667 98 90.834 183 168.501 255s166.5 108 266.5 108c98 0 186.667 -17 266 -51
c49.333 -20.667 93 -42.334 131 -65.001v290c0 57.333 -33.333 86 -100 86c0 58 41.667 87 125 87h113c74.667 0 112 -57.667 112 -173v-260c0 -55.333 -26.667 -120 -80 -194z" />
    <glyph glyph-name="uni17B717CD" unicode="&#x17b7;&#x17cd;" 
d="M-835 1700h350c-72.667 66.667 -166 100 -280 100c-106.667 0 -160 -16.667 -160 -50s30 -50 90 -50zM-215 1606l0.00195312 -6c0 -33.333 -23.333 -50 -70 -50h-550c-166.667 0 -250 66.667 -250 200s106.667 200 320 200c109.333 0 213.333 -33.667 312 -101
c5.33301 10.667 12 21.334 20 32.001c28 36.667 82.667 55 164 55c64.667 0 114.334 -21 149.001 -63c23.333 13.333 42.5 27.666 57.5 42.999s33.167 43.333 54.5 84c56 0 89 -10.667 99 -32c4 -8.66699 6 -17 6 -25c0 -12.667 -4.33301 -24.667 -13 -36
c-14.667 -19.333 -37.334 -42.333 -68.001 -69c-31.333 -26 -66 -49 -104 -69c-18 -5.33301 -35.667 -8 -53 -8c-38 36.667 -73 55 -105 55c-22.667 0 -41 -4.66699 -55 -14c-14 -10 -21 -30 -21 -60l42 -36h4c25.333 0 55.666 5 90.999 15c36 0 54 -8.33301 54 -25
c0 -31.333 -11.333 -55 -34 -71c-12.667 -8.66699 -29.334 -15 -50.001 -19z" />
    <glyph glyph-name=".notdef" horiz-adv-x="1020" 
d="M2 1434h1018v-1434h-1018v1434zM856 1331h-696l348 -522zM918 195v1044l-343 -522zM856 102l-348 523l-348 -523h696zM98 195l355 522l-355 522v-1044z" />
    <glyph glyph-name="space" unicode=" " horiz-adv-x="614" 
 />
    <glyph glyph-name="space" unicode="&#xa0;" horiz-adv-x="614" 
 />
    <glyph glyph-name="exclam" unicode="!" horiz-adv-x="680" 
d="M452 1489l-28 -1079h-166l-30 1079h224zM442 0h-204v211h204v-211z" />
    <glyph glyph-name="quotedbl" unicode="&#x22;" horiz-adv-x="822" 
d="M708 1556l-43 -579h-132l-43 579h218zM332 1556l-43 -579h-132l-43 579h218z" />
    <glyph glyph-name="numbersign" unicode="#" horiz-adv-x="1490" 
d="M1348 932h-293l-92 -376h268v-135h-303l-105 -421h-129l105 421h-270l-105 -421h-129l105 421h-258v135h293l92 376h-268v135h303l105 422h129l-105 -422h270l105 422h129l-105 -422h258v-135zM929 934h-274l-94 -380h274z" />
    <glyph glyph-name="dollar" unicode="$" horiz-adv-x="1118" 
d="M1024 380c0 -98 -37.5 -182.165 -112.5 -252.498s-169.5 -112.5 -283.5 -126.5v-362h-114v357c-72 0.666992 -144.5 9 -217.5 25s-136.5 37.333 -190.5 64v202h15c52.667 -39.333 112 -71.333 178 -96s137.667 -40.334 215 -47.001v432l-61 14.5
c-24 5.66699 -44.333 11.167 -61 16.5c-100 27.333 -171.5 68.666 -214.5 123.999s-64.5 123.333 -64.5 204c0 94.667 37 177 111 247s170.667 110.667 290 122v272h114v-270c60.667 -2 123.5 -10.5 188.5 -25.5s118.167 -31.5 159.5 -49.5v-198h-15
c-46.667 32 -97.834 60 -153.501 84s-115.5 38.667 -179.5 44v-430c22 -4.66699 42.5 -9.5 61.5 -14.5s35.5 -9.16699 49.5 -12.5c90.667 -21.333 160.834 -58.333 210.501 -111s74.5 -123.667 74.5 -213zM514 746.002v413.998c-60 -5.33301 -110.333 -24.833 -151 -58.5
s-61 -80.5 -61 -140.5c0 -59.333 14.833 -105.166 44.5 -137.499s85.5 -58.166 167.5 -77.499zM835 354c0 62.667 -16 109 -48 139s-85 52.667 -159 68v-415c68 8 119.5 28.5 154.5 61.5s52.5 81.833 52.5 146.5z" />
    <glyph glyph-name="percent" unicode="%" horiz-adv-x="2000" 
d="M807 1076c0 -150 -30.167 -261.167 -90.5 -333.5s-147.5 -108.5 -261.5 -108.5c-116 0 -203.833 36.667 -263.5 110s-89.5 183.666 -89.5 330.999c0 149.333 30.333 260.333 91 333s148 109 262 109c116 0 203.667 -36.667 263 -110s89 -183.666 89 -330.999zM1473 1489
l-780 -1489h-165l780 1489h165zM1897 413c0 -150 -30.167 -261.167 -90.5 -333.5s-147.5 -108.5 -261.5 -108.5c-116 0 -203.833 36.667 -263.5 110s-89.5 183.666 -89.5 330.999c0 149.333 30.333 260.333 91 333s148 109 262 109c116 0 203.667 -36.667 263 -110
s89 -183.666 89 -330.999zM629 1076c0 101.333 -11.833 178 -35.5 230s-69.834 78 -138.501 78s-115 -26.333 -139 -79s-36 -129.334 -36 -230.001c0 -100 11.333 -176.333 34 -229s69.667 -79 141 -79c68.667 0 114.834 26.333 138.501 79s35.5 129.334 35.5 230.001z
M1719 413c0 101.333 -11.833 178 -35.5 230s-69.834 78 -138.501 78s-115 -26.333 -139 -79s-36 -129.334 -36 -230.001c0 -100 11.333 -176.333 34 -229s69.667 -79 141 -79c68.667 0 114.834 26.333 138.501 79s35.5 129.334 35.5 230.001z" />
    <glyph glyph-name="ampersand" unicode="&#x26;" horiz-adv-x="1380" 
d="M1445 0l-256 0.00292969l-204 213c-68 -86.667 -137.833 -149 -209.5 -187s-152.834 -57 -243.501 -57c-134.667 0 -245.834 40.5 -333.501 121.5s-131.5 187.167 -131.5 318.5c0 57.333 8 108.333 24 153s37.333 85 64 121c26 34.667 56 65.167 90 91.5
s66.667 49.166 98 68.499c-67.333 45.333 -117.666 93 -150.999 143s-50 113 -50 189c0 47.333 9.5 91.166 28.5 131.499s43.833 75.833 74.5 106.5c32 31.333 73.5 57 124.5 77s106.833 30 167.5 30c110.667 0 201 -29.167 271 -87.5s105 -132.166 105 -221.499
c0 -32.667 -4.16699 -66.5 -12.5 -101.5s-23.5 -68.833 -45.5 -101.5s-50.833 -63.334 -86.5 -92.001s-83.167 -53.667 -142.5 -75l352 -362c9.33301 54.667 15 114.167 17 178.5s3 148.166 3 251.499h195v-96c0 -64 -8.16699 -136.167 -24.5 -216.5
s-43.166 -156.5 -80.499 -228.5zM898 301.003l-459.999 471.001c-16.667 -10.667 -33.334 -23.334 -50.001 -38.001s-35 -36.667 -55 -66c-16 -23.333 -30.167 -53.833 -42.5 -91.5s-18.5 -77.5 -18.5 -119.5c0 -94.667 28.167 -172.5 84.5 -233.5s132.5 -91.5 228.5 -91.5
c64 0 121.667 13.5 173 40.5s98 69.833 140 128.5zM532.001 912.004c37.333 12.667 68.168 29.668 92.501 51.001s43.166 44.666 56.499 69.999c12 23.333 21 48 27 74s9 54 9 84c0 64.667 -18.833 114.667 -56.5 150s-81.5 53 -131.5 53c-59.333 0 -106 -20 -140 -60
s-51 -90 -51 -150c0 -26.667 2.5 -49.5 7.5 -68.5s15.5 -41.167 31.5 -66.5c14 -20.667 33.5 -42.667 58.5 -66s57.167 -47 96.5 -71z" />
    <glyph glyph-name="quotesingle" unicode="'" horiz-adv-x="432" 
d="M327 1556l-43 -579h-136l-43 579h222z" />
    <glyph glyph-name="parenleft" unicode="(" horiz-adv-x="784" 
d="M710 -412l-228.998 0.00292969c-116 138 -207.167 284 -273.5 438s-99.5 336 -99.5 546c0 205.333 32.833 386.166 98.5 542.499s157.167 303.5 274.5 441.5h229v-10c-54 -48.667 -105.5 -104.834 -154.5 -168.501s-94.5 -137.834 -136.5 -222.501
c-40 -82 -72.5 -172.333 -97.5 -271s-37.5 -202.667 -37.5 -312c0 -114 12.167 -218.333 36.5 -313s57.166 -184.667 98.499 -270c40 -82 85.667 -156.167 137 -222.5s102.666 -122.5 153.999 -168.5v-10z" />
    <glyph glyph-name="parenright" unicode=")" horiz-adv-x="784" 
d="M676 572c0 -206 -32.998 -387.001 -98.998 -543.001s-157.333 -303 -274 -441h-229v10c51.333 46 103 102.5 155 169.5s97.333 140.833 136 221.5c41.333 86 74.166 176.833 98.499 272.5s36.5 199.167 36.5 310.5c0 110 -12.333 214 -37 312
s-57.334 188.333 -98.001 271s-86.667 157 -138 223s-102.333 122 -153 168v10h229c116 -138 207.167 -284.667 273.5 -440s99.5 -336.666 99.5 -543.999z" />
    <glyph glyph-name="asterisk" unicode="*" horiz-adv-x="1118" 
d="M1007 887l-65 -110l-327 217l7 -364h-125l6 364l-325 -218l-66 110l354 207l-354 207l66 110l326 -219l-7 365h125l-8 -365l328 218l65 -110l-354 -205z" />
    <glyph glyph-name="plus" unicode="+" horiz-adv-x="1490" 
d="M1333 572h-505v-505h-166v505h-505v160h505v505h166v-505h505v-160z" />
    <glyph glyph-name="comma" unicode="," horiz-adv-x="620" 
d="M500 285l-280 -655h-146l176 655h250z" />
    <glyph glyph-name="hyphen" unicode="-" horiz-adv-x="744" 
d="M654 561h-564v181h564v-181z" />
    <glyph glyph-name="period" unicode="." horiz-adv-x="620" 
d="M429 0h-239v285h239v-285z" />
    <glyph glyph-name="slash" unicode="/" horiz-adv-x="783" 
d="M728 1556l-583 -1880h-169l580 1880h172z" />
    <glyph glyph-name="zero" unicode="0" horiz-adv-x="1118" 
d="M1035 745c0 -267.333 -38.833 -463.498 -116.5 -588.498s-197.5 -187.5 -359.5 -187.5c-164 0 -284.333 63.667 -361 191s-115 321.666 -115 582.999c0 268.667 38.833 465.167 116.5 589.5s197.5 186.5 359.5 186.5c164 0 284.333 -64.333 361 -193
s115 -322.334 115 -581.001zM779 291.002c19.333 49.333 33.002 111.666 41.002 186.999s12 164.333 12 267c0 102 -4 190.667 -12 266s-22 138 -42 188c-20 50.667 -47.5 89.167 -82.5 115.5s-80.5 39.5 -136.5 39.5c-55.333 0 -100.833 -13.167 -136.5 -39.5
s-63.834 -65.5 -84.501 -117.5c-20 -50.667 -33.667 -114.667 -41 -192s-11 -164.666 -11 -261.999c0 -104 3.16699 -191 9.5 -261s20.166 -132.667 41.499 -188c19.333 -51.333 46.833 -90.833 82.5 -118.5s82.167 -41.5 139.5 -41.5c55.333 0 100.833 13.167 136.5 39.5
s63.5 65.5 83.5 117.5z" />
    <glyph glyph-name="one" unicode="1" horiz-adv-x="1118" 
d="M952 0h-726v152h270v998h-270v136c102 0 177.167 14.5 225.5 43.5s75.5 83.833 81.5 164.5h155v-1342h264v-152z" />
    <glyph glyph-name="two" unicode="2" horiz-adv-x="1118" 
d="M1028 0h-918.999v209l187 180c58.667 57.333 116 117 172 179c113.333 124.667 190.666 224.5 231.999 299.5s62 152.5 62 232.5c0 41.333 -6.5 77.666 -19.5 108.999s-30.833 57.333 -53.5 78c-23.333 20 -50.333 35 -81 45s-64.334 15 -101.001 15
c-35.333 0 -71.166 -4.5 -107.499 -13.5s-71.166 -20.167 -104.499 -33.5c-28 -11.333 -55 -25 -81 -41s-47 -29.667 -63 -41h-11v212c41.333 20.667 98.833 40.834 172.5 60.501s143.5 29.5 209.5 29.5c138.667 0 247.334 -36.833 326.001 -110.5s118 -173.5 118 -299.5
c0 -58 -6.83301 -111.667 -20.5 -161s-32.5 -95 -56.5 -137c-24.667 -43.333 -54.334 -86.333 -89.001 -129s-71.334 -84.667 -110.001 -126c-62.667 -68 -132.5 -138.667 -209.5 -212l-184.5 -174h732v-171z" />
    <glyph glyph-name="three" unicode="3" horiz-adv-x="1118" 
d="M511 1347c-36 0 -71.9971 -4.33203 -107.997 -12.999s-71.333 -20 -106 -34c-32 -13.333 -59.833 -27.333 -83.5 -42s-44.834 -28.334 -63.501 -41.001h-12v211c43.333 23.333 102.166 44.5 176.499 63.5s145.166 28.5 212.499 28.5s126.166 -6.83301 176.499 -20.5
s95.833 -34.834 136.5 -63.501c44 -32 77.167 -70.667 99.5 -116s33.5 -98.333 33.5 -159c0 -82 -27 -154 -81 -216s-118.667 -101.333 -194 -118v-14c31.333 -6 64.833 -16.333 100.5 -31s68.834 -36.334 99.501 -65.001s55.667 -65.5 75 -110.5s29 -99.833 29 -164.5
c0 -67.333 -11.5 -129.166 -34.5 -185.499s-55.5 -106.166 -97.5 -149.499c-43.333 -45.333 -95.666 -79.666 -156.999 -102.999s-131 -35 -209 -35c-74.667 0 -148.667 9 -222 27s-135 39.667 -185 65v211h14c42 -30.667 98.333 -60 169 -88s141.334 -42 212.001 -42
c40.667 0 81.5 6.5 122.5 19.5s75.167 34.167 102.5 63.5c26.667 29.333 47 61.666 61 96.999s21 80 21 134s-7.83301 98.333 -23.5 133s-37.5 62 -65.5 82s-61.167 33.833 -99.5 41.5s-79.833 11.5 -124.5 11.5h-85v166h66c90 0 163.167 21.333 219.5 64
s84.5 104.667 84.5 186c0 37.333 -7.33301 69.5 -22 96.5s-33.334 48.5 -56.001 64.5c-25.333 17.333 -53.333 29.333 -84 36s-63.334 10 -98.001 10z" />
    <glyph glyph-name="four" unicode="4" horiz-adv-x="1118" 
d="M1067 512h-177v-512h-192v512h-658v210l666 767h184v-817h177v-160zM698 672v582l-502 -582h502z" />
    <glyph glyph-name="five" unicode="5" horiz-adv-x="1118" 
d="M1011 474c0 -72 -11.501 -138.665 -34.501 -199.998s-55.167 -114.333 -96.5 -159c-42 -45.333 -94.167 -81 -156.5 -107s-132.166 -39 -209.499 -39c-71.333 0 -141.5 7.83301 -210.5 23.5s-128.833 36.167 -179.5 61.5v211h14
c15.333 -11.333 37.333 -24.166 66 -38.499s60.334 -27.833 95.001 -40.5c39.333 -14 75.333 -24.833 108 -32.5s69.334 -11.5 110.001 -11.5c40 0 79 7.16699 117 21.5s70.667 37.5 98 69.5c24.667 29.333 43.5 63.666 56.5 102.999s19.5 85.666 19.5 138.999
c0 52.667 -7.16699 96 -21.5 130s-35.166 62 -62.499 84c-28.667 25.333 -63.834 43.166 -105.501 53.499s-88.167 15.5 -139.5 15.5c-54 0 -108.333 -4.16699 -163 -12.5s-98.334 -16.166 -131.001 -23.499v767h817v-175h-624v-396c24 2.66699 47.667 4.66699 71 6
s44.666 2 63.999 2c76 0 140.333 -6.33301 193 -19s103.334 -37.334 152.001 -74.001c49.333 -37.333 87.166 -84 113.499 -140s39.5 -129 39.5 -219z" />
    <glyph glyph-name="six" unicode="6" horiz-adv-x="1118" 
d="M1051 483c0 -76.667 -12.668 -147.333 -38.001 -212s-59.333 -118.667 -102 -162c-44.667 -46 -94.667 -80.833 -150 -104.5s-116.333 -35.5 -183 -35.5c-67.333 0 -128.5 11.333 -183.5 34s-103.5 56.334 -145.5 101.001c-51.333 54 -91.5 126.167 -120.5 216.5
s-43.5 201.5 -43.5 333.5c0 129.333 13.333 246.166 40 350.499s67.667 195.166 123 272.499c54 75.333 123.667 134.166 209 176.499s184 63.5 296 63.5c33.333 0 64.333 -1.66699 93 -5s54 -8.66602 76 -15.999v-191h-9c-18 10 -44 19.167 -78 27.5
s-70.333 12.5 -109 12.5c-124 0 -224.167 -41.833 -300.5 -125.5s-121.5 -207.834 -135.5 -372.501c47.333 33.333 96 59 146 77s104.667 27 164 27c58 0 108.833 -5.83301 152.5 -17.5s89.167 -35.167 136.5 -70.5c54.667 -41.333 95.334 -93.666 122.001 -156.999
s40 -137.666 40 -222.999zM847.999 475.001c0 61.333 -7.99902 112.669 -23.999 154.002s-42 76.666 -78 105.999c-26 21.333 -55.5 35.333 -88.5 42s-66.833 10 -101.5 10c-46.667 0 -92 -7 -136 -21s-87.333 -34.333 -130 -61
c-1.33301 -14.667 -2.33301 -28.834 -3 -42.501s-1 -30.834 -1 -51.501c0 -103.333 10.167 -186.666 30.5 -249.999s45.5 -111.333 75.5 -144c28.667 -31.333 58.167 -53.333 88.5 -66s63.166 -19 98.499 -19c80 0 144.833 28.667 194.5 86s74.5 143 74.5 257z" />
    <glyph glyph-name="seven" unicode="7" horiz-adv-x="1118" 
d="M1044 1266l-644 -1266h-213l682 1314h-770v175h945v-223z" />
    <glyph glyph-name="eight" unicode="8" horiz-adv-x="1118" 
d="M811 1142c0 66.667 -22.333 122.333 -67 167s-106.667 67 -186 67c-72.667 0 -132.167 -20 -178.5 -60s-69.5 -94 -69.5 -162c0 -49.333 11.833 -91 35.5 -125s59.167 -64.667 106.5 -92c20.667 -11.333 52.167 -27 94.5 -47s80.833 -35.667 115.5 -47
c58 44.667 97.333 90.5 118 137.5s31 100.833 31 161.5zM839 395.999c0 61.333 -12 110.001 -36 146.001s-70.333 72.667 -139 110c-22.667 12.667 -52.834 26.334 -90.501 41.001l-127.5 52c-55.333 -36.667 -97.666 -81.834 -126.999 -135.501s-44 -114.834 -44 -183.501
c0 -90 27.167 -164.333 81.5 -223s122.5 -88 204.5 -88c84 0 151.333 25.167 202 75.5s76 118.833 76 205.5zM559 -34c-74 0 -141.334 10.998 -202.001 32.998s-112.334 53.667 -155.001 95c-42 40 -73.833 87.5 -95.5 142.5s-32.5 113.167 -32.5 174.5
c0 80.667 21.5 154.834 64.5 222.501s105.5 121.5 187.5 161.5v6c-73.333 42.667 -127.666 89.334 -162.999 140.001s-53 114 -53 190c0 112 42.333 205.333 127 280s192 112 322 112c135.333 0 243.833 -35.5 325.5 -106.5s122.5 -161.833 122.5 -272.5
c0 -66.667 -19.5 -132.667 -58.5 -198s-95.167 -116.333 -168.5 -153v-6c86.667 -40.667 152.334 -90 197.001 -148s67 -132.667 67 -224c0 -127.333 -46.167 -234 -138.5 -320s-207.833 -129 -346.5 -129z" />
    <glyph glyph-name="nine" unicode="9" horiz-adv-x="1118" 
d="M832 877c0 101.333 -9.33203 183.833 -27.999 247.5s-44.334 112.834 -77.001 147.501c-29.333 32 -59 54 -89 66s-63 18 -99 18c-82 0 -147.333 -29.333 -196 -88s-73 -143.667 -73 -255c0 -62.667 8 -114.334 24 -155.001s42 -75.667 78 -105
c25.333 -20.667 54 -34.5 86 -41.5s66.333 -10.5 103 -10.5c42.667 0 88.667 7.5 138 22.5s92.333 34.833 129 59.5c0.666992 10 1.5 23.167 2.5 39.5s1.5 34.5 1.5 54.5zM67.001 1005c0 76.667 12.4941 146.667 37.4941 210s59.167 118 102.5 164
c41.333 44 91.833 78.333 151.5 103s120.167 37 181.5 37c68.667 0 130.834 -11.5 186.501 -34.5s103.834 -56.167 144.501 -99.5c51.333 -54.667 91.166 -126.334 119.499 -215.001s42.5 -200.667 42.5 -336c0 -123.333 -13.833 -240.166 -41.5 -350.499
s-68.5 -201.833 -122.5 -274.5c-57.333 -77.333 -126.166 -136.333 -206.499 -177s-179.5 -61 -297.5 -61c-26.667 0 -55 1.5 -85 4.5s-58 8.5 -84 16.5v191h10c16.667 -9.33301 42.667 -18.333 78 -27s71.333 -13 108 -13c130.667 0 233.334 43 308.001 129
s117 209 127 369c-53.333 -36 -104.166 -62.333 -152.499 -79s-100.833 -25 -157.5 -25c-55.333 0 -105.666 6 -150.999 18s-91 35.333 -137 70c-53.333 40.667 -93.666 92.167 -120.999 154.5s-41 137.5 -41 225.5z" />
    <glyph glyph-name="colon" unicode=":" horiz-adv-x="724" 
d="M482 832h-239v285h239v-285zM482 0h-239v285h239v-285z" />
    <glyph glyph-name="semicolon" unicode=";" horiz-adv-x="724" 
d="M482 832h-239v285h239v-285zM548 285l-280 -655h-146l176 655h250z" />
    <glyph glyph-name="less" unicode="&#x3c;" horiz-adv-x="1490" 
d="M1275 79l-1074 513v120l1074 513v-178l-833 -395l833 -395v-178z" />
    <glyph glyph-name="equal" unicode="=" horiz-adv-x="1490" 
d="M1298 782h-1106v160h1106v-160zM1298 362h-1106v160h1106v-160z" />
    <glyph glyph-name="greater" unicode="&#x3e;" horiz-adv-x="1490" 
d="M1289 592l-1074 -513v178l833 395l-833 395v178l1074 -513v-120z" />
    <glyph glyph-name="question" unicode="?" horiz-adv-x="970" 
d="M912 1139c0 -65.333 -10.833 -123.497 -32.5 -174.497s-50.5 -95.833 -86.5 -134.5s-76.833 -74.334 -122.5 -107.001s-93.834 -64.334 -144.501 -95.001v-228h-179v305l130.5 81.5c49.667 31.667 88.5 61.167 116.5 88.5c36 34 64 71.167 84 111.5s30 86.166 30 137.499
c0 75.333 -23.667 131.5 -71 168.5s-109 55.5 -185 55.5c-66.667 0 -129.5 -11.167 -188.5 -33.5s-106.833 -45.5 -143.5 -69.5h-11v204c44.667 18 101 34.167 169 48.5s132.333 21.5 193 21.5c136.667 0 244.334 -34.833 323.001 -104.5s118 -161.5 118 -275.5z
M542 0.00292969h-204v211h204v-211z" />
    <glyph glyph-name="at" unicode="@" horiz-adv-x="1862" 
d="M1739 663c0 -92.667 -12.666 -182.166 -37.999 -268.499s-61.666 -165.5 -108.999 -237.5h-421l-25 116c-44.667 -38 -85.834 -68.167 -123.501 -90.5s-88.834 -33.5 -153.501 -33.5c-102.667 0 -186.667 41.167 -252 123.5s-98 201.833 -98 358.5
s40.167 278.667 120.5 366s172.166 131 275.499 131c48 0 89.333 -6 124 -18s69.667 -28 105 -48v48h159v-842h227c25.333 47.333 43.5 108.666 54.5 183.999s16.5 143.666 16.5 204.999c0 218 -55.5 393.5 -166.5 526.5s-270.5 199.5 -478.5 199.5
c-197.333 0 -360.166 -71.833 -488.499 -215.5s-192.5 -317.834 -192.5 -522.501c0 -220 62.333 -398.167 187 -534.5s287.667 -204.5 489 -204.5c54 0 110.833 3.66699 170.5 11s116.167 19 169.5 35v-142c-56 -13.333 -112.833 -22.666 -170.5 -27.999
s-114.5 -8 -170.5 -8c-236 0 -431.333 81 -586 243s-232 372 -232 630c0 244.667 79.833 451 239.5 619s354.167 252 583.5 252c245.333 0 437.333 -79.167 576 -237.5s208 -364.166 208 -617.499zM1142 408.001l-0.00195312 518.002
c-37.333 19.333 -71.666 33.166 -102.999 41.499s-64 12.5 -98 12.5c-75.333 0 -136 -28.167 -182 -84.5s-69 -143.5 -69 -261.5c0 -106.667 17.333 -188.334 52 -245.001s90 -85 166 -85c40.667 0 80.834 9.66699 120.501 29s77.5 44.333 113.5 75z" />
    <glyph glyph-name="A" unicode="A" horiz-adv-x="1222" 
d="M847 597l-236 685l-236 -685h472zM694 1500l518 -1500h-159l-154 447h-576l-154 -447h-159l518 1500h166z" />
    <glyph glyph-name="B" unicode="B" horiz-adv-x="1257" 
d="M311 710v-560h400c113.333 0 198.333 23.333 255 70s85 116.667 85 210s-28.333 163.333 -85 210s-141.667 70 -255 70h-400zM661 860c113.333 0 198.333 20.334 255 61.001c56.667 41.333 85 102.666 85 183.999c0 82 -28.333 143.333 -85 184s-141.667 61 -255 61h-350
v-490h350zM161 1500l499.999 -0.00390625c163.333 0 286 -33 368 -99c81.333 -65.333 122 -164 122 -296c0 -69.333 -11.333 -129.666 -34 -180.999s-57 -93.666 -103 -126.999c62.667 -33.333 109.334 -80.666 140.001 -141.999c31.333 -61.333 47 -136.333 47 -225
c0 -143.333 -40.667 -250.666 -122 -321.999c-82 -72 -204.667 -108 -368 -108h-550v1500z" />
    <glyph glyph-name="C" unicode="C" horiz-adv-x="1253" 
d="M676 0c-200 0 -350 62.668 -450 188.001c-100 124.667 -150 312 -150 562s50 437.667 150 563c100 124.667 250 187 450 187c125.333 0 231 -24.333 317 -73c86 -49.333 152.333 -123 199 -221l-129 -82c-35.333 80.667 -85.333 141 -150 181c-64 40 -143 60 -237 60
c-150 0 -262.333 -51.333 -337 -154c-75.333 -102 -113 -255.667 -113 -461c0 -204.667 37.667 -358.334 113 -461.001c74.667 -102.667 187 -154 337 -154c98.667 0 181 22.333 247 67c66.667 44 116.667 110.333 150 199l136 -68c-44 -110.667 -110.667 -194 -200 -250
c-88.667 -55.333 -199.667 -83 -333 -83z" />
    <glyph glyph-name="D" unicode="D" horiz-adv-x="1325" 
d="M661 1350h-350v-1200h300c163.333 0 286 50 368 150c81.333 100 122 250 122 450s-36.667 350 -110 450s-183.333 150 -330 150zM1251 750c0 -250 -53.334 -437.333 -160.001 -562c-106.667 -125.333 -266.667 -188 -480 -188h-450v1500h500
c196.667 0 344.334 -62.333 443.001 -187c98 -125.333 147 -313 147 -563z" />
    <glyph glyph-name="E" unicode="E" horiz-adv-x="1278" 
d="M311 723v-573h890v-150h-1040v1500h1020v-150h-870v-477h840v-150h-840z" />
    <glyph glyph-name="F" unicode="F" horiz-adv-x="1216" 
d="M311 873h759v-150h-759v-723h-150v1500h1019v-150h-869v-477z" />
    <glyph glyph-name="G" unicode="G" horiz-adv-x="1308" 
d="M1050 425v183h-376v150h526v-758h-150v134c-95.333 -89.333 -225 -134 -389 -134c-194.667 0 -341 62.667 -439 188c-97.333 124.667 -146 312 -146 562s48.667 437.667 146 563c98 124.667 244.333 187 439 187c242.667 0 409.667 -96.667 501 -290l-140 -67
c-70.667 138 -191 207 -361 207c-144.667 0 -253.334 -50 -326.001 -150s-109 -250 -109 -450s36.333 -350 109 -450s181.334 -150 326.001 -150c196 0 325.667 91.667 389 275z" />
    <glyph glyph-name="H" unicode="H" horiz-adv-x="1378" 
d="M311 693v-693h-150v1500h150v-657h756v657h150v-1500h-150v693h-756z" />
    <glyph glyph-name="I" unicode="I" horiz-adv-x="656" 
d="M253 1350h-150v150h450v-150h-150v-1200h150v-150h-450v150h150v1200z" />
    <glyph glyph-name="J" unicode="J" horiz-adv-x="941" 
d="M570 1350h-155v150h450v-150h-145v-950c0 -266.667 -110.333 -400 -331 -400c-221.333 0 -332 126.667 -332 380h150c0 -153.333 60.667 -230 182 -230c120.667 0 181 83.333 181 250v950z" />
    <glyph glyph-name="K" unicode="K" horiz-adv-x="1231" 
d="M1036 0l-538 805l-187 -179v-626h-150v1500h150v-667l693 667h217l-613 -589l608 -911h-180z" />
    <glyph glyph-name="L" unicode="L" horiz-adv-x="1030" 
d="M311 150h709v-150h-859v1500h150v-1350z" />
    <glyph glyph-name="M" unicode="M" horiz-adv-x="1616" 
d="M1243 1500h212v-1500h-150v1218l-416 -1218h-162l-416 1218v-1218h-150v1500h212l435 -1275z" />
    <glyph glyph-name="N" unicode="N" horiz-adv-x="1393" 
d="M311 1267v-1267h-150v1500h188l733 -1265v1265h150v-1500h-187z" />
    <glyph glyph-name="O" unicode="O" horiz-adv-x="1322" 
d="M661 1500c195.333 0 341.666 -62.333 438.999 -187c97.333 -125.333 146 -313 146 -563s-48.667 -437.333 -146 -562c-97.333 -125.333 -243.666 -188 -438.999 -188c-194.667 0 -341 62.667 -439 188c-97.333 124.667 -146 312 -146 562s48.667 437.667 146 563
c98 124.667 244.333 187 439 187zM661 1350c-144.667 0 -253.334 -50 -326.001 -150s-109 -250 -109 -450s36.333 -350 109 -450s181.334 -150 326.001 -150c145.333 0 254 50 326 150c72.667 100 109 250 109 450s-36.333 350 -109 450c-72 100 -180.667 150 -326 150z" />
    <glyph glyph-name="P" unicode="P" horiz-adv-x="1239" 
d="M1191 1090c0 -136.667 -41.333 -238.999 -124 -306.999c-82 -68.667 -205.667 -103 -371 -103h-385v-680h-150v1500h535c165.333 0 289 -34 371 -102c82.667 -68.667 124 -171.334 124 -308.001zM311 830.001h385c115.333 0 201.666 21.667 258.999 65s86 108.333 86 195
s-28.667 151.667 -86 195s-143.666 65 -258.999 65h-385v-520z" />
    <glyph glyph-name="Q" unicode="Q" horiz-adv-x="1334" 
d="M1017 348c52.667 98 79 232 79 402c0 200 -36.333 350 -109 450c-72 100 -180.667 150 -326 150c-144.667 0 -253.334 -50 -326.001 -150s-109 -250 -109 -450s36.333 -350 109 -450s181.334 -150 326.001 -150c106.667 0 193.667 27 261 81l-248 181l88 122zM1053 136
c-95.333 -90.667 -225.999 -136 -391.999 -136c-194.667 0 -341 62.667 -439 188c-97.333 124.667 -146 312 -146 562s48.667 437.667 146 563c98 124.667 244.333 187 439 187c195.333 0 341.666 -62.333 438.999 -187c97.333 -125.333 146 -313 146 -563
c0 -208.667 -34 -373.667 -102 -495l184 -134l-88 -121z" />
    <glyph glyph-name="R" unicode="R" horiz-adv-x="1252" 
d="M311 830h385c115.333 0 201.666 21.667 258.999 65s86 108.333 86 195s-28.667 151.667 -86 195s-143.666 65 -258.999 65h-385v-520zM1076 0l-328.001 681.002c-17.333 -0.666992 -34.666 -1 -51.999 -1h-385v-680h-150v1500h535c165.333 0 289 -34 371 -102
c82.667 -68.667 124 -171.334 124 -308.001c0 -104 -24 -188.333 -72 -253s-120 -109.334 -216 -134.001l339 -703h-166z" />
    <glyph glyph-name="S" unicode="S" horiz-adv-x="1204" 
d="M615 1500c332 0 498 -133.334 498 -400.001h-150c0 166.667 -116 250 -348 250s-348 -67.667 -348 -203c0 -136 81 -221 243 -255l244 -53c259.333 -55.333 389 -202 389 -440c0 -266 -176 -399 -528 -399s-528 166.667 -528 500h150c0 -233.333 126 -350 378 -350
s378 83 378 249c0 166.667 -91 269.667 -273 309l-244 53c-239.333 48.667 -359 177.334 -359 386.001c0 235.333 166 353 498 353z" />
    <glyph glyph-name="T" unicode="T" horiz-adv-x="1076" 
d="M464 1350h-454v150h1056v-150h-452v-1350h-150v1350z" />
    <glyph glyph-name="U" unicode="U" horiz-adv-x="1386" 
d="M693 0c-366.667 0 -550 166.667 -550 500v1000h150v-1000c0 -233.333 133.333 -350 400 -350s400 116.667 400 350v1000h150v-1000c0 -333.333 -183.333 -500 -550 -500z" />
    <glyph glyph-name="V" unicode="V" horiz-adv-x="1222" 
d="M1053 1500h159l-518 -1500h-166l-518 1500h159l442 -1282z" />
    <glyph glyph-name="W" unicode="W" horiz-adv-x="1999" 
d="M1079 1500l377 -1283l376 1283h157l-441 -1500h-185l-363 1236l-364 -1236h-185l-441 1500h157l377 -1283l376 1283h159z" />
    <glyph glyph-name="X" unicode="X" horiz-adv-x="1258" 
d="M629 619l-428 -619h-183l520 751l-518 749h183l426 -616l426 616h183l-517 -749l519 -751h-183z" />
    <glyph glyph-name="Y" unicode="Y" horiz-adv-x="1212" 
d="M531 631l-521 869h175l421 -703l421 703h175l-521 -869v-622h-150v622z" />
    <glyph glyph-name="Z" unicode="Z" horiz-adv-x="1193" 
d="M930 1350h-854v150h1041v-150l-853 -1200h853v-150h-1041v150z" />
    <glyph glyph-name="bracketleft" unicode="[" horiz-adv-x="665" 
d="M176 1500h381v-150h-231v-1634h231v-150h-381v1934z" />
    <glyph glyph-name="backslash" unicode="\" horiz-adv-x="752" 
d="M215 1500l485 -1533h-163l-485 1533h163z" />
    <glyph glyph-name="bracketright" unicode="]" horiz-adv-x="665" 
d="M339 1350h-231v150h381v-1934h-381v150h231v1634z" />
    <glyph glyph-name="asciicircum" unicode="^" horiz-adv-x="1046" 
d="M446 1500h150l317 -778h-141l-250 614l-248 -614h-141z" />
    <glyph glyph-name="underscore" unicode="_" horiz-adv-x="1197" 
d="M1213 -241v-135h-1229v135h1229z" />
    <glyph glyph-name="a" unicode="a" horiz-adv-x="1115" 
d="M819 620c-58 -24 -132.997 -42.332 -224.997 -54.999c-124.667 -17.333 -218.334 -46.333 -281.001 -87s-94 -93 -94 -157c0 -56.667 18.333 -99.334 55 -128.001s91.667 -43 165 -43c71.333 0 138.666 18 201.999 54s122.666 89.667 177.999 161v255zM69.0029 850.001
c0 96.667 37.6641 169.333 112.997 218c74.667 48 187 72 337 72s262.667 -25.667 338 -77c74.667 -52 112 -129.667 112 -233v-830h-150v186c-55.333 -62 -114.666 -108.333 -177.999 -139c-63.333 -31.333 -130.666 -47 -201.999 -47
c-123.333 0 -215.666 26.667 -276.999 80c-62 54 -93 134.333 -93 241c0 104 41.667 187.333 125 250c82.667 63.333 207 105.666 373 126.999c168 22.667 252 53.334 252 92.001v40c0 53.333 -25 93.333 -75 120s-125 40 -225 40s-175 -11.667 -225 -35
s-75 -58.333 -75 -105h-150z" />
    <glyph glyph-name="b" unicode="b" horiz-adv-x="1115" 
d="M296 0h-150v1500h150v-527c64 111.333 164 167 300 167c300 0 450 -190 450 -570s-150 -570 -450 -570c-136 0 -236 55.667 -300 167v-167zM296 570c0 -131.333 25.5 -234.167 76.5 -308.5s125.5 -111.5 223.5 -111.5c200 0 300 140 300 420s-100 420 -300 420
c-98 0 -172.5 -37 -223.5 -111s-76.5 -177 -76.5 -309z" />
    <glyph glyph-name="c" unicode="c" horiz-adv-x="1031" 
d="M901 143c-79.333 -95.333 -198.332 -143.001 -356.999 -143.001c-158 0 -276.667 47.667 -356 143c-79.333 94.667 -119 237 -119 427s39.667 332.667 119 428c79.333 94.667 198 142 356 142c158.667 0 277.667 -47.333 357 -142
c15.333 -19.333 29.333 -40.666 42 -63.999l-131 -76c-6.66699 11.333 -13.334 21.666 -20.001 30.999c-52 67.333 -134.667 101 -248 101s-195.666 -33.667 -246.999 -101c-52 -67.333 -78 -173.666 -78 -318.999c0 -144.667 26 -250.667 78 -318
c51.333 -68 133.666 -102 246.999 -102s196 34 248 102c20.667 26.667 37 60 49 100l145 -44c-20 -65.333 -48.333 -120.333 -85 -165z" />
    <glyph glyph-name="d" unicode="d" horiz-adv-x="1115" 
d="M819 167c-64 -111.333 -164 -167 -300 -167c-300 0 -450 190 -450 570s150 570 450 570c136 0 236 -55.667 300 -167v527h150v-1500h-150v167zM519 990c-200 0 -300 -139.999 -300 -419.999s100 -420 300 -420c98 0 172.5 37.167 223.5 111.5s76.5 177.166 76.5 308.499
c0 132 -25.5 235 -76.5 309s-125.5 111 -223.5 111z" />
    <glyph glyph-name="e" unicode="e" horiz-adv-x="1083" 
d="M219 545c3.33301 -132 29.332 -229.667 77.999 -293c51.333 -68 133.666 -102 246.999 -102s196 34 248 102c20.667 27.333 37.334 61 50.001 101h156c-19.333 -85.333 -51.666 -155.333 -96.999 -210c-79.333 -95.333 -198.333 -143 -357 -143
c-158 0 -276.667 47.5 -356 142.5s-119 237.5 -119 427.5s39.667 332.5 119 427.5s198 142.5 356 142.5c158.667 0 277.5 -47.5 356.5 -142.5s118.5 -237.5 118.5 -427.5v-25h-800zM860.999 695c-10.667 83.333 -33.668 148 -69.001 194c-52 67.333 -134.667 101 -248 101
s-195.666 -33.667 -246.999 -101c-36 -46 -59.333 -110.667 -70 -194h634z" />
    <glyph glyph-name="f" unicode="f" horiz-adv-x="501" 
d="M179 1140v110c0 166.667 114 250 342 250v-135c-128 0 -192 -38.333 -192 -115v-110h162v-150h-162v-990h-150v990h-140v150h140z" />
    <glyph glyph-name="g" unicode="g" horiz-adv-x="1115" 
d="M519 990c-200 0 -300 -139.999 -300 -419.999s100 -420 300 -420c98 0 172.5 37.167 223.5 111.5s76.5 177.166 76.5 308.499c0 132 -25.5 235 -76.5 309s-125.5 111 -223.5 111zM819 130.001v37c-64 -111.333 -164 -167 -300 -167c-300 0 -450 190 -450 570
s150 570 450 570c136 0 236 -55.667 300 -167v167h150v-1010c0 -326.667 -143.333 -490 -430 -490c-246.667 0 -396.667 91.667 -450 275l125 20c46.667 -96.667 155 -145 325 -145c186.667 0 280 113.333 280 340z" />
    <glyph glyph-name="h" unicode="h" horiz-adv-x="1184" 
d="M898 0v710c0 186.667 -86.667 280 -260 280c-91.333 0 -170.833 -40.333 -238.5 -121s-101.5 -137 -101.5 -169v-700h-150v1500h150v-557c104 131.333 217.333 197 340 197c273.333 0 410 -143.333 410 -430v-710h-150z" />
    <glyph glyph-name="i" unicode="i" horiz-adv-x="424" 
d="M137 1350v150h150v-150h-150zM287 1140v-1140h-150v1140h150z" />
    <glyph glyph-name="j" unicode="j" horiz-adv-x="474" 
d="M187 1350v150h150v-150h-150zM10 -360v150c118 0 177 53.333 177 160v1190h150v-1190c0 -206.667 -109 -310 -327 -310z" />
    <glyph glyph-name="k" unicode="k" horiz-adv-x="1054" 
d="M296 632l502 508h211l-469 -474l504 -666h-188l-422 558l-138 -140v-418h-150v1500h150v-868z" />
    <glyph glyph-name="l" unicode="l" horiz-adv-x="450" 
d="M300 1500v-1500h-150v1500h150z" />
    <glyph glyph-name="m" unicode="m" horiz-adv-x="1732" 
d="M946 700l-0.000976562 -700h-150v710c0 186.667 -73.333 280 -220 280c-91.333 0 -160.833 -40.333 -208.5 -121s-71.5 -137 -71.5 -169v-700h-150v1140h150v-197c90.667 131.333 194 197 310 197c164.667 0 269.334 -77.333 314.001 -232l26 35
c90.667 131.333 194 197 310 197c226.667 0 340 -146.667 340 -440v-700h-150v710c0 186.667 -73.333 280 -220 280c-91.333 0 -160.833 -40.333 -208.5 -121s-71.5 -137 -71.5 -169z" />
    <glyph glyph-name="n" unicode="n" horiz-adv-x="1184" 
d="M898 0v710c0 186.667 -86.667 280 -260 280c-91.333 0 -170.833 -40.333 -238.5 -121s-101.5 -137 -101.5 -169v-700h-150v1140h150v-197c104 131.333 217.333 197 340 197c273.333 0 410 -143.333 410 -430v-710h-150z" />
    <glyph glyph-name="o" unicode="o" horiz-adv-x="1084" 
d="M867 570c0 145.333 -25.667 251.666 -77 318.999c-52 67.333 -134.667 101 -248 101s-195.666 -33.667 -246.999 -101c-52 -67.333 -78 -173.666 -78 -318.999c0 -144.667 26 -250.667 78 -318c51.333 -68 133.666 -102 246.999 -102s196 34 248 102
c51.333 67.333 77 173.333 77 318zM67 570c0 190 39.667 332.667 119 428c79.333 94.667 198 142 356 142c158.667 0 277.667 -47.333 357 -142c78.667 -95.333 118 -238 118 -428s-39.333 -332.333 -118 -427c-79.333 -95.333 -198.333 -143 -357 -143
c-158 0 -276.667 47.667 -356 143c-79.333 94.667 -119 237 -119 427z" />
    <glyph glyph-name="p" unicode="p" horiz-adv-x="1115" 
d="M296 973c64 111.333 164 167 300 167c300 0 450 -190 450 -570s-150 -570 -450 -570c-136 0 -236 55.667 -300 167v-527h-150v1500h150v-167zM596 150c200 0 300 139.999 300 419.999s-100 420 -300 420c-98 0 -172.5 -37.167 -223.5 -111.5
s-76.5 -177.166 -76.5 -308.499c0 -132 25.5 -235 76.5 -309s125.5 -111 223.5 -111z" />
    <glyph glyph-name="q" unicode="q" horiz-adv-x="1115" 
d="M819 1140h150v-1500h-150v527c-64 -111.333 -164 -167 -300 -167c-300 0 -450 190 -450 570s150 570 450 570c136 0 236 -55.667 300 -167v167zM819 570c0 131.333 -25.5 234.167 -76.5 308.5s-125.5 111.5 -223.5 111.5c-200 0 -300 -140 -300 -420s100 -420 300 -420
c98 0 172.5 37 223.5 111s76.5 177 76.5 309z" />
    <glyph glyph-name="r" unicode="r" horiz-adv-x="676" 
d="M656 990c-98 0 -182.5 -40.333 -253.5 -121s-106.5 -137 -106.5 -169v-700h-150v1140h150v-197c110.667 131.333 230.667 197 360 197v-150z" />
    <glyph glyph-name="s" unicode="s" horiz-adv-x="1026" 
d="M77 361l150 0.00195312c0 -140.667 100 -211 300 -211s300 66.667 300 200c0 71.333 -64 123.666 -192 156.999l-160 39c-245.333 59.333 -368 160.666 -368 303.999c0 193.333 140 290 420 290s420 -107.333 420 -322h-150c0 114.667 -90 172 -270 172
s-270 -46.667 -270 -140c0 -71.333 87 -129.333 261 -174l160 -39c199.333 -48 299 -143.667 299 -287c0 -233.333 -150 -350 -450 -350s-450 120.333 -450 361z" />
    <glyph glyph-name="t" unicode="t" horiz-adv-x="566" 
d="M192 990h-161v150h161v360h150v-360h209v-150h-209v-700c0 -93.333 69.667 -140 209 -140v-150c-239.333 0 -359 96.667 -359 290v700z" />
    <glyph glyph-name="u" unicode="u" horiz-adv-x="1184" 
d="M286 1140v-710c0 -186.667 86.667 -280 260 -280c91.333 0 170.833 40.333 238.5 121s101.5 137 101.5 169v700h150v-1140h-150v197c-104 -131.333 -217.333 -197 -340 -197c-273.333 -0 -410 143.333 -410 430v710h150z" />
    <glyph glyph-name="v" unicode="v" horiz-adv-x="929" 
d="M756 1140h157l-368 -1140h-161l-368 1140h157l291 -898z" />
    <glyph glyph-name="w" unicode="w" horiz-adv-x="1448" 
d="M724 844l-220 -844h-191l-297 1140h155l238 -909l237 909h156l238 -909l237 909h155l-297 -1140h-191z" />
    <glyph glyph-name="x" unicode="x" horiz-adv-x="941" 
d="M471 433l-283 -433h-178l372 570l-372 570h178l283 -433l282 433h178l-371 -570l371 -570h-178z" />
    <glyph glyph-name="y" unicode="y" horiz-adv-x="1023" 
d="M492 266l353 874h162l-607 -1500h-162l169 418l-391 1082h159z" />
    <glyph glyph-name="z" unicode="z" horiz-adv-x="1071" 
d="M982 990l-732 -840h762v-150h-953v150l732 840h-702v150h893v-150z" />
    <glyph glyph-name="braceleft" unicode="{" horiz-adv-x="635" 
d="M60 600c74 15.333 119.167 37.835 135.5 67.502s24.5 101.5 24.5 215.5v342c0 139.333 48.333 224.666 145 255.999c24.667 8 50.667 12 78 12h94v-93c-121.333 0 -182 -49.667 -182 -149v-399c0 -180.667 -48.333 -288 -145 -322c96.667 -34 145 -141.333 145 -322v-399
c0 -99.333 60.667 -149 182 -149v-93h-94c-27.333 0 -53.333 4 -78 12c-96.667 31.333 -145 116.666 -145 255.999v342c0 114 -8.16699 185.833 -24.5 215.5s-61.5 52.167 -135.5 67.5v140z" />
    <glyph glyph-name="bar" unicode="|" horiz-adv-x="766" 
d="M308 1500h150v-1860h-150v1860z" />
    <glyph glyph-name="braceright" unicode="}" horiz-adv-x="635" 
d="M575 460c-74 -15.333 -119.167 -37.835 -135.5 -67.502s-24.5 -101.5 -24.5 -215.5v-342c0 -139.333 -48.333 -224.666 -145 -255.999c-24.667 -8 -50.667 -12 -78 -12h-94v93c121.333 0 182 49.667 182 149v399c0 180.667 48.333 288 145 322
c-96.667 34 -145 141.333 -145 322v399c0 99.333 -60.667 149 -182 149v93h94c27.333 0 53.333 -4 78 -12c96.667 -31.333 145 -116.666 145 -255.999v-342c0 -114 8.16699 -185.833 24.5 -215.5s61.5 -52.167 135.5 -67.5v-140z" />
    <glyph glyph-name="asciitilde" unicode="~" horiz-adv-x="1200" 
d="M800 250c-99.333 0 -173.999 41.667 -223.999 125l-38 63c-25.333 41.333 -71.333 62 -138 62c-66 0 -99 -33.333 -99 -100v-150h-151v151c0 166 82.333 249 247 249h3c99.333 0 174.666 -41.667 225.999 -125l37 -62c24.667 -42 70.667 -63 138 -63
c66 0 99 33.333 99 100v150h150v-150c0 -166 -83.333 -249.333 -250 -250z" />
    <glyph glyph-name="uni1780" unicode="&#x1780;" horiz-adv-x="1300" 
d="M1100 0h-250v650c0 102 -50 153 -150 153h-100c-100 0 -150 -51 -150 -153v-650h-250v650c0 168.667 133.333 253 400 253h100c266.667 0 400 -84.333 400 -253v-650zM252 850c-101.333 31.333 -151.999 97.667 -151.999 199c0 51.333 40.333 106 121 164
s138.334 87 173.001 87c26 0 74.333 -29 145 -87l53 -41c23.333 -16.667 42.666 -25 57.999 -25s32.333 8.33301 51 25l62 54c59.333 49.333 101 74 125 74c23.333 0 54.666 -18.333 93.999 -55l116 -112c20 -21.333 39 -32 57 -32c17.333 0 32.333 5 45 15
c-33.333 -106 -78.333 -159 -135 -159c-44 0 -81.667 14.667 -113 44l-63 57c-29.333 24.667 -52.333 37 -69 37c-15.333 0 -47.5 -23 -96.5 -69s-86.833 -69 -113.5 -69c-48.667 0 -90 14.667 -124 44l-71 60c-32.667 22.667 -58.667 34 -78 34c-22 0 -42 -4.5 -60 -13.5
s-27 -24.833 -27 -47.5c0 -14 37.333 -44 112 -90z" />
    <glyph glyph-name="uni1781" unicode="&#x1781;" horiz-adv-x="1300" 
d="M200 483c433.333 191.333 649.999 342.333 649.999 453v61c0 130 -50 195 -150 195h-100c-94.667 0 -144.667 -59.667 -150 -179c46.667 -24 70 -62.667 70 -116c0 -78 -61.667 -117 -185 -117c-23.333 0 -45.666 5.16699 -66.999 15.5s-38 24.833 -50 43.5
s-18 38 -18 58v143h2c16 173.333 148.667 260 398 260h100c266.667 0 400 -101 400 -303v-61c0 -130 -216.667 -283 -650 -459v-174c0 -130 50 -195 150 -195h100c100 0 150 65 150 195v167l186 105h64v-272c0 -202 -133.333 -303 -400 -303h-100
c-266.667 0 -400 101 -400 303v180z" />
    <glyph glyph-name="uni1782" unicode="&#x1782;" horiz-adv-x="1300" 
d="M450 376c29.333 33.333 63.998 55.334 103.998 66.001c16 4.66699 31 7 45 7c58.667 0 98.334 -38.667 119.001 -116c4 -14.667 6 -28 6 -40c0 -46.667 -28 -77.667 -84 -93c-6.66699 27.333 -23.667 41 -51 41c-9.33301 0 -19.666 -1.66699 -30.999 -5
c-42 -10.667 -78 -74.334 -108 -191.001l-10 -45h-240v650c0 168.667 133.333 253 400 253h100c266.667 0 400 -84.333 400 -253v-650h-250v650c0 102 -50 153 -150 153h-100c-100 0 -150 -51 -150 -153v-274zM251.998 850.001
c-101.333 31.333 -151.999 97.667 -151.999 199c0 51.333 40.333 106 121 164s138.334 87 173.001 87c26 0 74.333 -29 145 -87l53 -41c23.333 -16.667 42.666 -25 57.999 -25s32.333 8.33301 51 25l62 54c59.333 49.333 101 74 125 74c23.333 0 54.666 -18.333 93.999 -55
l116 -112c20 -21.333 39 -32 57 -32c17.333 0 32.333 5 45 15c-33.333 -106 -78.333 -159 -135 -159c-44 0 -81.667 14.667 -113 44l-63 57c-29.333 24.667 -52.333 37 -69 37c-15.333 0 -47.5 -23 -96.5 -69s-86.833 -69 -113.5 -69c-48.667 0 -90 14.667 -124 44l-71 60
c-32.667 22.667 -58.667 34 -78 34c-22 0 -42 -4.5 -60 -13.5s-27 -24.833 -27 -47.5c0 -14 37.333 -44 112 -90z" />
    <glyph glyph-name="uni1783" unicode="&#x1783;" horiz-adv-x="1950" 
d="M300 1052c0 56.667 -16.667 85 -50 85s-50 -31.333 -50 -94c0 -53.333 16.667 -80 50 -80s50 29.667 50 89zM850 817c0 61.333 -44.001 101.334 -132.001 120.001c12 58 42.833 133 92.5 225s90.5 138 122.5 138c25.333 0 59 -12.333 101 -37l60 -38
c18.667 -10.667 40.334 -16 65.001 -16c12.667 0 26.334 1.33301 41.001 4c-6 -40 -20 -82.667 -42 -128s-47.333 -70 -76 -74h-10c-28.667 0 -65.334 12 -110.001 36c-24 12 -43.667 18 -59 18c-20 0 -34.333 -9.33301 -43 -28l-22 -51c174.667 -33.333 262 -73 262 -119
v-564c0 -135.333 66.667 -203 200 -203s200 67.667 200 203v514c0 61.333 -44 101.333 -132 120c12 58 42.833 133 92.5 225s90.5 138 122.5 138c25.333 0 59 -12.333 101 -37l60 -38c18.667 -10.667 40.334 -16 65.001 -16c12.667 0 26.334 1.33301 41.001 4
c-6 -40 -20 -82.667 -42 -128s-47.333 -70 -76 -74h-10c-28.667 0 -65.334 12 -110.001 36c-24 12 -43.667 18 -59 18c-20 0 -34.333 -9.33301 -43 -28l-22 -51c174.667 -33.333 262 -73 262 -119v-564c0 -202 -150 -303 -450 -303c-158.667 0 -267 29.333 -325 88
c-58 -58.667 -166.333 -88 -325 -88c-300 0 -450 101 -450 303v217c0 140.667 16.667 242 50 304c7.33301 13.333 13.666 27.666 18.999 42.999h-19c-100 0 -150 58.667 -150 176c0 171.333 66.667 257 200 257s200 -82.667 200 -248c0 -86 -8.33301 -167 -25 -243
s-25 -172.333 -25 -289v-217c0 -135.333 66.667 -203 200 -203s200 67.667 200 203v514z" />
    <glyph glyph-name="uni1784" unicode="&#x1784;" horiz-adv-x="1300" 
d="M830 1120c0 40 -13.333 60 -40 60s-40 -20 -40 -60c0 -22.667 11 -42.334 33 -59.001c31.333 14.667 47 34.334 47 59.001zM850 700c0 72 -2.66895 117.497 -8.00195 136.497s-20 36.5 -44 52.5c-74.667 -59.333 -150.667 -89 -228 -89c-98.667 0 -185 24 -259 72
s-111 114 -111 198c0 50 8.33301 90.833 25 122.5s25 74.167 25 127.5s-33.333 80 -100 80c0 66.667 43.333 100 130 100c146.667 0 220 -60 220 -180c0 -50 -8.33301 -90.833 -25 -122.5s-25 -74.167 -25 -127.5c0 -46 15 -77.5 45 -94.5s55 -25.5 75 -25.5
c42.667 0 84.334 15.333 125.001 46c-70 32 -105 73.333 -105 124c0 120 66.667 180 200 180c146.667 0 220 -60 220 -180c0 -51.333 -36 -100.666 -108 -147.999l43 -22c103.333 -58 155 -141.333 155 -250v-700h-250l-200 193l-200 -193h-250v470
c-66.667 22.667 -100 57.334 -100 104.001s13.333 84.334 40 113.001s63.334 43 110.001 43h100c66.667 0 100 -28.667 100 -86v-482l198 195l202 -195v538z" />
    <glyph glyph-name="uni1785" unicode="&#x1785;" horiz-adv-x="1300" 
d="M450 877v-574.001c0 -135.333 50 -203 150 -203h100c100 0 150 67.667 150 203v317c-66.667 23.333 -100 58 -100 104s13.333 83.5 40 112.5s63.334 43.5 110.001 43.5h100c66.667 0 100 -29 100 -87v-490c0 -202 -133.333 -303 -400 -303h-100
c-266.667 0 -400 101 -400 303v568c-66.667 36.667 -100 96 -100 178c0 51.333 40.333 106 121 164s138.334 87 173.001 87c26 0 74.333 -29 145 -87l53 -41c23.333 -16.667 42.666 -25 57.999 -25s32.333 8.33301 51 25l62 54c59.333 49.333 101 74 125 74
c23.333 0 54.666 -18.333 93.999 -55l116 -112c20 -21.333 39 -32 57 -32c17.333 0 32.333 5 45 15c-33.333 -106 -78.333 -159 -135 -159c-44 0 -81.667 14.667 -113 44l-63 57c-29.333 24.667 -52.333 37 -69 37c-15.333 0 -47.5 -23 -96.5 -69s-86.833 -69 -113.5 -69
c-48.667 0 -90 14.667 -124 44l-71 60c-32.667 22.667 -58.667 34 -78 34c-22 0 -42 -4.5 -60 -13.5s-27 -24.833 -27 -47.5c0 -27.333 66.667 -79.666 200 -156.999z" />
    <glyph glyph-name="uni1786" unicode="&#x1786;" horiz-adv-x="1300" 
d="M850 608l0.000976562 141.999c-6.66699 0 -18.334 -7.16699 -35.001 -21.5s-25 -33.166 -25 -56.499s6.33301 -40 19 -50c9.33301 -8 23 -12.667 41 -14zM450.001 432.999c166.667 0 250.001 -72.002 250.001 -216.002c0 -78 26.667 -117 80 -117c46.667 0 70 39 70 117
v290c-51.333 2.66699 -90 17.334 -116 44.001c-29.333 28.667 -44 69 -44 121s16.667 99.667 50 143s70 65 110 65h150c66.667 0 100 -43.333 100 -130v-533c0 -144.667 -106.667 -217 -320 -217c-153.333 0 -230 72.333 -230 217c0 77.333 -33.333 116 -100 116v-160
c0 -115.333 -35 -173 -105 -173h-105c-93.333 0 -140 95.333 -140 286c0 70 33.333 116.333 100 139v446c-66.667 36.667 -100 96 -100 178c0 51.333 40.333 106 121 164s138.334 87 173.001 87c26 0 74.333 -29 145 -87l53 -41c23.333 -16.667 42.666 -25 57.999 -25
s32.333 8.33301 51 25l62 54c59.333 49.333 101 74 125 74c23.333 0 54.666 -18.333 93.999 -55l116 -112c20 -21.333 39 -32 57 -32c17.333 0 32.333 5 45 15c-33.333 -106 -78.333 -159 -135 -159c-44 0 -81.667 14.667 -113 44l-63 57c-29.333 24.667 -52.333 37 -69 37
c-15.333 0 -47.5 -23 -96.5 -69s-86.833 -69 -113.5 -69c-48.667 0 -90 14.667 -124 44l-71 60c-32.667 22.667 -58.667 34 -78 34c-22 0 -42 -4.5 -60 -13.5s-27 -24.833 -27 -47.5c0 -27.333 66.667 -79.666 200 -156.999v-444z" />
    <glyph glyph-name="uni1787" unicode="&#x1787;" horiz-adv-x="1300" 
d="M200 891c-66.667 28 -99.998 80.332 -99.998 156.999c0 48 33.667 102 101 162s128.333 90 183 90c59.333 0 135.333 -25.667 228 -77s162 -77 208 -77c41.333 0 73.333 5 96 15s34 34.333 34 73c0 44 -16.667 66 -50 66c-66.667 0 -100 35.667 -100 107
c0 72 33.333 108 100 108c133.333 0 200 -79.333 200 -238c0 -79.333 -26.833 -147.5 -80.5 -204.5s-136.834 -85.5 -249.501 -85.5c-101.333 0 -204.333 19 -309 57c-50 30.667 -91.333 46 -124 46c-28.667 0 -50.334 -7 -65.001 -21s-22 -30 -22 -48
c0 -17.333 66.667 -53.666 200 -108.999v-740l198 185l202 -195v718h250v-880h-250l-200 193l-200 -193h-250v891z" />
    <glyph glyph-name="uni1788" unicode="&#x1788;" horiz-adv-x="2600" 
d="M450 100c33.333 0 58.332 12.167 74.999 36.5s25 65.5 25 123.5c0 28.667 -6.16699 48 -18.5 58s-31.166 15 -56.499 15h-25v-233zM2150 817c0 61.333 -44.001 101.333 -132.001 120c12 58 42.833 133 92.5 225s90.5 138 122.5 138c25.333 0 59 -12.333 101 -37l60 -38
c18.667 -10.667 40.334 -16 65 -16c12.667 0 26.334 1.33301 41 4c-6 -40 -20 -82.667 -42 -128s-47.333 -70 -76 -74h-10c-28.667 0 -65.334 12 -110.001 36c-24 12 -43.667 18 -59 18c-20 0 -34.333 -9.33301 -43 -28l-22 -51c174.667 -33.333 262 -73 262 -119v-564
c0 -202 -133.333 -303 -400 -303h-100c-117.333 0 -209 19.667 -275 59c-66 -39.333 -157.667 -59 -275 -59h-100c-266.667 0 -400 101 -400 303v694c0 135.333 -50 203 -150 203h-100c-100 0 -150 -67.667 -150 -203v-564h25c58.667 0 102.334 -14.333 131.001 -43
c29.333 -28.667 44 -72 44 -130c0 -86.667 -16.667 -151.667 -50 -195s-83.333 -65 -150 -65h-150c-66.667 -0 -100 43.333 -100 130v867c0 202 133.333 303 400 303h100c266.667 0 400 -101 400 -303v-694c0 -135.333 50 -203 150 -203h100c100 0 150 67.667 150 203v514
c0 61.333 -44 101.333 -132 120c12 58 42.833 133 92.5 225s90.5 138 122.5 138c25.333 0 59 -12.333 101 -37l60 -38c18.667 -10.667 40.334 -16 65.001 -16c12.667 0 26.334 1.33301 41.001 4c-6 -40 -20 -82.667 -42 -128s-47.333 -70 -76 -74h-10
c-28.667 0 -65.334 12 -110.001 36c-24 12 -43.667 18 -59 18c-20 0 -34.333 -9.33301 -43 -28l-22 -51c174.667 -33.333 262 -73 262 -119v-564c0 -135.333 50 -203 150 -203h100c100 0 150 67.667 150 203v514z" />
    <glyph glyph-name="uni1789" unicode="&#x1789;" horiz-adv-x="1950" 
d="M1500 -266c0 35.333 -11.667 53 -35 53c-41.333 0 -62 19 -62 57c0 37.333 20.667 56 62 56c190 0 285 -55.333 285 -166c0 -92.667 -38.333 -166 -115 -220c-107.333 -76 -289.333 -114 -546 -114c-186.667 0 -351.334 32.667 -494.001 98
c-138 62.667 -256 155 -354 277c-27.333 28 -41 56 -41 84c0 27.333 17.333 41 52 41c67.333 0 111.333 -13.667 132 -41c96 -102 198.5 -170.667 307.5 -206s241.5 -53 397.5 -53c130.667 0 231.834 10.667 303.501 32s107.5 55.333 107.5 102zM450 100
c33.333 0 58.332 12.167 74.999 36.5s25 65.5 25 123.5c0 28.667 -6.16699 48 -18.5 58s-31.166 15 -56.499 15h-25v-233zM1100 0l-250.001 0.000976562v1000c0 72 -17.667 108 -53 108c-28 0 -75 -36 -141 -108c-66 72 -113 108 -141 108c-43.333 0 -65 -36 -65 -108v-567
h25c58.667 0 102.334 -14.333 131.001 -43c29.333 -28.667 44 -72 44 -130c0 -86.667 -16.667 -151.667 -50 -195s-83.333 -65 -150 -65h-150c-66.667 0 -100 43.333 -100 130v870c0 81.333 35 151.666 105 210.999s123 89 159 89c30 0 94 -44.667 192 -134
c98.667 89.333 163 134 193 134c36 0 89 -29.667 159 -89l30 -29c20.667 24 46.667 45 78 63c66 36.667 134.333 55 205 55c286 0 429 -100 429 -300v-1000h-250v1000c0 133.333 -59.667 200 -179 200c-65.333 0 -118.5 -17.667 -159.5 -53s-61.5 -84.333 -61.5 -147v-1000z
" />
    <glyph glyph-name="uni178A" unicode="&#x178a;" horiz-adv-x="1300" 
d="M660 1049c88 0 146.666 20.167 175.999 60.5s44 82.166 44 125.499c0 55.333 -26.667 83 -80 83c-46.667 0 -70 21.667 -70 65c0 44 40 66 120 66c166.667 0 250 -71.333 250 -214c0 -74.667 -33.5 -141 -100.5 -199s-180.167 -87 -339.5 -87c-34 0 -66 0.666992 -96 2
c-242.667 11.333 -364 69.333 -364 174c0 60 15.667 104.667 47 134c28.667 27.333 71.334 41 128.001 41c64 0 109.333 -10.667 136 -32c26 -21.333 39 -47.333 39 -78c0 -31.333 -7.33301 -59.666 -22 -84.999c18 -22 37 -36.833 57 -44.5s45 -11.5 75 -11.5zM199.999 863
h250v-691l198 185l202 -195v701h250v-863h-250l-200 193l-200 -193h-250v863z" />
    <glyph glyph-name="uni178B" unicode="&#x178b;" horiz-adv-x="1300" 
d="M300 1052c0 56.667 -16.667 85 -50 85s-50 -31.333 -50 -94c0 -53.333 16.667 -80 50 -80s50 29.667 50 89zM1100 303c0 -202 -133.331 -302.999 -399.998 -302.999h-100c-266.667 0 -400 101 -400 303v217c0 140.667 16.667 242 50 304
c7.33301 13.333 13.666 27.666 18.999 42.999h-19c-100 0 -150 58.667 -150 176c0 171.333 66.667 257 200 257s200 -82.667 200 -248c0 -86 -8.33301 -167 -25 -243s-25 -172.333 -25 -289v-217c0 -135.333 50 -203 150 -203h100c100 0 150 67.667 150 203v514
c0 61.333 -39.333 101.333 -118 120c10.667 58 39.334 133 86.001 225s87.667 138 123 138c27.333 0 60.666 -18 99.999 -54c10.667 -9.33301 19.667 -14 27 -14c6 0 11.333 2.66699 16 8c10.667 11.333 16 31.333 16 60s-24.333 43 -73 43c-60 0 -90 43.333 -90 130
c0 58 30 87 90 87c103.333 0 155 -86.667 155 -260h-2v-10c0 -78 -11.833 -146.333 -35.5 -205s-51.834 -88 -84.501 -88s-69.667 15.333 -111 46c-20 13.333 -36.667 20 -50 20c-14.667 0 -26 -8.66699 -34 -26l-22 -51c171.333 -33.333 257 -73 257 -119v-564z" />
    <glyph glyph-name="uni178C" unicode="&#x178c;" horiz-adv-x="1300" 
d="M1100 -100h-250v222c-74 -81.333 -173.667 -122 -299 -122c-234 0 -351 86.667 -351 260v231l315 136c223.333 90.667 335 185 335 283v130c0 62.667 -20 94 -60 94c-28 0 -74.667 -31.333 -140 -94c-64.667 62.667 -111 94 -139 94c-40.667 0 -61 -31.333 -61 -94v-65
c50.667 0 87 -9 109 -27c22 -18.667 33 -45.667 33 -81c0 -86.667 -44.333 -130 -133 -130c-172.667 0 -259 28.667 -259 86v217c0 70.667 34.5 131.667 103.5 183s121.167 77 156.5 77c30 0 93.333 -38.667 190 -116c97.333 77.333 161 116 191 116
c35.333 0 87.333 -25.667 156 -77s103 -112.333 103 -183v-130c0 -110 -157.333 -232.333 -472 -367l-178 -78v-205c0 -106 33.667 -159 101 -159c102 0 201.667 61.333 299 184v200l250 87v-672z" />
    <glyph glyph-name="uni178D" unicode="&#x178d;" horiz-adv-x="1950" 
d="M450 100c13.333 0 28.333 12.167 45 36.5s25 65.5 25 123.5c0 28.667 -6.16699 48 -18.5 58s-29.5 15 -51.5 15v-233zM1750 217c0 -144.667 -106.668 -217 -320.001 -217c-153.333 -0 -230 72.333 -230 217c0 77.333 -33.333 116 -100 116v-160
c0 -115.333 -35 -173 -105 -173h-105c-86.667 -0 -130 95.333 -130 286c0 70 30 116.333 90 139v575c0 72 -20 108 -60 108c-28 0 -74.667 -36 -140 -108c-64.667 72 -111 108 -139 108c-40.667 0 -61 -36 -61 -108v-567c55.333 0 97.333 -14.333 126 -43
c29.333 -28.667 44 -72 44 -130c0 -86.667 -16.667 -151.667 -50 -195s-73.333 -65 -120 -65h-150c-66.667 -0 -100 43.333 -100 130v870c0 81.333 34.5 151.666 103.5 210.999s121.167 89 156.5 89c30 0 93.333 -44.667 190 -134c97.333 89.333 161 134 191 134
c35.333 0 87.333 -29.667 156 -89s103 -129.666 103 -210.999v-567c166.667 0 250 -72 250 -216c0 -78 26.667 -117 80 -117c46.667 0 70 39 70 117v600c0 61.333 -44 101.333 -132 120c12 58 42.833 133 92.5 225s90.5 138 122.5 138c25.333 0 59 -12.333 101 -37l60 -38
c18.667 -10.667 40.334 -16 65.001 -16c12.667 0 26.334 1.33301 41.001 4c-6 -40 -20 -82.667 -42 -128s-47.333 -70 -76 -74h-10c-28.667 0 -65.334 12 -110.001 36c-24 12 -43.667 18 -59 18c-20 0 -34.333 -9.33301 -43 -28l-22 -51c174.667 -33.333 262 -73 262 -119
v-650z" />
    <glyph glyph-name="uni178E" unicode="&#x178e;" horiz-adv-x="2600" 
d="M450 100c33.333 0 58.332 12.167 74.999 36.5s25 65.5 25 123.5c0 28.667 -6.16699 48 -18.5 58s-31.166 15 -56.499 15h-25v-233zM2400 0h-250.001v997c0 135.333 -50 203 -150 203h-100c-100 0 -150 -67.667 -150 -203v-997h-250l-200 193l-200 -193h-250v997
c0 135.333 -50 203 -150 203h-100c-100 0 -150 -67.667 -150 -203v-564h25c58.667 0 102.334 -14.333 131.001 -43c29.333 -28.667 44 -72 44 -130c0 -86.667 -16.667 -151.667 -50 -195s-83.333 -65 -150 -65h-150c-66.667 -0 -100 43.333 -100 130v867
c0 202 133.333 303 400 303h100c266.667 0 400 -101 400 -303v-825l198 185l202 -195v835c0 202 133.333 303 400 303h100c266.667 0 400 -101 400 -303v-997z" />
    <glyph glyph-name="uni178F" unicode="&#x178f;" horiz-adv-x="1300" 
d="M450 433h24.999c58.667 0 102.334 -14.333 131.001 -43c29.333 -28.667 44 -72 44 -130c0 -86.667 -16.667 -151.667 -50 -195s-83.333 -65 -150 -65h-150c-66.667 -0 -100 43.333 -100 130v520c0 168.667 133.333 253 400 253h100c266.667 0 400 -84.333 400 -253v-650
h-250v650c0 102 -50 153 -150 153h-100c-100 0 -150 -51 -150 -153v-217zM449.999 100c33.333 0 58.332 12.167 74.999 36.5s25 65.5 25 123.5c0 28.667 -6.16699 48 -18.5 58s-31.166 15 -56.499 15h-25v-233zM251.998 850c-101.333 31.333 -151.999 97.667 -151.999 199
c0 51.333 40.333 106 121 164s138.334 87 173.001 87c26 0 74.333 -29 145 -87l53 -41c23.333 -16.667 42.666 -25 57.999 -25s32.333 8.33301 51 25l62 54c59.333 49.333 101 74 125 74c23.333 0 54.666 -18.333 93.999 -55l116 -112c20 -21.333 39 -32 57 -32
c17.333 0 32.333 5 45 15c-33.333 -106 -78.333 -159 -135 -159c-44 0 -81.667 14.667 -113 44l-63 57c-29.333 24.667 -52.333 37 -69 37c-15.333 0 -47.5 -23 -96.5 -69s-86.833 -69 -113.5 -69c-48.667 0 -90 14.667 -124 44l-71 60c-32.667 22.667 -58.667 34 -78 34
c-22 0 -42 -4.5 -60 -13.5s-27 -24.833 -27 -47.5c0 -14 37.333 -44 112 -90z" />
    <glyph glyph-name="uni1790" unicode="&#x1790;" horiz-adv-x="1300" 
d="M450 303c0 -135.333 50.001 -203.001 150.001 -203.001h100c100 0 150 67.667 150 203v317c-66.667 23.333 -100 58 -100 104s13.333 83.5 40 112.5s63.334 43.5 110.001 43.5h100c66.667 0 100 -29 100 -87v-490c0 -202 -133.333 -303 -400 -303h-100
c-266.667 0 -400 101 -400 303v588c-66.667 28 -100 80.333 -100 157c0 48 33.667 102 101 162s128.333 90 183 90c59.333 0 135.333 -25.667 228 -77s162 -77 208 -77c41.333 0 73.333 5 96 15s34 34.333 34 73c0 44 -16.667 66 -50 66c-66.667 0 -100 35.667 -100 107
c0 72 33.333 108 100 108c133.333 0 200 -79.333 200 -238c0 -79.333 -26.833 -147.5 -80.5 -204.5s-136.834 -85.5 -249.501 -85.5c-101.333 0 -204.333 19 -309 57c-50 30.667 -91.333 46 -124 46c-28.667 0 -50.334 -7 -65.001 -21s-22 -30 -22 -48
c0 -17.333 66.667 -53.666 200 -108.999v-609z" />
    <glyph glyph-name="uni1791" unicode="&#x1791;" horiz-adv-x="1300" 
d="M450 880c0 -195.333 116.666 -293 349.999 -293c0 106.667 50 160 150 160s150 -46.667 150 -140c0 -80 -33.333 -120 -100 -120l50 -87v-140c0 -173.333 -133.333 -260 -400 -260s-400 86.667 -400 260v147h250v-147c0 -106.667 50 -160 150 -160s150 53.333 150 160
v227c-400 0 -600 131 -600 393v117c0 202 133.333 303 400 303h100c249.333 0 382.666 -72.333 399.999 -217v-125c0 -20.667 -6 -40.167 -18 -58.5s-28.667 -32.666 -50 -42.999s-43.666 -15.5 -66.999 -15.5c-56.667 0 -95.667 5.16699 -117 15.5s-38 24.666 -50 42.999
s-18 37.833 -18 58.5c0 20 6.83301 40.667 20.5 62s27.834 33.333 42.501 36h7c-5.33301 96 -55.333 144 -150 144h-100c-100 0 -150 -67.667 -150 -203v-117z" />
    <glyph glyph-name="uni1792" unicode="&#x1792;" horiz-adv-x="1300" 
d="M450 172l198 184.999l202 -195v458c-66.667 23.333 -100 58 -100 104s13.333 83.5 40 112.5s63.334 43.5 110.001 43.5h100c66.667 0 100 -29 100 -87v-793h-250l-200 193l-200 -193h-250v871c-66.667 36.667 -100 96 -100 178c0 51.333 40.333 106 121 164
s138.334 87 173.001 87c26 0 74.333 -29 145 -87l53 -41c23.333 -16.667 42.666 -25 57.999 -25s32.333 8.33301 51 25l62 54c59.333 49.333 101 74 125 74c23.333 0 54.666 -18.333 93.999 -55l116 -112c20 -21.333 39 -32 57 -32c17.333 0 32.333 5 45 15
c-33.333 -106 -78.333 -159 -135 -159c-44 0 -81.667 14.667 -113 44l-63 57c-29.333 24.667 -52.333 37 -69 37c-15.333 0 -47.5 -23 -96.5 -69s-86.833 -69 -113.5 -69c-48.667 0 -90 14.667 -124 44l-71 60c-32.667 22.667 -58.667 34 -78 34c-22 0 -42 -4.5 -60 -13.5
s-27 -24.833 -27 -47.5c0 -27.333 66.667 -79.666 200 -156.999v-705z" />
    <glyph glyph-name="uni1793" unicode="&#x1793;" horiz-adv-x="1300" 
d="M200 520l250 0.000976562v-152c60 -28 110.667 -79.667 152 -155s95.666 -113 162.999 -113c56.667 0 85 53.333 85 160v237l-164 54c-324 107.333 -486 241.333 -486 402v44c0 202 133.333 303 400 303h100c249.333 0 382.666 -86.667 399.999 -260v-143
c0 -20 -6 -39.333 -18 -58s-28.667 -33.167 -50 -43.5s-43.666 -15.5 -66.999 -15.5c-56.667 0 -95.667 5.16699 -117 15.5s-38 24.833 -50 43.5s-18 38 -18 58c0 40 6.83301 68.667 20.5 86s27.834 27 42.501 29l7 1c-5.33301 124.667 -55.333 187 -150 187h-100
c-100 0 -150 -67.667 -150 -203v-44c0 -137.333 90.667 -238 272 -302l378 -126v-265c0 -173.333 -111.667 -260 -335 -260c-80.667 0 -143 21.667 -187 65s-86.667 78.666 -128 105.999v-171h-250v520z" />
    <glyph glyph-name="uni1794" unicode="&#x1794;" horiz-adv-x="1300" 
d="M850 817c0 61.333 -44.002 101.333 -132.002 120c12 58 42.833 133 92.5 225s90.5 138 122.5 138c25.333 0 59 -12.333 101 -37l60 -38c18.667 -10.667 40.334 -16 65.001 -16c12.667 0 26.334 1.33301 41.001 4c-6 -40 -20 -82.667 -42 -128s-47.333 -70 -76 -74h-10
c-28.667 0 -65.334 12 -110.001 36c-24 12 -43.667 18 -59 18c-20 0 -34.333 -9.33301 -43 -28l-22 -51c174.667 -33.333 262 -73 262 -119v-564c0 -202 -133.333 -303 -400 -303h-100c-266.667 0 -400 101 -400 303v514c0 61.333 -44 101.333 -132 120
c12 58 42.833 133 92.5 225s90.5 138 122.5 138c25.333 0 59 -12.333 101 -37l60 -38c18.667 -10.667 40.334 -16 65.001 -16c12.667 0 26.334 1.33301 41.001 4c-6 -40 -20 -82.667 -42 -128s-47.333 -70 -76 -74h-10c-28.667 0 -65.334 12 -110.001 36
c-24 12 -43.667 18 -59 18c-20 0 -34.333 -9.33301 -43 -28l-22 -51c174.667 -33.333 262 -73 262 -119v-564c0 -135.333 50 -203 150 -203h100c100 0 150 67.667 150 203v514z" />
    <glyph glyph-name="uni1795" unicode="&#x1795;" horiz-adv-x="1300" 
d="M850 608l0.000976562 141.999c-6.66699 0 -18.334 -7.16699 -35.001 -21.5s-25 -33.166 -25 -56.499s6.33301 -40 19 -50c9.33301 -8 23 -12.667 41 -14zM450.001 171.999l198.002 184.998l202 -195v345c-51.333 2.66699 -90 17.334 -116 44.001
c-29.333 28.667 -44 69 -44 121s16.667 99.667 50 143s70 65 110 65h150c66.667 0 100 -43.333 100 -130v-750h-250l-200 193l-200 -193h-250v891c-66.667 28 -100 80.333 -100 157c0 48 33.667 102 101 162s128.333 90 183 90c59.333 0 135.333 -25.667 228 -77
s162 -77 208 -77c41.333 0 73.333 5 96 15s34 34.333 34 73c0 44 -16.667 66 -50 66c-66.667 0 -100 35.667 -100 107c0 72 33.333 108 100 108c133.333 0 200 -79.333 200 -238c0 -79.333 -26.833 -147.5 -80.5 -204.5s-136.834 -85.5 -249.501 -85.5
c-101.333 0 -204.333 19 -309 57c-50 30.667 -91.333 46 -124 46c-28.667 0 -50.334 -7 -65.001 -21s-22 -30 -22 -48c0 -17.333 66.667 -53.666 200 -108.999v-740z" />
    <glyph glyph-name="uni1796" unicode="&#x1796;" horiz-adv-x="1300" 
d="M450 100c33.333 0 58.332 12.167 74.999 36.5s25 65.5 25 123.5c0 28.667 -6.16699 48 -18.5 58s-31.166 15 -56.499 15h-25v-233zM449.999 433h24.999c58.667 0 102.334 -14.333 131.001 -43c29.333 -28.667 44 -72 44 -130c0 -86.667 -16.667 -151.667 -50 -195
s-83.333 -65 -150 -65h-150c-66.667 -0 -100 43.333 -100 130v870c0 81.333 34.5 151.666 103.5 210.999s121.167 89 156.5 89c30 0 93.333 -44.667 190 -134c97.333 89.333 161 134 191 134c35.333 0 87.333 -29.667 156 -89s103 -129.666 103 -210.999v-1000h-250v1000
c0 72 -20 108 -60 108c-28 0 -74.667 -36 -140 -108c-64.667 72 -111 108 -139 108c-40.667 0 -61 -36 -61 -108v-567z" />
    <glyph glyph-name="uni1797" unicode="&#x1797;" horiz-adv-x="1300" 
d="M292 333l-42 0.000976562c-33.333 0 -50 -38.667 -50 -116c0 -56 16.667 -84 50 -84s50 38.333 50 115c0 35.333 -2.66699 63.666 -8 84.999zM850 650.001c0 102 -50.001 153.001 -150.001 153.001h-100c-100 0 -150 -51 -150 -153c0 -30 8.33301 -83 25 -159
s25 -157 25 -243c0 -165.333 -73.333 -248 -220 -248c-120 0 -180 72.333 -180 217c0 144 50 216 150 216h19c-5.33301 15.333 -11.666 29.666 -18.999 42.999c-33.333 62 -50 120 -50 174c0 168.667 133.333 253 400 253h100c266.667 0 400 -84.333 400 -253v-650h-250v650
zM251.999 850.002c-101.333 31.333 -151.999 97.667 -151.999 199c0 51.333 40.333 106 121 164s138.334 87 173.001 87c26 0 74.333 -29 145 -87l53 -41c23.333 -16.667 42.666 -25 57.999 -25s32.333 8.33301 51 25l62 54c59.333 49.333 101 74 125 74
c23.333 0 54.666 -18.333 93.999 -55l116 -112c20 -21.333 39 -32 57 -32c17.333 0 32.333 5 45 15c-33.333 -106 -78.333 -159 -135 -159c-44 0 -81.667 14.667 -113 44l-63 57c-29.333 24.667 -52.333 37 -69 37c-15.333 0 -47.5 -23 -96.5 -69s-86.833 -69 -113.5 -69
c-48.667 0 -90 14.667 -124 44l-71 60c-32.667 22.667 -58.667 34 -78 34c-22 0 -42 -4.5 -60 -13.5s-27 -24.833 -27 -47.5c0 -14 37.333 -44 112 -90z" />
    <glyph glyph-name="uni1798" unicode="&#x1798;" horiz-adv-x="1300" 
d="M450 700h399.998v117c0 61.333 -44 101.333 -132 120c12 58 42.833 133 92.5 225s90.5 138 122.5 138c25.333 0 59 -12.333 101 -37l60 -38c18.667 -10.667 40.334 -16 65.001 -16c12.667 0 26.334 1.33301 41.001 4c-6 -40 -20 -82.667 -42 -128s-47.333 -70 -76 -74
h-10c-28.667 0 -65.334 12 -110.001 36c-24 12 -43.667 18 -59 18c-20 0 -34.333 -9.33301 -43 -28l-22 -51c174.667 -33.333 262 -73 262 -119v-564c0 -202 -133.333 -303 -400 -303h-100c-266.667 0 -400 101 -400 303v514c0 61.333 -44 101.333 -132 120
c12 58 42.833 133 92.5 225s90.5 138 122.5 138c25.333 0 59 -12.333 101 -37l60 -38c18.667 -10.667 40.334 -16 65.001 -16c12.667 0 26.334 1.33301 41.001 4c-6 -40 -20 -82.667 -42 -128s-47.333 -70 -76 -74h-10c-28.667 0 -65.334 12 -110.001 36
c-24 12 -43.667 18 -59 18c-20 0 -34.333 -9.33301 -43 -28l-22 -51c174.667 -33.333 262 -73 262 -119v-167zM849.998 600h-400v-297c0 -135.333 50 -203 150 -203h100c100 0 150 67.667 150 203v297z" />
    <glyph glyph-name="uni1799" unicode="&#x1799;" horiz-adv-x="1950" 
d="M450 1167v-200c33.333 0 50 38.667 50 116c0 56 -16.667 84 -50 84zM1500 817c0 61.333 -44.002 101.333 -132.002 120c12 58 42.833 133 92.5 225s90.5 138 122.5 138c25.333 0 59 -12.333 101 -37l60 -38c18.667 -10.667 40.334 -16 65.001 -16
c12.667 0 26.334 1.33301 41.001 4c-6 -40 -20 -82.667 -42 -128s-47.333 -70 -76 -74h-10c-28.667 0 -65.334 12 -110.001 36c-24 12 -43.667 18 -59 18c-20 0 -34.333 -9.33301 -43 -28l-22 -51c174.667 -33.333 262 -73 262 -119v-564c0 -202 -150 -303 -450 -303
c-158.667 -0 -267 29.333 -325 88c-58 -58.667 -166.333 -88 -325 -88c-300 0 -450 101 -450 303v897c0 66.667 36.667 100 110 100h110c120 0 180 -72.333 180 -217c0 -144 -50 -216 -150 -216v-564c0 -135.333 66.667 -203 200 -203s200 67.667 200 203v514
c0 61.333 -44 101.333 -132 120c12 58 42.833 133 92.5 225s90.5 138 122.5 138c25.333 0 59 -12.333 101 -37l60 -38c18.667 -10.667 40.334 -16 65.001 -16c12.667 0 26.334 1.33301 41.001 4c-6 -40 -20 -82.667 -42 -128s-47.333 -70 -76 -74h-10
c-28.667 0 -65.334 12 -110.001 36c-24 12 -43.667 18 -59 18c-20 0 -34.333 -9.33301 -43 -28l-22 -51c174.667 -33.333 262 -73 262 -119v-564c0 -135.333 66.667 -203 200 -203s200 67.667 200 203v514z" />
    <glyph glyph-name="uni179A" unicode="&#x179a;" horiz-adv-x="650" 
d="M225 313c-16.667 0 -25 -32 -25 -96c0 -49.333 8.33301 -74 25 -74s25 35 25 105c0 43.333 -8.33301 65 -25 65zM200 817c0 61.333 -44.001 101.333 -132.001 120c12 58 42.833 133 92.5 225s90.5 138 122.5 138c25.333 0 59 -12.333 101 -37l60 -38
c18.667 -10.667 40.334 -16 65.001 -16c12.667 0 26.334 1.33301 41.001 4c-6 -40 -20 -82.667 -42 -128s-47.333 -70 -76 -74h-10c-28.667 0 -65.334 12 -110.001 36c-24 12 -43.667 18 -59 18c-20 0 -34.333 -9.33301 -43 -28l-22 -51c174.667 -33.333 262 -73 262 -119
v-739c0 -85.333 -28.333 -128 -85 -128h-125c-93.333 -0 -140 72.333 -140 217c0 117.333 33.333 187 100 209v391z" />
    <glyph glyph-name="uni179B" unicode="&#x179b;" horiz-adv-x="1950" 
d="M450 100c33.333 0 58.332 12.167 74.999 36.5s25 65.5 25 123.5c0 28.667 -6.16699 48 -18.5 58s-31.166 15 -56.499 15h-25v-233zM1750 303c0 -202 -133.335 -303 -400.002 -303h-100c-266.667 0 -400 101 -400 303v694c0 135.333 -50 203 -150 203h-100
c-100 0 -150 -67.667 -150 -203v-564h25c58.667 0 102.334 -14.333 131.001 -43c29.333 -28.667 44 -72 44 -130c0 -86.667 -16.667 -151.667 -50 -195s-83.333 -65 -150 -65h-150c-66.667 -0 -100 43.333 -100 130v867c0 202 133.333 303 400 303h100
c266.667 0 400 -101 400 -303v-694c0 -135.333 50 -203 150 -203h100c100 0 150 67.667 150 203v514c0 61.333 -44 101.333 -132 120c12 58 42.833 133 92.5 225s90.5 138 122.5 138c25.333 0 59 -12.333 101 -37l60 -38c18.667 -10.667 40.334 -16 65.001 -16
c12.667 0 26.334 1.33301 41.001 4c-6 -40 -20 -82.667 -42 -128s-47.333 -70 -76 -74h-10c-28.667 0 -65.334 12 -110.001 36c-24 12 -43.667 18 -59 18c-20 0 -34.333 -9.33301 -43 -28l-22 -51c174.667 -33.333 262 -73 262 -119v-564z" />
    <glyph glyph-name="uni179C" unicode="&#x179c;" horiz-adv-x="650" 
d="M225 313c-16.667 0 -25 -32 -25 -96c0 -49.333 8.33301 -74 25 -74s25 35 25 105c0 43.333 -8.33301 65 -25 65zM200 817c0 61.333 -39.332 101.333 -117.999 120c10.667 58 39.334 133 86.001 225s87.667 138 123 138c27.333 0 60.666 -18 99.999 -54
c10.667 -9.33301 19.667 -14 27 -14c6 0 11.333 2.66699 16 8c10.667 11.333 16 31.333 16 60s-24.333 43 -73 43c-60 0 -90 43.333 -90 130c0 58 30 87 90 87c103.333 0 155 -86.667 155 -260h-2v-10c0 -78 -11.833 -146.333 -35.5 -205s-51.834 -88 -84.501 -88
s-69.667 15.333 -111 46c-20 13.333 -36.667 20 -50 20c-14.667 0 -26 -8.66699 -34 -26l-22 -51c171.333 -33.333 257 -73 257 -119v-739c0 -85.333 -28.333 -128 -85 -128h-125c-93.333 -0 -140 72.333 -140 217c0 117.333 33.333 187 100 209v391z" />
    <glyph glyph-name="uni179D" unicode="&#x179d;" horiz-adv-x="1300" 
d="M1100 477l99.998 0.000976562v-100h-100v-377h-250v377h-100v100h100v173c0 102 -50 153 -150 153h-100c-100 0 -150 -51 -150 -153v-274c29.333 33.333 64 55.333 104 66c16 4.66699 31 7 45 7c58.667 0 98.334 -38.667 119.001 -116c4 -14.667 6 -28 6 -40
c0 -46.667 -28 -77.667 -84 -93c-6.66699 27.333 -23.667 41 -51 41c-9.33301 0 -19.666 -1.66699 -30.999 -5c-42 -10.667 -78 -74.334 -108 -191.001l-10 -45h-240v650c0 168.667 133.333 253 400 253h100c266.667 0 400 -84.333 400 -253v-173zM251.998 850.001
c-101.333 31.333 -151.999 97.667 -151.999 199c0 51.333 40.333 106 121 164s138.334 87 173.001 87c26 0 74.333 -29 145 -87l53 -41c23.333 -16.667 42.666 -25 57.999 -25s32.333 8.33301 51 25l62 54c59.333 49.333 101 74 125 74c23.333 0 54.666 -18.333 93.999 -55
l116 -112c20 -21.333 39 -32 57 -32c17.333 0 32.333 5 45 15c-33.333 -106 -78.333 -159 -135 -159c-44 0 -81.667 14.667 -113 44l-63 57c-29.333 24.667 -52.333 37 -69 37c-15.333 0 -47.5 -23 -96.5 -69s-86.833 -69 -113.5 -69c-48.667 0 -90 14.667 -124 44l-71 60
c-32.667 22.667 -58.667 34 -78 34c-22 0 -42 -4.5 -60 -13.5s-27 -24.833 -27 -47.5c0 -14 37.333 -44 112 -90z" />
    <glyph glyph-name="uni179E" unicode="&#x179e;" horiz-adv-x="1300" 
d="M850 515h-100.002v100h100v202c0 61.333 -44 101.333 -132 120c12 58 42.833 133 92.5 225s90.5 138 122.5 138c25.333 0 59 -12.333 101 -37l60 -38c18.667 -10.667 40.334 -16 65.001 -16c12.667 0 26.334 1.33301 41.001 4c-6 -40 -20 -82.667 -42 -128
s-47.333 -70 -76 -74h-10c-28.667 0 -65.334 12 -110.001 36c-24 12 -43.667 18 -59 18c-20 0 -34.333 -9.33301 -43 -28l-22 -51c174.667 -33.333 262 -73 262 -119v-252h100v-100h-100v-212c0 -202 -133.333 -303 -400 -303h-100c-266.667 0 -400 101 -400 303v514
c0 61.333 -44 101.333 -132 120c12 58 42.833 133 92.5 225s90.5 138 122.5 138c25.333 0 59 -12.333 101 -37l60 -38c18.667 -10.667 40.334 -16 65.001 -16c12.667 0 26.334 1.33301 41.001 4c-6 -40 -20 -82.667 -42 -128s-47.333 -70 -76 -74h-10
c-28.667 0 -65.334 12 -110.001 36c-24 12 -43.667 18 -59 18c-20 0 -34.333 -9.33301 -43 -28l-22 -51c174.667 -33.333 262 -73 262 -119v-564c0 -135.333 50 -203 150 -203h100c100 0 150 67.667 150 203v212z" />
    <glyph glyph-name="uni179F" unicode="&#x179f;" horiz-adv-x="1950" 
d="M450 100c33.333 0 58.332 12.167 74.999 36.5s25 65.5 25 123.5c0 28.667 -6.16699 48 -18.5 58s-31.166 15 -56.499 15h-25v-233zM1500 817c0 61.333 -44.001 101.332 -132.001 119.999c12 58 42.833 133 92.5 225s90.5 138 122.5 138c25.333 0 59 -12.333 101 -37
l60 -38c18.667 -10.667 40.334 -16 65.001 -16c12.667 0 26.334 1.33301 41.001 4c-6 -40 -20 -82.667 -42 -128s-47.333 -70 -76 -74h-10c-28.667 0 -65.334 12 -110.001 36c-24 12 -43.667 18 -59 18c-20 0 -34.333 -9.33301 -43 -28l-22 -51
c174.667 -33.333 262 -73 262 -119v-564c0 -202 -133.333 -303 -400 -303h-100c-266.667 0 -400 101 -400 303v347c0 135.333 -50 203 -150 203h-100c-100 0 -150 -67.667 -150 -203v-217h25c58.667 0 102.334 -14.333 131.001 -43c29.333 -28.667 44 -72 44 -130
c0 -86.667 -16.667 -151.667 -50 -195s-83.333 -65 -150 -65h-150c-66.667 0 -100 43.333 -100 130v520c0 145.333 69 238.333 207 279c-38 25.333 -100 46 -186 62c22.667 52.667 73.667 118.334 153 197.001c74.667 74 134 111 178 111h8
c35.333 -3.33301 81 -19.333 137 -48l80 -44c25.333 -12.667 55 -20.667 89 -24c18 -1.33301 37.333 -2 58 -2c-12.667 -36 -36.667 -73.667 -72 -113s-73.333 -59 -114 -59l-14 2c-40 4 -90 20.333 -150 49c-32.667 14 -59.667 22.333 -81 25h-6
c-26.667 0 -57.667 -15 -93 -45c105.333 -32 185.666 -61 240.999 -87h65c266.667 0 400 -101 400 -303v-347c0 -135.333 50 -203 150 -203h100c100 0 150 67.667 150 203v514z" />
    <glyph glyph-name="uni17A0" unicode="&#x17a0;" horiz-adv-x="1950" 
d="M450 303c0 -135.333 49.999 -203 149.999 -203h100c100 0 150 67.667 150 203v694c0 202 133.333 303 400 303h100c266.667 0 400 -101 400 -303v-997h-250v997c0 135.333 -50 203 -150 203h-100c-100 0 -150 -67.667 -150 -203v-694c0 -202 -133.333 -303 -400 -303
h-100c-266.667 0 -400 101 -400 303v514c0 61.333 -44 101.333 -132 120c12 58 42.833 133 92.5 225s90.5 138 122.5 138c25.333 0 59 -12.333 101 -37l60 -38c18.667 -10.667 40.334 -16 65.001 -16c12.667 0 26.334 1.33301 41.001 4c-6 -40 -20 -82.667 -42 -128
s-47.333 -70 -76 -74h-10c-28.667 0 -65.334 12 -110.001 36c-24 12 -43.667 18 -59 18c-20 0 -34.333 -9.33301 -43 -28l-22 -51c174.667 -33.333 262 -73 262 -119v-564z" />
    <glyph glyph-name="uni17A1" unicode="&#x17a1;" horiz-adv-x="1950" 
d="M800 -200c-33.333 0 -50 -16.667 -50 -50s16.667 -50 50 -50v100zM450 880c0 -195.333 116.666 -293 349.999 -293c0 106.667 50 160 150 160s150 -46.667 150 -140c0 -80 -33.333 -120 -100 -120l50 -87v-140c0 -173.333 -133.333 -260 -400 -260s-400 86.667 -400 260
v147h250v-147c0 -106.667 50 -160 150 -160s150 53.333 150 160v227c-400 0 -600 131 -600 393v117c0 202 133.333 303 400 303h100c249.333 0 382.666 -72.333 399.999 -217v-125c0 -20.667 -6 -40.167 -18 -58.5s-28.667 -32.666 -50 -42.999s-43.666 -15.5 -66.999 -15.5
c-56.667 0 -95.667 5.16699 -117 15.5s-38 24.666 -50 42.999s-18 37.833 -18 58.5c0 20 6.83301 40.667 20.5 62s27.834 33.333 42.501 36h7c-5.33301 96 -55.333 144 -150 144h-100c-100 0 -150 -67.667 -150 -203v-117zM1750 -650h-250.001l-225 165l-225 -165h-250v250
c-100 0 -150 50 -150 150s50 150 150 150h125c83.333 0 125 -33.333 125 -100v-301l225 165l225 -165v1318c0 61.333 -44 101.333 -132 120c12 58 42.833 133 92.5 225s90.5 138 122.5 138c25.333 0 59 -12.333 101 -37l60 -38c18.667 -10.667 40.334 -16 65.001 -16
c12.667 0 26.334 1.33301 41.001 4c-6 -40 -20 -82.667 -42 -128s-47.333 -70 -76 -74h-10c-28.667 0 -65.334 12 -110.001 36c-24 12 -43.667 18 -59 18c-20 0 -34.333 -9.33301 -43 -28l-22 -51c174.667 -33.333 262 -73 262 -119v-1517z" />
    <glyph glyph-name="uni17A2" unicode="&#x17a2;" horiz-adv-x="1300" 
d="M875 313c-16.667 0 -25 -32 -25 -96c0 -49.333 8.33301 -74 25 -74s25 35 25 105c0 43.333 -8.33301 65 -25 65zM225 313c-16.667 0 -25 -32 -25 -96c0 -49.333 8.33301 -74 25 -74s25 35 25 105c0 43.333 -8.33301 65 -25 65zM850 677l-0.00195312 140
c0 61.333 -44 101.333 -132 120c12 58 42.833 133 92.5 225s90.5 138 122.5 138c25.333 0 59 -12.333 101 -37l60 -38c18.667 -10.667 40.334 -16 65.001 -16c12.667 0 26.334 1.33301 41.001 4c-6 -40 -20 -82.667 -42 -128s-47.333 -70 -76 -74h-10
c-28.667 0 -65.334 12 -110.001 36c-24 12 -43.667 18 -59 18c-20 0 -34.333 -9.33301 -43 -28l-22 -51c174.667 -33.333 262 -73 262 -119v-739c0 -85.333 -28.333 -128 -85 -128h-125c-93.333 -0 -140 72.333 -140 217c0 117.333 33.333 187 100 209v151h-400v-449
c0 -85.333 -28.333 -128 -85 -128h-125c-93.333 -0 -140 72.333 -140 217c0 117.333 33.333 187 100 209v391c0 61.333 -44 101.333 -132 120c12 58 42.833 133 92.5 225s90.5 138 122.5 138c25.333 0 59 -12.333 101 -37l60 -38c18.667 -10.667 40.334 -16 65.001 -16
c12.667 0 26.334 1.33301 41.001 4c-6 -40 -20 -82.667 -42 -128s-47.333 -70 -76 -74h-10c-28.667 0 -65.334 12 -110.001 36c-24 12 -43.667 18 -59 18c-20 0 -34.333 -9.33301 -43 -28l-22 -51c174.667 -33.333 262 -73 262 -119v-190h400z" />
    <glyph glyph-name="uni17A3" unicode="&#x17a3;" horiz-adv-x="1300" 
d="M875 313c-16.667 0 -25 -32 -25 -96c0 -49.333 8.33301 -74 25 -74s25 35 25 105c0 43.333 -8.33301 65 -25 65zM225 313c-16.667 0 -25 -32 -25 -96c0 -49.333 8.33301 -74 25 -74s25 35 25 105c0 43.333 -8.33301 65 -25 65zM850 677l-0.00195312 140
c0 61.333 -44 101.333 -132 120c12 58 42.833 133 92.5 225s90.5 138 122.5 138c25.333 0 59 -12.333 101 -37l60 -38c18.667 -10.667 40.334 -16 65.001 -16c12.667 0 26.334 1.33301 41.001 4c-6 -40 -20 -82.667 -42 -128s-47.333 -70 -76 -74h-10
c-28.667 0 -65.334 12 -110.001 36c-24 12 -43.667 18 -59 18c-20 0 -34.333 -9.33301 -43 -28l-22 -51c174.667 -33.333 262 -73 262 -119v-739c0 -85.333 -28.333 -128 -85 -128h-125c-93.333 -0 -140 72.333 -140 217c0 117.333 33.333 187 100 209v151h-400v-449
c0 -85.333 -28.333 -128 -85 -128h-125c-93.333 -0 -140 72.333 -140 217c0 117.333 33.333 187 100 209v391c0 61.333 -44 101.333 -132 120c12 58 42.833 133 92.5 225s90.5 138 122.5 138c25.333 0 59 -12.333 101 -37l60 -38c18.667 -10.667 40.334 -16 65.001 -16
c12.667 0 26.334 1.33301 41.001 4c-6 -40 -20 -82.667 -42 -128s-47.333 -70 -76 -74h-10c-28.667 0 -65.334 12 -110.001 36c-24 12 -43.667 18 -59 18c-20 0 -34.333 -9.33301 -43 -28l-22 -51c174.667 -33.333 262 -73 262 -119v-190h400z" />
    <glyph glyph-name="uni17A4" unicode="&#x17a4;" horiz-adv-x="1950" 
d="M875 313c-16.667 0 -25 -32 -25 -96c0 -49.333 8.33301 -74 25 -74s25 35 25 105c0 43.333 -8.33301 65 -25 65zM225 313c-16.667 0 -25 -32 -25 -96c0 -49.333 8.33301 -74 25 -74s25 35 25 105c0 43.333 -8.33301 65 -25 65zM886.5 1192
c77.667 72 166.497 108 266.497 108c98 0 186.667 -17 266 -51c220.667 -92 331 -208.333 331 -349v-900h-250v900c0 36 -50.333 78.333 -151 127c-101.333 48 -183.333 72 -246 72c-63.333 0 -115.666 -9.33301 -156.999 -28c-42 -18.667 -71.333 -47 -88 -85
c161.333 -33.333 242 -73 242 -119v-739c0 -85.333 -28.333 -128 -85 -128h-125c-93.333 -0 -140 72.333 -140 217c0 117.333 33.333 187 100 209v151h-400v-449c0 -85.333 -28.333 -128 -85 -128h-125c-93.333 -0 -140 72.333 -140 217c0 117.333 33.333 187 100 209v391
c0 61.333 -44 101.333 -132 120c12 58 42.833 133 92.5 225s90.5 138 122.5 138c25.333 0 59 -12.333 101 -37l60 -38c18.667 -10.667 40.334 -16 65.001 -16c12.667 0 26.334 1.33301 41.001 4c-6 -40 -20 -82.667 -42 -128s-47.333 -70 -76 -74h-10
c-28.667 0 -65.334 12 -110.001 36c-24 12 -43.667 18 -59 18c-20 0 -34.333 -9.33301 -43 -28l-22 -51c174.667 -33.333 262 -73 262 -119v-190h400v140c0 61.333 -44 101.333 -132 120c34.667 98 90.834 183 168.501 255z" />
    <glyph glyph-name="uni17A5" unicode="&#x17a5;" horiz-adv-x="1300" 
d="M100 1044c0 48.667 33.6689 103.501 101.002 164.501s128.333 91.5 183 91.5c59.333 0 135.333 -26.167 228 -78.5s162 -78.5 208 -78.5c41.333 0 73.333 5.16699 96 15.5s34 35.166 34 74.499c0 44.667 -16.667 67 -50 67c-66.667 0 -100 36.333 -100 109
s33.333 109 100 109c133.333 0 200 -80.333 200 -241c0 -80.667 -26.833 -149.834 -80.5 -207.501s-136.834 -86.5 -249.501 -86.5c-101.333 0 -204.333 19.333 -309 58c-50 30 -91.333 45 -124 45c-28.667 0 -50.334 -7 -65.001 -21s-22 -30 -22 -48
c0 -13.333 37.333 -37.666 112 -72.999l-135 -76c-84.667 42 -127 100.667 -127 176zM450.002 433.001h24.999c58.667 0 102.334 -14.333 131.001 -43c29.333 -28.667 44 -72 44 -130c0 -86.667 -16.667 -151.667 -50 -195s-83.333 -65 -150 -65h-150
c-66.667 0 -100 43.333 -100 130v520c0 168.667 133.333 253 400 253h100c266.667 0 400 -84.333 400 -253v-650h-250v650c0 102 -50 153 -150 153h-100c-100 0 -150 -51 -150 -153v-217zM450.001 100.001c33.333 0 58.332 12.167 74.999 36.5s25 65.5 25 123.5
c0 28.667 -6.16699 48 -18.5 58s-31.166 15 -56.499 15h-25v-233z" />
    <glyph glyph-name="uni17A6" unicode="&#x17a6;" horiz-adv-x="1950" 
d="M450 -550c26.667 0 40 23 40 69c0 20.667 -13.333 31 -40 31v-100zM450 100c33.333 0 58.332 12.167 74.999 36.5s25 65.5 25 123.5c0 28.667 -6.16699 48 -18.5 58s-31.166 15 -56.499 15h-25v-233zM1100 0h-250.001v997c0 135.333 -50 203 -150 203h-100
c-100 0 -150 -67.667 -150 -203v-564h25c58.667 0 102.334 -14.333 131.001 -43c29.333 -28.667 44 -72 44 -130c0 -86.667 -16.667 -151.667 -50 -195s-83.333 -65 -150 -65h-150c-66.667 -0 -100 43.333 -100 130v867c0 202 133.333 303 400 303h100
c266.667 0 400 -101 400 -303v-997zM1750 -445c0 -136.667 -158.333 -205 -475 -205c-283.333 0 -425 68.333 -425 205v145c0 33.333 -12.5 58.333 -37.5 75s-79.167 25 -162.5 25s-137.5 -8.33301 -162.5 -25s-37.5 -41.667 -37.5 -75v-50c93.333 0 140 -43.333 140 -130
c0 -113.333 -46.667 -170 -140 -170h-100c-66.667 0 -100 33.333 -100 100v250c0 66.667 33.333 116.667 100 150s166.667 50 300 50s233.333 -16.667 300 -50s100 -83.333 100 -150v-145c0 -70 75 -105 225 -105s225 35 225 105v1815c0 120 -61.333 180 -184 180h-216
c-133.333 0 -200 57 -200 171c0 22 3.33301 44.5 10 67.5s10 51.833 10 86.5c0 20.667 -13.333 37.667 -40 51c0 49.333 35.333 74 106 74c122.667 0 184 -41.667 184 -125c0 -42 -3.33301 -72 -10 -90s-10 -39.333 -10 -64c0 -47.333 33.333 -71 100 -71h66
c289.333 0 434 -93.333 434 -280v-1815z" />
    <glyph glyph-name="uni17A7" unicode="&#x17a7;" horiz-adv-x="1300" 
d="M850 94c-5.33301 -3.33301 -11.0029 -6.33203 -17.0029 -8.99902c-49.333 -56.667 -110.333 -85 -183 -85c-101.333 0 -201.666 33.5 -300.999 100.5s-149 124.5 -149 172.5c0 89.333 75.667 166.333 227 231l287 151c90.667 40 136 126 136 258v84
c0 130 -50 195 -150 195h-100c-94.667 0 -144.667 -59.667 -150 -179c46.667 -24 70 -62.667 70 -116c0 -78 -61.667 -117 -185 -117c-23.333 0 -45.666 5.16699 -66.999 15.5s-38 24.833 -50 43.5s-18 38 -18 58v143h2c16 173.333 148.667 260 398 260h100
c266.667 0 400 -101 400 -303v-84c0 -140.667 -108 -261.334 -324 -362.001l-273 -152c-35.333 -18 -53 -60 -53 -126c0 -42.667 21.833 -71.667 65.5 -87s91.834 -23 144.501 -23c46.667 0 90 23.167 130 69.5s60 90.833 60 133.5v94l204 109h46v-669h-250v194z" />
    <glyph glyph-name="uni17A8" unicode="&#x17a8;" horiz-adv-x="1300" 
d="M252 1233c-101.333 36 -151.999 111.668 -151.999 227.001c0 58 40.333 120 121 186s138.334 99 173.001 99c26 0 74.333 -33.333 145 -100l53 -45c23.333 -19.333 42.666 -29 57.999 -29s32.333 9.66699 51 29l62 61c59.333 56 101 84 125 84
c23.333 0 54.666 -21 93.999 -63l116 -127c20 -24.667 39 -37 57 -37c17.333 0 32.333 5.66699 45 17c-33.333 -120 -78.333 -180 -135 -180c-44 0 -81.667 16.667 -113 50l-63 65c-29.333 28 -52.333 42 -69 42c-15.333 0 -47.5 -26.167 -96.5 -78.5
s-86.833 -78.5 -113.5 -78.5c-48.667 0 -90 16.667 -124 50l-71 68c-32.667 26 -58.667 39 -78 39c-22 0 -42 -5.33301 -60 -16s-27 -28.334 -27 -53.001c0 -16 37.333 -50.333 112 -103zM850.001 94.001c-5.33301 -3.33301 -11.0029 -6.33203 -17.0029 -8.99902
c-49.333 -56.667 -110.333 -85 -183 -85c-101.333 0 -201.666 33.5 -300.999 100.5s-149 124.5 -149 172.5c0 89.333 75.667 166.333 227 231l287 151c90.667 40 136 126 136 258v84c0 130 -50 195 -150 195h-100c-94.667 0 -144.667 -59.667 -150 -179
c46.667 -24 70 -62.667 70 -116c0 -78 -61.667 -117 -185 -117c-23.333 0 -45.666 5.16699 -66.999 15.5s-38 24.833 -50 43.5s-18 38 -18 58v143h2c16 173.333 148.667 260 398 260h100c266.667 0 400 -101 400 -303v-84c0 -140.667 -108 -261.334 -324 -362.001l-273 -152
c-35.333 -18 -53 -60 -53 -126c0 -42.667 21.833 -71.667 65.5 -87s91.834 -23 144.501 -23c46.667 0 90 23.167 130 69.5s60 90.833 60 133.5v94l204 109h46v-669h-250v194z" />
    <glyph glyph-name="uni17A9" unicode="&#x17a9;" horiz-adv-x="1300" 
d="M1200 550h150v-650h-150v650zM850 94c-5.33301 -3.33301 -11.0029 -6.33203 -17.0029 -8.99902c-49.333 -56.667 -110.333 -85 -183 -85c-101.333 0 -201.666 33.5 -300.999 100.5s-149 124.5 -149 172.5c0 89.333 75.667 166.333 227 231l287 151
c90.667 40 136 126 136 258v84c0 130 -50 195 -150 195h-100c-94.667 0 -144.667 -59.667 -150 -179c46.667 -24 70 -62.667 70 -116c0 -78 -61.667 -117 -185 -117c-23.333 0 -45.666 5.16699 -66.999 15.5s-38 24.833 -50 43.5s-18 38 -18 58v143h2
c16 173.333 148.667 260 398 260h100c266.667 0 400 -101 400 -303v-84c0 -140.667 -108 -261.334 -324 -362.001l-273 -152c-35.333 -18 -53 -60 -53 -126c0 -42.667 21.833 -71.667 65.5 -87s91.834 -23 144.501 -23c46.667 0 90 23.167 130 69.5s60 90.833 60 133.5v94
l204 109h46v-669h-250v194z" />
    <glyph glyph-name="uni17AA" unicode="&#x17aa;" horiz-adv-x="1300" 
d="M100 1421c0 52 33.6689 110.5 101.002 175.5s128.333 97.5 183 97.5c59.333 0 135.333 -27.833 228 -83.5s162 -83.5 208 -83.5c41.333 0 73.333 5.5 96 16.5s34 37.5 34 79.5c0 47.333 -16.667 71 -50 71c-66.667 0 -100 38.667 -100 116c0 78 33.333 117 100 117
c133.333 0 200 -86 200 -258c0 -85.333 -26.833 -159 -80.5 -221s-136.834 -93 -249.501 -93c-101.333 0 -204.333 20.667 -309 62c-50 32.667 -91.333 49 -124 49c-28.667 0 -50.334 -7.5 -65.001 -22.5s-22 -32.167 -22 -51.5c0 -14 37.333 -39.667 112 -77l-135 -82
c-84.667 45.333 -127 108 -127 188zM850.002 94c-5.33301 -3.33301 -11.0029 -6.33203 -17.0029 -8.99902c-49.333 -56.667 -110.333 -85 -183 -85c-101.333 0 -201.666 33.5 -300.999 100.5s-149 124.5 -149 172.5c0 89.333 75.667 166.333 227 231l287 151
c90.667 40 136 126 136 258v84c0 130 -50 195 -150 195h-100c-94.667 0 -144.667 -59.667 -150 -179c46.667 -24 70 -62.667 70 -116c0 -78 -61.667 -117 -185 -117c-23.333 0 -45.666 5.16699 -66.999 15.5s-38 24.833 -50 43.5s-18 38 -18 58v143h2
c16 173.333 148.667 260 398 260h100c266.667 0 400 -101 400 -303v-84c0 -140.667 -108 -261.334 -324 -362.001l-273 -152c-35.333 -18 -53 -60 -53 -126c0 -42.667 21.833 -71.667 65.5 -87s91.834 -23 144.501 -23c46.667 0 90 23.167 130 69.5s60 90.833 60 133.5v94
l204 109h46v-669h-250v194z" />
    <glyph glyph-name="uni17AB" unicode="&#x17ab;" horiz-adv-x="1300" 
d="M766 -164c0 42.667 43.332 64 129.999 64c80 0 137 -18 171 -54c22 -24.667 33 -56.334 33 -95.001c0 -20.667 -3 -43 -9 -67c-23.333 -92.667 -105.333 -171.667 -246 -237c-140.667 -66.667 -333.667 -100 -579 -100c-133.333 0 -200 14.333 -200 43
c162.667 20 285.167 38.5 367.5 55.5s167.333 51.333 255 103s138.834 102.834 153.501 153.501c2.66699 11.333 4 21.333 4 30c0 26.667 -13.333 40 -40 40s-40 21.333 -40 64zM849.999 817c0 61.333 -44.002 101.333 -132.002 120c12 58 42.833 133 92.5 225
s90.5 138 122.5 138c25.333 0 59 -12.333 101 -37l60 -38c18.667 -10.667 40.334 -16 65.001 -16c12.667 0 26.334 1.33301 41.001 4c-6 -40 -20 -82.667 -42 -128s-47.333 -70 -76 -74h-10c-28.667 0 -65.334 12 -110.001 36c-24 12 -43.667 18 -59 18
c-20 0 -34.333 -9.33301 -43 -28l-22 -51c174.667 -33.333 262 -73 262 -119v-564c0 -202 -133.333 -303 -400 -303h-100c-266.667 0 -400 101 -400 303v514c0 61.333 -44 101.333 -132 120c12 58 42.833 133 92.5 225s90.5 138 122.5 138c25.333 0 59 -12.333 101 -37
l60 -38c18.667 -10.667 40.334 -16 65.001 -16c12.667 0 26.334 1.33301 41.001 4c-6 -40 -20 -82.667 -42 -128s-47.333 -70 -76 -74h-10c-28.667 0 -65.334 12 -110.001 36c-24 12 -43.667 18 -59 18c-20 0 -34.333 -9.33301 -43 -28l-22 -51
c174.667 -33.333 262 -73 262 -119v-564c0 -135.333 50 -203 150 -203h100c100 0 150 67.667 150 203v514z" />
    <glyph glyph-name="uni17AC" unicode="&#x17ac;" horiz-adv-x="1300" 
d="M1025 -431c14.667 -27.333 39.666 -41.001 74.999 -41.001c66.667 0 100 -29.333 100 -88s-33.333 -88 -100 -88c-94 0 -155 44.333 -183 133c-22 -13.333 -46 -26 -72 -38c-140.667 -66.667 -333.667 -100 -579 -100c-133.333 0 -200 14.333 -200 43
c162.667 20 285.167 38.5 367.5 55.5s167.333 51.333 255 103s138.834 102.834 153.501 153.501c2.66699 11.333 4 21.333 4 30c0 26.667 -13.333 40 -40 40s-40 21.333 -40 64s43.333 64 130 64c80 0 137 -18 171 -54c22 -24.667 33 -56.334 33 -95.001
c0 -20.667 -3 -43 -9 -67c-10.667 -41.333 -32.667 -79.666 -66 -114.999zM849.999 816.999c0 61.333 -44.002 101.333 -132.002 120c12 58 42.833 133 92.5 225s90.5 138 122.5 138c25.333 0 59 -12.333 101 -37l60 -38c18.667 -10.667 40.334 -16 65.001 -16
c12.667 0 26.334 1.33301 41.001 4c-6 -40 -20 -82.667 -42 -128s-47.333 -70 -76 -74h-10c-28.667 0 -65.334 12 -110.001 36c-24 12 -43.667 18 -59 18c-20 0 -34.333 -9.33301 -43 -28l-22 -51c174.667 -33.333 262 -73 262 -119v-564c0 -202 -133.333 -303 -400 -303
h-100c-266.667 0 -400 101 -400 303v514c0 61.333 -44 101.333 -132 120c12 58 42.833 133 92.5 225s90.5 138 122.5 138c25.333 0 59 -12.333 101 -37l60 -38c18.667 -10.667 40.334 -16 65.001 -16c12.667 0 26.334 1.33301 41.001 4c-6 -40 -20 -82.667 -42 -128
s-47.333 -70 -76 -74h-10c-28.667 0 -65.334 12 -110.001 36c-24 12 -43.667 18 -59 18c-20 0 -34.333 -9.33301 -43 -28l-22 -51c174.667 -33.333 262 -73 262 -119v-564c0 -135.333 50 -203 150 -203h100c100 0 150 67.667 150 203v514z" />
    <glyph glyph-name="uni17AD" unicode="&#x17ad;" horiz-adv-x="1300" 
d="M766 -164c0 42.667 43.332 64 129.999 64c80 0 137 -18 171 -54c22 -24.667 33 -56.334 33 -95.001c0 -20.667 -3 -43 -9 -67c-23.333 -92.667 -105.333 -171.667 -246 -237c-140.667 -66.667 -333.667 -100 -579 -100c-133.333 0 -200 14.333 -200 43
c162.667 20 285.167 38.5 367.5 55.5s167.333 51.333 255 103s138.834 102.834 153.501 153.501c2.66699 11.333 4 21.333 4 30c0 26.667 -13.333 40 -40 40s-40 21.333 -40 64zM449.999 100c33.333 0 58.332 12.167 74.999 36.5s25 65.5 25 123.5
c0 28.667 -6.16699 48 -18.5 58s-31.166 15 -56.499 15h-25v-233zM449.998 433h24.999c58.667 0 102.334 -14.333 131.001 -43c29.333 -28.667 44 -72 44 -130c0 -86.667 -16.667 -151.667 -50 -195s-83.333 -65 -150 -65h-150c-66.667 -0 -100 43.333 -100 130v870
c0 81.333 34.5 151.666 103.5 210.999s121.167 89 156.5 89c30 0 93.333 -44.667 190 -134c97.333 89.333 161 134 191 134c35.333 0 87.333 -29.667 156 -89s103 -129.666 103 -210.999v-1000h-250v1000c0 72 -20 108 -60 108c-28 0 -74.667 -36 -140 -108
c-64.667 72 -111 108 -139 108c-40.667 0 -61 -36 -61 -108v-567z" />
    <glyph glyph-name="uni17AE" unicode="&#x17ae;" horiz-adv-x="1300" 
d="M1025 -431c14.667 -27.333 39.666 -41.001 74.999 -41.001c66.667 0 100 -29.333 100 -88s-33.333 -88 -100 -88c-94 0 -155 44.333 -183 133c-22 -13.333 -46 -26 -72 -38c-140.667 -66.667 -333.667 -100 -579 -100c-133.333 0 -200 14.333 -200 43
c162.667 20 285.167 38.5 367.5 55.5s167.333 51.333 255 103s138.834 102.834 153.501 153.501c2.66699 11.333 4 21.333 4 30c0 26.667 -13.333 40 -40 40s-40 21.333 -40 64s43.333 64 130 64c80 0 137 -18 171 -54c22 -24.667 33 -56.334 33 -95.001
c0 -20.667 -3 -43 -9 -67c-10.667 -41.333 -32.667 -79.666 -66 -114.999zM449.999 99.999c33.333 0 58.332 12.167 74.999 36.5s25 65.5 25 123.5c0 28.667 -6.16699 48 -18.5 58s-31.166 15 -56.499 15h-25v-233zM449.998 432.999h24.999
c58.667 0 102.334 -14.333 131.001 -43c29.333 -28.667 44 -72 44 -130c0 -86.667 -16.667 -151.667 -50 -195s-83.333 -65 -150 -65h-150c-66.667 0 -100 43.333 -100 130v870c0 81.333 34.5 151.666 103.5 210.999s121.167 89 156.5 89c30 0 93.333 -44.667 190 -134
c97.333 89.333 161 134 191 134c35.333 0 87.333 -29.667 156 -89s103 -129.666 103 -210.999v-1000h-250v1000c0 72 -20 108 -60 108c-28 0 -74.667 -36 -140 -108c-64.667 72 -111 108 -139 108c-40.667 0 -61 -36 -61 -108v-567z" />
    <glyph glyph-name="uni17AF" unicode="&#x17af;" horiz-adv-x="1300" 
d="M850 1081c-10 61.333 -29.1709 96.499 -57.5039 105.499s-59.166 13.5 -92.499 13.5c-40 0 -91.667 -18.333 -155 -55s-95 -75 -95 -115v-90c-166.667 0 -250 30 -250 90c0 105.333 8.33301 179.666 25 222.999s25 89 25 137c0 60 -33.333 90 -100 90
c0 60 33.333 90 100 90c166.667 0 250 -60 250 -180c0 -56.667 -8.33301 -103.667 -25 -141c-4 -10 -7.66699 -20 -11 -30c2.66699 1.33301 5.66699 3 9 5c64.667 50.667 140.334 76 227.001 76c100 0 187.667 -16.333 263 -49c74.667 -33.333 120.334 -90 137.001 -170
v-1081h-250l-200 193l-200 -193h-250v520c-66.667 22.667 -100 57.334 -100 104.001s13.333 84.334 40 113.001s63.334 43 110.001 43h100c66.667 0 100 -28.667 100 -86v-522l198 185l202 -195v919z" />
    <glyph glyph-name="uni17B0" unicode="&#x17b0;" horiz-adv-x="1300" 
d="M694 -273c27.333 -8.66699 50.667 -13.001 70 -13.001c12.667 0 23.667 2 33 6c16 7.33301 35.667 47 59 119c-54 -41.333 -108 -78.666 -162 -111.999zM450.001 99.999c33.333 0 58.332 12.167 74.999 36.5s25 65.5 25 123.5c0 28.667 -6.16699 48 -18.5 58
s-31.166 15 -56.499 15h-25v-233zM542 -476.001c17.333 16.667 26 47.333 26 92c0 12.667 -0.666992 26.667 -2 42c-75.333 -38 -151.333 -68 -228 -90c47.333 -53.333 86.333 -80 117 -80c30 0 59 12 87 36zM1100 -32.002c-13.333 -31.333 -26.6689 -71.333 -40.002 -120
c-34 -124.667 -80 -201.667 -138 -231c-28.667 -15.333 -59 -23 -91 -23c-37.333 0 -76.666 10.333 -117.999 31c7.33301 -23.333 11 -45.333 11 -66c0 -49.333 -20.667 -92.333 -62 -129c-59.333 -52 -118 -78 -176 -78c-58.667 0 -120.667 21 -186 63
c-66.667 42.667 -100 87 -100 133c0 86.667 36.333 138.667 109 156c194.667 58.667 375 149.667 541 273v1023c0 72 -20 108 -60 108c-28 0 -74.667 -36 -140 -108c-64.667 72 -111 108 -139 108c-40.667 0 -61 -36 -61 -108v-567h25c58.667 0 102.334 -14.333 131.001 -43
c29.333 -28.667 44 -72 44 -130c0 -86.667 -16.667 -151.667 -50 -195s-83.333 -65 -150 -65h-150c-66.667 0 -100 43.333 -100 130v870c0 81.333 34.5 151.666 103.5 210.999s121.167 89 156.5 89c30 0 93.333 -44.667 190 -134c97.333 89.333 161 134 191 134
c35.333 0 87.333 -29.667 156 -89s103 -129.666 103 -210.999v-1032z" />
    <glyph glyph-name="uni17B1" unicode="&#x17b1;" horiz-adv-x="1300" 
d="M308 1232c-105.333 56 -158.002 115 -158.002 177v69c0 32.667 21.667 68.334 65 107.001l66 56c66 58 142 87 228 87c28 0 57.333 -3 88 -9c368.667 -78.667 553 -206 553 -382c0 -87.333 -25 -131 -75 -131s-75 43.667 -75 131c0 56.667 -136.667 118 -410 184
c-45.333 2.66699 -85 4 -119 4c-88.667 0 -139.334 -7.83301 -152.001 -23.5s-19 -35.167 -19 -58.5c0 -26 44.333 -79.333 133 -160c48 11.333 103.667 17 167 17h100c266.667 0 400 -101 400 -303v-84c0 -140.667 -108 -261.334 -324 -362.001l-273 -152
c-35.333 -18 -53 -60 -53 -126c0 -42.667 21.833 -71.667 65.5 -87s91.834 -23 144.501 -23c46.667 0 90 23.167 130 69.5s60 90.833 60 133.5v94l204 109h46v-669h-250v194c-5.33301 -3.33301 -11 -6.33301 -17 -9c-49.333 -56.667 -110.333 -85 -183 -85
c-101.333 0 -201.666 33.5 -300.999 100.5s-149 124.5 -149 172.5c0 89.333 75.667 166.333 227 231l287 151c90.667 40 136 126 136 258v84c0 130 -50 195 -150 195h-100c-94.667 0 -144.667 -59.667 -150 -179c46.667 -24 70 -62.667 70 -116
c0 -78 -61.667 -117 -185 -117c-23.333 0 -45.666 5.16699 -66.999 15.5s-38 24.833 -50 43.5s-18 38 -18 58v143h2c8 84.667 43.333 148.667 106 192z" />
    <glyph glyph-name="uni17B2" unicode="&#x17b2;" horiz-adv-x="1300" 
d="M977 532c31.333 -12 56.668 -28.668 76.001 -50.001c31.333 -35.333 47 -83.333 47 -144v-35c0 -202 -133.333 -303 -400 -303h-100c-266.667 0 -400 101 -400 303v786c16.667 77.333 62.667 131.666 138 162.999c74.667 32 178.667 48 312 48s237.666 -16 312.999 -48
c74.667 -31.333 120.334 -85.666 137.001 -162.999c0 -32.667 -25 -49 -75 -49s-75 9.66699 -75 29c-10 60 -45.833 96.833 -107.5 110.5s-125.834 20.5 -192.501 20.5s-114.167 -10.167 -142.5 -30.5s-47.5 -53.833 -57.5 -100.5v-766c0 -135.333 50 -203 150 -203h100
c100 0 150 67.667 150 203v35c0 32.667 -5.66699 59.334 -17 80.001l-135 -104c-12.667 -10 -25.334 -15 -38.001 -15c-18 0 -35.667 10.667 -53 32c-14 18 -21 34 -21 48s7 26.333 21 37l113 84c94 69.333 147.5 123.333 160.5 162s19.5 68 19.5 88
c0 30.667 -6.16699 52.834 -18.5 66.501s-31.166 20.5 -56.499 20.5c-40 0 -70.333 -6.66699 -91 -20c-22.667 -14.667 -34 -37 -34 -67c0 -34.667 36.667 -52 110 -52c-40 -52 -81 -78 -123 -78c-39.333 0 -72 11 -98 33c-26 21.333 -39 53.666 -39 96.999
c0 58.667 23.333 112.167 70 160.5s115 72.5 205 72.5c89.333 0 157.5 -24 204.5 -72s70.5 -101.667 70.5 -161c0 -32 -10 -65.667 -30 -101c-20.667 -36.667 -51.667 -75.667 -93 -117z" />
    <glyph glyph-name="uni17B3" unicode="&#x17b3;" horiz-adv-x="1300" 
d="M321 1240c-114 57.333 -171.003 118.332 -171.003 182.999v68c0 32.667 21.667 67.667 65 105l66 56c66 57.333 142 86 228 86c28 0 57.333 -2.66699 88 -8c59.333 -13.333 114 -27.666 164 -42.999c33.333 140.667 146.333 211 339 211c33.333 0 50 -31.667 50 -95
c0 -64 -16.667 -96 -50 -96c-121.333 0 -182 -21.333 -182 -64c0 -4 0.666992 -8.33301 2 -13c153.333 -75.333 230 -168.333 230 -279c0 -87.333 -25 -131 -75 -131c-26 0 -50 2.33301 -72 7c-3.33301 0.666992 -6.33301 1.33398 -9 2.00098
c70.667 -50.667 106 -128 106 -232v-84c0 -140.667 -108 -261.334 -324 -362.001l-273 -152c-35.333 -18 -53 -60 -53 -126c0 -42.667 21.833 -71.667 65.5 -87s91.834 -23 144.501 -23c46.667 0 90 23.167 130 69.5s60 90.833 60 133.5v94l204 109h46v-669h-250v194
c-5.33301 -3.33301 -11 -6.33301 -17 -9c-49.333 -56.667 -110.333 -85 -183 -85c-101.333 0 -201.666 33.5 -300.999 100.5s-149 124.5 -149 172.5c0 89.333 75.667 166.333 227 231l287 151c90.667 40 136 126 136 258v84c0 130 -50 195 -150 195h-100
c-94.667 0 -144.667 -59.667 -150 -179c46.667 -24 70 -62.667 70 -116c0 -78 -61.667 -117 -185 -117c-23.333 0 -45.666 5.16699 -66.999 15.5s-38 24.833 -50 43.5s-18 38 -18 58v143h2c8 90 47.667 156.667 119 200zM853.997 1286
c-59.333 42 -93.3311 102.334 -101.998 181.001c-47.333 33.333 -127 50 -239 50c-112.667 0 -176.334 -6.33301 -191.001 -19s-22 -30.334 -22 -53.001c0 -20.667 48.333 -73.667 145 -159c45.333 9.33301 97 14 155 14h100c57.333 0 108.666 -4.66699 153.999 -14z" />
    <glyph glyph-name="uni17B6" unicode="&#x17b6;" horiz-adv-x="650" 
d="M200 928c0 29.333 -18.665 55.667 -55.998 79l-106 62c-54.667 33.333 -106.334 50 -155.001 50c-38 0 -89.667 -18 -155 -54c-15.333 52 -23 86.667 -23 104c0 27.333 18.333 52.333 55 75c61.333 37.333 122.333 56 183 56c69.333 0 138.666 -20.667 207.999 -62
l146 -87c102 -60.667 153 -135 153 -223v-928h-250v928z" />
    <glyph glyph-name="uni17B7" unicode="&#x17b7;" 
d="M-1085 1750c0 133.333 106.667 199.999 320 199.999c133.333 0 258.333 -50 375 -150l131 -112c29.333 -25.333 44 -54.666 44 -87.999s-23.333 -50 -70 -50h-550c-166.667 0 -250 66.667 -250 200zM-835 1700h350c-72.667 66.667 -166 100 -280 100
c-106.667 0 -160 -16.667 -160 -50s30 -50 90 -50z" />
    <glyph glyph-name="uni17B8" unicode="&#x17b8;" 
d="M-835 1700h350c-72.667 66.667 -166 100 -280 100c-106.667 0 -160 -16.667 -160 -50s30 -50 90 -50zM-385 1796v154h170v-350c0 -33.333 -23.333 -50 -70 -50h-550c-166.667 0 -250 66.667 -250 200s106.667 200 320 200c133.333 0 258.333 -50 375 -150z" />
    <glyph glyph-name="uni17B9" unicode="&#x17b9;" 
d="M-835 1700h350c-72.667 66.667 -166 100 -280 100c-106.667 0 -160 -16.667 -160 -50s30 -50 90 -50zM-553 1905c7.33301 20 18 37.001 32 51.001c29.333 29.333 73 44 131 44c58.667 0 102.667 -14.667 132 -44c28.667 -28.667 43 -72.334 43 -131.001
s-14.333 -102.334 -43 -131.001l-3 -3l2 -3c29.333 -25.333 44 -54.666 44 -87.999s-23.333 -50 -70 -50h-550c-166.667 0 -250 66.667 -250 200s106.667 200 320 200c73.333 0 144 -15 212 -45zM-427 1839c0 -16.667 4.33301 -29.334 13 -38.001c8.66699 -8 21 -12 37 -12
c17.333 0 30 4 38 12c8 8.66699 12 21.334 12 38.001s-4 29 -12 37c-8 8.66699 -20.667 13 -38 13c-16 0 -28.333 -4.33301 -37 -13c-8.66699 -8 -13 -20.333 -13 -37z" />
    <glyph glyph-name="uni17BA" unicode="&#x17ba;" 
d="M-835 1700h350c-72.667 66.667 -166 100 -280 100c-106.667 0 -160 -16.667 -160 -50s30 -50 90 -50zM-365 1779v171h150v-350c0 -33.333 -23.333 -50 -70 -50h-550c-166.667 0 -250 66.667 -250 200s106.667 200 320 200c54.667 0 108 -8.33301 160 -25v75h150v-150
c22 -15.333 43.667 -32 65 -50z" />
    <glyph glyph-name="uni17BB" unicode="&#x17bb;" 
d="M-200 -200v-400c0 -33.333 -33.333 -50 -100 -50s-100 16.667 -100 50v300c-53.333 0 -80 33.333 -80 100s40 100 120 100h80c53.333 0 80 -33.333 80 -100z" />
    <glyph glyph-name="uni17BC" unicode="&#x17bc;" 
d="M-500 -650c-122 0 -198 22.002 -228 66.002c-21.333 30.667 -32 61.667 -32 93c0 13.333 2 26.666 6 39.999l50 151c-53.333 0 -80 33.333 -80 100s56.667 100 170 100c82 0 123 -41.667 123 -125c0 -34.667 -7 -76.334 -21 -125.001l-21 -79
c-4.66699 -12 -7 -22.667 -7 -32c0 -26 13.333 -39 40 -39c48.667 0 100.5 66.667 155.5 200s100.5 200 136.5 200c50 0 75 -23 75 -69c0 -58 -22.667 -152.667 -68 -284s-145 -197 -299 -197z" />
    <glyph glyph-name="uni17BD" unicode="&#x17bd;" 
d="M-501 -543c-78 -71.333 -148.667 -107.001 -212 -107.001c-90.667 0 -136 43 -136 129c0 51.333 36.667 125 110 221c14 16.667 21 32 21 46c0 22.667 -14 40.667 -42 54c0 66.667 49 100 147 100c75.333 0 113 -22.333 113 -67c0 -45.333 -27 -104.666 -81 -177.999
s-81 -121.333 -81 -144c0 -7.33301 3 -11 9 -11c21.333 0 89 54 203 162c54 -108 89.667 -162 107 -162c22 0 44.667 63.333 68 190c16 140 53.667 210 113 210c39.333 0 59 -32.667 59 -98s-5.66699 -132 -17 -200c-24.667 -168 -99 -252 -223 -252
c-55.333 0 -108 35.667 -158 107z" />
    <glyph glyph-name="uni17BE" unicode="&#x17be;" 
d="M-835 1700h350c-72.667 66.667 -166 100 -280 100c-106.667 0 -160 -16.667 -160 -50s30 -50 90 -50zM-385 1796v154h170v-350c0 -33.333 -23.333 -50 -70 -50h-550c-166.667 0 -250 66.667 -250 200s106.667 200 320 200c133.333 0 258.333 -50 375 -150z" />
    <glyph glyph-name="uni17BF" unicode="&#x17bf;" horiz-adv-x="650" 
d="M5 1700c-72.667 66.667 -166 100 -280 100c-106.667 0 -160 -16.667 -160 -50s30 -50 90 -50h350zM450 -400c0 -166.667 -150 -250 -450 -250s-450 83.333 -450 250v250h250v-250c0 -100 66.667 -150 200 -150s200 50 200 150v1790c0 106.667 -61.333 160 -184 160h-361
c-166.667 0 -250 66.667 -250 200s106.667 200 320 200c54.667 0 108 -8.33301 160 -25v75h150v-150c22 -15.333 43.667 -32 65 -50l25 -21v171h150v-291c116.667 -48 175 -137.667 175 -269v-1790z" />
    </font>
</defs>
</svg>
