<svg width="72" height="72" viewBox="0 0 72 72" fill="none" xmlns="http://www.w3.org/2000/svg">
<g style="mix-blend-mode:soft-light" filter="url(#filter0_f_304_4844)">
<circle cx="34" cy="36" r="24" fill="url(#paint0_radial_304_4844)" fill-opacity="0.4"/>
</g>
<g clip-path="url(#clip0_304_4844)">
<path d="M27.1182 18.22C26.6218 17.9779 26.0232 18.184 25.781 18.6804L15.3736 40.0188C15.3716 40.0228 15.3714 40.0274 15.3728 40.0317C15.3742 40.0357 15.374 40.0402 15.3722 40.0441C14.6678 41.621 15.328 43.4826 16.8909 44.2448L18.8829 45.2164C19.3792 45.4585 19.9779 45.2523 20.22 44.7559L31.5626 21.5002C31.8047 21.0038 31.5986 20.4052 31.1022 20.1631L27.1182 18.22Z" fill="#E2A434"/>
<path d="M15.3299 42.5542C15.4847 42.9411 15.7155 43.2945 16.0129 43.5994L28.1462 18.7225L27.1826 18.2525L15.3299 42.5542Z" fill="#EEC340"/>
<path d="M32.0005 20.6024L31.0369 20.1324L18.818 45.1847L19.7816 45.6547L32.0005 20.6024Z" fill="#EEC340"/>
<path d="M30.0734 19.6625L29.1097 19.1925L16.8909 44.2448L17.8545 44.7148L30.0734 19.6625Z" fill="#EEC340"/>
<path d="M35.7196 15.2583C35.2232 15.0162 34.6245 15.2223 34.3824 15.7187L21.1906 42.7659C20.4124 44.3616 18.4885 45.024 16.8909 44.2448L41.9216 56.4531C41.9224 56.4535 41.9234 56.4536 41.9243 56.4533C41.9252 56.453 41.9262 56.453 41.9271 56.4535C41.9341 56.4571 41.9387 56.4614 41.9441 56.4641C42.1435 56.5613 42.349 56.6366 42.5557 56.6896C42.6556 56.7146 42.7559 56.7193 42.8554 56.7356C42.964 56.7527 43.071 56.7799 43.1804 56.7855C43.3546 56.7954 43.5294 56.7816 43.7043 56.7632C43.7359 56.7595 43.7671 56.764 43.7996 56.7584C44.82 56.6155 45.7541 55.9845 46.2415 54.99L46.2419 54.989L59.4356 27.9379C59.6777 27.4416 59.4716 26.8429 58.9752 26.6008L35.7196 15.2583Z" fill="#E2A434"/>
<path d="M40.0013 21.3175C39.0637 23.2399 36.7206 24.0282 34.7703 23.077C34.6615 23.0239 34.5583 22.9664 34.4561 22.9046L22.6964 47.0155L41.9681 56.415L53.7278 32.304C53.6181 32.2624 53.5069 32.2166 53.3999 32.1644C51.4491 31.2118 50.6268 28.8795 51.5644 26.9572C51.6165 26.8502 51.6755 26.7489 51.7363 26.6486L40.1406 20.993C40.099 21.1027 40.0535 21.2105 40.0013 21.3175Z" fill="#EEC340"/>
<path d="M42.8252 49.737C44.8983 45.4866 43.1327 40.3611 38.8813 38.2875C34.6309 36.2145 29.5059 37.9792 27.4328 42.2296C26.3204 44.5103 26.3218 47.0387 27.2097 49.2168L37.4555 54.214C39.7196 53.5732 41.7128 52.0177 42.8252 49.737ZM36.539 50.5272C36.4053 50.5396 36.2589 50.5147 36.1307 50.4521C35.7471 50.2651 35.5865 49.8145 35.7636 49.4513C35.8985 49.1747 36.1236 49.0996 36.3128 49.0369C37.1085 48.7726 37.8669 48.3206 38.2894 47.4543C38.8459 46.3135 38.7312 45.5752 37.9363 45.1874C36.0679 44.2762 34.6936 49.2706 31.6072 47.7652C30.4673 47.2093 29.8231 46.0255 30.4275 44.3342L29.6971 43.978C29.3637 43.8154 29.2231 43.4212 29.3768 43.106C29.5357 42.7803 29.9328 42.6484 30.2663 42.811L31.0092 43.1734C31.6271 42.2343 32.4399 41.6073 33.2624 41.4787C33.4142 41.4609 33.5798 41.4785 33.7339 41.5537C34.1049 41.7346 34.2666 42.1857 34.0833 42.5615C33.9973 42.7379 33.8086 42.8629 33.5384 42.9649C32.965 43.1647 32.3515 43.6742 32.0037 44.3872C31.4961 45.4279 31.8063 46.0612 32.318 46.3107C33.9947 47.1285 35.446 42.1717 38.6471 43.7329C40.0568 44.4205 40.5509 45.7481 39.8979 47.5075L40.6168 47.8581C40.9482 48.0198 41.0887 48.4139 40.9299 48.7397C40.7767 49.0538 40.379 49.1867 40.0476 49.0251L39.3287 48.6745C38.5812 49.8176 37.4501 50.4444 36.539 50.5272Z" fill="white"/>
</g>
<g clip-path="url(#clip1_304_4844)">
<path d="M34.9451 38.8293C34.9451 38.8293 34.8242 39.4992 34.7692 39.689C34.5165 40.6715 33.8462 41.3636 33.022 41.7097C33.011 41.7209 33.011 41.7209 33 41.7209C32.6154 41.8772 32.2088 41.9665 31.7802 41.9888C31.7692 41.9888 31.7692 41.9888 31.7582 41.9888C31.4066 42.0112 31.044 41.9665 30.7033 41.8884C30.6923 41.8884 30.6923 41.8884 30.6813 41.8884C30.5824 41.866 30.4725 41.8325 30.3736 41.799C30.1538 41.7209 29.9341 41.6316 29.7363 41.5088L29.7253 41.4976C29.4066 41.319 29.1319 41.0957 28.8901 40.8389L28.8791 40.8278C28.5934 40.5152 28.3626 40.1579 28.2088 39.7783C28.2088 39.7671 28.1978 39.7671 28.1978 39.756C27.956 39.0973 27.9231 38.3604 28.1868 37.6794C28.2967 37.4115 28.6593 36.6188 28.6593 36.6188L29.3956 36.8756L29.4066 36.8868L30.3736 37.2217H30.3846L31.3517 37.5566L31.3626 37.5678L32.3297 37.9027L32.3407 37.9139L33.3077 38.2488L33.3187 38.26L34.2857 38.5949H34.2967L34.9451 38.8293Z" fill="#E2A935"/>
<path d="M29.4066 36.8756L28.2198 39.7783C28.2198 39.7671 28.2088 39.7671 28.2088 39.756C27.956 39.0973 27.9231 38.3604 28.1868 37.6794C28.2967 37.4115 28.6593 36.6188 28.6593 36.6188L29.3956 36.8756H29.4066Z" fill="#E0A94D"/>
<path d="M30.3846 37.2217L28.9011 40.8389L28.8901 40.8277C28.6044 40.5151 28.3736 40.1579 28.2198 39.7783C28.2198 39.7671 28.2088 39.7671 28.2088 39.756L29.3956 36.8756L29.4066 36.8868L30.3736 37.2217H30.3846Z" fill="#DC9A31"/>
<path d="M31.3626 37.5678L29.7473 41.5088L29.7363 41.4976C29.4176 41.319 29.1429 41.0957 28.9011 40.8389L28.8901 40.8278L30.3846 37.2105H30.3956L31.3626 37.5455V37.5678Z" fill="#E2A434"/>
<path d="M34.9451 38.8293C34.9451 38.8293 34.8242 39.4992 34.7692 39.689C34.5165 40.6714 33.8462 41.3636 33.022 41.7097C33.011 41.7209 33.011 41.7209 33 41.7209L34.2857 38.5949H34.2967L34.9451 38.8293Z" fill="#E0A94D"/>
<path d="M34.3077 38.5949L33.022 41.7097C33.011 41.7209 33.011 41.7209 33 41.7209C32.6154 41.8772 32.2088 41.9665 31.7802 41.9888C31.7692 41.9888 31.7692 41.9888 31.7582 41.9888L33.2967 38.2488L33.3077 38.26L34.2747 38.5949H34.3077Z" fill="#DC9A31"/>
<path d="M33.3297 38.2488L31.7912 41.9888C31.7802 41.9888 31.7802 41.9888 31.7692 41.9888C31.4176 42.0112 31.0549 41.9665 30.7143 41.8884C30.7033 41.8884 30.7033 41.8884 30.6923 41.8884L32.3297 37.9027L32.3407 37.9139L33.3077 38.2488H33.3297Z" fill="#E2A434"/>
<path d="M32.3517 37.9139L30.7143 41.8884C30.7033 41.8884 30.7033 41.8884 30.6923 41.8884C30.5934 41.866 30.4835 41.8325 30.3846 41.7991C30.1648 41.7209 29.9451 41.6316 29.7473 41.5088L29.7363 41.4976L31.3626 37.5566L31.3736 37.5678L32.3407 37.9027L32.3517 37.9139Z" fill="#EEBD37"/>
<path d="M34.8894 39.1913C35.379 37.493 34.3216 35.6835 32.5277 35.1497C30.7338 34.6158 28.8826 35.5598 28.3929 37.2581C27.9033 38.9564 28.9607 40.7659 30.7546 41.2997C32.5486 41.8335 34.3997 40.8896 34.8894 39.1913Z" fill="#FADE4B"/>
<path d="M34.1978 39.0861C34.1538 39.2201 34.0989 39.3429 34.033 39.4657C34.0659 39.3876 34.1099 39.2982 34.1319 39.2089C34.5714 37.8692 33.7912 36.4067 32.3846 35.9266C31.1099 35.5024 29.7582 36.0159 29.1868 37.0989C29.7253 35.9378 31.1209 35.3573 32.4396 35.8038C33.8571 36.2839 34.6374 37.7464 34.1978 39.0861Z" fill="#E2A935"/>
<path opacity="0.2" d="M34.1577 39.106C34.5483 37.7509 33.708 36.3083 32.281 35.8838C30.8541 35.4593 29.3806 36.2137 28.9901 37.5688C28.5996 38.9238 29.4398 40.3665 30.8668 40.7909C32.2938 41.2154 33.7672 40.461 34.1577 39.106Z" fill="#E2A935"/>
</g>
<path d="M16 38.5L10 40.5V42.5H14L16 38.5Z" fill="#41472A"/>
<rect x="42" y="48" width="19" height="15" fill="#2D2D2D"/>
<mask id="path-23-inside-1_304_4844" fill="white">
<path fill-rule="evenodd" clip-rule="evenodd" d="M55.6889 40.6193H10V68C10 70.2091 11.7909 72 14 72H55.6889C57.898 72 59.6889 70.2091 59.6889 68V61.4758H60.7548C61.7962 61.4758 62.6404 60.6493 62.6404 59.6295V52.8463C62.6404 51.8266 61.7962 51 60.7548 51H59.6889V44.6193C59.6889 42.4102 57.898 40.6193 55.6889 40.6193ZM59.6889 51H49.8856C48.8443 51 48 51.8267 48 52.8463V59.6295C48 60.6492 48.8443 61.4758 49.8856 61.4758H59.6889V51ZM50.9093 56.2378C50.9093 57.7096 52.1278 58.9027 53.631 58.9027C55.1341 58.9027 56.3526 57.7096 56.3526 56.2378C56.3526 54.766 55.1341 53.5729 53.631 53.5729C52.1278 53.5729 50.9093 54.766 50.9093 56.2378Z"/>
</mask>
<path fill-rule="evenodd" clip-rule="evenodd" d="M55.6889 40.6193H10V68C10 70.2091 11.7909 72 14 72H55.6889C57.898 72 59.6889 70.2091 59.6889 68V61.4758H60.7548C61.7962 61.4758 62.6404 60.6493 62.6404 59.6295V52.8463C62.6404 51.8266 61.7962 51 60.7548 51H59.6889V44.6193C59.6889 42.4102 57.898 40.6193 55.6889 40.6193ZM59.6889 51H49.8856C48.8443 51 48 51.8267 48 52.8463V59.6295C48 60.6492 48.8443 61.4758 49.8856 61.4758H59.6889V51ZM50.9093 56.2378C50.9093 57.7096 52.1278 58.9027 53.631 58.9027C55.1341 58.9027 56.3526 57.7096 56.3526 56.2378C56.3526 54.766 55.1341 53.5729 53.631 53.5729C52.1278 53.5729 50.9093 54.766 50.9093 56.2378Z" fill="#AAA068"/>
<path d="M10 40.6193V38.6193H8V40.6193H10ZM10 42.6193H55.6889V38.6193H10V42.6193ZM12 68V40.6193H8V68H12ZM14 70C12.8954 70 12 69.1046 12 68H8C8 71.3137 10.6863 74 14 74V70ZM55.6889 70H14V74H55.6889V70ZM57.6889 68C57.6889 69.1046 56.7935 70 55.6889 70V74C59.0026 74 61.6889 71.3137 61.6889 68H57.6889ZM57.6889 61.4758V68H61.6889V61.4758H57.6889ZM59.6889 63.4758H60.7548V59.4758H59.6889V63.4758ZM60.7548 63.4758C62.8608 63.4758 64.6404 61.7934 64.6404 59.6295H60.6404C60.6404 59.5736 60.6664 59.5281 60.6889 59.506C60.7107 59.4847 60.7375 59.4758 60.7548 59.4758V63.4758ZM64.6404 59.6295V52.8463H60.6404V59.6295H64.6404ZM64.6404 52.8463C64.6404 50.6824 62.8608 49 60.7548 49V53C60.7375 53 60.7107 52.9911 60.6889 52.9698C60.6664 52.9477 60.6404 52.9022 60.6404 52.8463H64.6404ZM60.7548 49H59.6889V53H60.7548V49ZM57.6889 44.6193V51H61.6889V44.6193H57.6889ZM55.6889 42.6193C56.7935 42.6193 57.6889 43.5148 57.6889 44.6193H61.6889C61.6889 41.3056 59.0026 38.6193 55.6889 38.6193V42.6193ZM59.6889 49H49.8856V53H59.6889V49ZM49.8856 49C47.7796 49 46 50.6826 46 52.8463H50C50 52.9023 49.974 52.9478 49.9516 52.9698C49.9298 52.9911 49.903 53 49.8856 53V49ZM46 52.8463V59.6295H50V52.8463H46ZM46 59.6295C46 61.7932 47.7796 63.4758 49.8856 63.4758V59.4758C49.903 59.4758 49.9298 59.4847 49.9516 59.506C49.974 59.528 50 59.5736 50 59.6295H46ZM49.8856 63.4758H59.6889V59.4758H49.8856V63.4758ZM57.6889 51V61.4758H61.6889V51H57.6889ZM53.631 56.9027C53.1925 56.9027 52.9093 56.5656 52.9093 56.2378H48.9093C48.9093 58.8537 51.0632 60.9027 53.631 60.9027V56.9027ZM54.3526 56.2378C54.3526 56.5656 54.0694 56.9027 53.631 56.9027V60.9027C56.1988 60.9027 58.3526 58.8537 58.3526 56.2378H54.3526ZM53.631 55.5729C54.0694 55.5729 54.3526 55.91 54.3526 56.2378H58.3526C58.3526 53.6219 56.1987 51.5729 53.631 51.5729V55.5729ZM52.9093 56.2378C52.9093 55.91 53.1925 55.5729 53.631 55.5729V51.5729C51.0632 51.5729 48.9093 53.6219 48.9093 56.2378H52.9093Z" fill="#625D42" mask="url(#path-23-inside-1_304_4844)"/>
<g clip-path="url(#clip2_304_4844)">
<path d="M20.798 39.2509L21.5879 38.7426C21.9199 38.5311 21.9479 37.8977 21.7009 37.0414C21.7051 37.0324 21.6992 37.0188 21.6891 37.0142C21.5824 36.6156 21.4134 36.1669 21.188 35.6818C21.1779 35.6773 21.1822 35.6682 21.1763 35.6546C20.992 35.2647 20.7715 34.8475 20.5207 34.4167L20.5047 34.3985C20.3881 34.2035 20.2714 34.0084 20.1447 33.8088C20.018 33.6092 19.887 33.4186 19.7561 33.2281L19.7401 33.2099C19.4521 32.806 19.1716 32.4384 18.8842 32.1115C18.8741 32.1069 18.8783 32.0979 18.8682 32.0933C18.517 31.6937 18.1748 31.353 17.8577 31.0893C17.8476 31.0848 17.8519 31.0757 17.8418 31.0712C17.1555 30.4983 16.571 30.2562 16.2391 30.4677L15.4492 30.976L20.798 39.2509Z" fill="#E2A935"/>
<path d="M16.2079 32.151L17.8678 31.0939C17.8577 31.0893 17.862 31.0803 17.8519 31.0757C17.1656 30.5029 16.5811 30.2608 16.2492 30.4722L15.4593 30.9806L16.2079 32.151Z" fill="#E0A94D"/>
<path d="M16.9826 33.3442L18.9044 32.1206C18.8943 32.116 18.8985 32.107 18.8884 32.1024C18.5372 31.7029 18.195 31.3621 17.878 31.0984C17.8678 31.0939 17.8721 31.0848 17.862 31.0803L16.2063 32.1284L16.9826 33.3442Z" fill="#DC9A31"/>
<path d="M17.7472 34.5328L19.772 33.2462L19.7561 33.2281C19.4681 32.8242 19.1875 32.4566 18.9002 32.1296C18.8901 32.1251 18.8943 32.116 18.8842 32.1115L16.9666 33.326L17.7472 34.5328Z" fill="#E2A434"/>
<path d="M20.798 39.2509L21.5879 38.7425C21.9199 38.5311 21.9479 37.8977 21.7009 37.0414C21.7051 37.0324 21.6992 37.0188 21.6891 37.0142L20.0292 38.0713L20.798 39.2509Z" fill="#E0A94D"/>
<path d="M20.051 38.1031L21.7067 37.055C21.711 37.046 21.7051 37.0324 21.695 37.0278C21.5883 36.6292 21.4193 36.1805 21.1939 35.6954C21.1838 35.6909 21.188 35.6818 21.1822 35.6682L19.2705 36.8964L20.051 38.1031Z" fill="#DC9A31"/>
<path d="M19.2865 36.9145L21.204 35.7C21.1939 35.6954 21.1981 35.6864 21.1923 35.6728C21.008 35.2829 20.7874 34.8657 20.5366 34.4348L20.5207 34.4167L18.5059 35.7078L19.2865 36.9145Z" fill="#E2A434"/>
<path d="M18.5219 35.7259L20.5467 34.4394L20.5308 34.4212C20.4141 34.2262 20.2975 34.0312 20.1708 33.8316C20.0441 33.6319 19.9131 33.4414 19.7821 33.2508L19.7662 33.2326L17.7312 34.5146L18.5219 35.7259Z" fill="#EEBD37"/>
<path d="M19.4698 34.4615C20.9225 36.7571 21.5006 38.9149 20.7611 39.2813C20.0215 39.6476 18.2444 38.0837 16.7917 35.7881C15.3391 33.4926 14.7609 31.3347 15.5004 30.9684C16.24 30.602 18.0171 32.166 19.4698 34.4615Z" fill="#FADE4B"/>
<path d="M20.4413 38.7065C20.5343 38.639 20.5852 38.5305 20.6041 38.3858C20.5829 38.431 20.5458 38.458 20.5187 38.4896C20.0024 38.8587 18.5366 37.5724 17.2482 35.6215C16.1796 34.0109 15.5789 32.4473 15.6796 31.7372C15.3576 32.2926 15.9814 34.0418 17.1708 35.8384C18.455 37.7983 19.925 39.0756 20.4413 38.7065Z" fill="#E2A935"/>
<path opacity="0.5" d="M20.5187 38.4896C20.5559 38.4626 20.5872 38.4219 20.6041 38.3858C20.7251 37.6848 20.1084 36.1031 19.0399 34.4925C17.7514 32.5416 16.2856 31.2553 15.7795 31.6289C15.7423 31.656 15.711 31.6966 15.6796 31.7372C15.5789 32.4473 16.1839 34.0018 17.2524 35.6125C18.5366 37.5724 20.0024 38.8587 20.5187 38.4896Z" fill="#E2A935"/>
</g>
<g clip-path="url(#clip3_304_4844)">
<path d="M43.4304 28.2263C43.4304 28.2263 43.135 28.6955 43.0357 28.8222C42.5455 29.4874 41.8282 29.8062 41.1001 29.8166C41.0884 29.8217 41.0884 29.8217 41.0801 29.8183C40.7419 29.8192 40.4075 29.7628 40.077 29.6492C40.0686 29.6458 40.0686 29.6458 40.0603 29.6425C39.7879 29.5522 39.5275 29.408 39.294 29.2452C39.2857 29.2419 39.2857 29.2419 39.2774 29.2385C39.2094 29.1915 39.1366 29.1327 39.0721 29.0773C38.9299 28.9513 38.791 28.8169 38.679 28.6638L38.6741 28.6521C38.4878 28.42 38.3482 28.1677 38.2438 27.9L38.2389 27.8882C38.1183 27.565 38.0528 27.2248 38.0522 26.8912C38.0556 26.8828 38.0473 26.8794 38.0507 26.871C38.0687 26.2997 38.2682 25.733 38.6749 25.2988C38.8396 25.1299 39.355 24.6415 39.355 24.6415L39.833 25.0598L39.8379 25.0716L40.4665 25.6192L40.4748 25.6225L41.1033 26.1701L41.1082 26.1819L41.7368 26.7295L41.7417 26.7413L42.3702 27.2889L42.3751 27.3007L43.0037 27.8483L43.012 27.8517L43.4304 28.2263Z" fill="#E2A935"/>
<path d="M39.8413 25.0631L38.0605 26.8945C38.0639 26.8861 38.0556 26.8828 38.059 26.8743C38.0687 26.2997 38.2682 25.733 38.6749 25.2988C38.8396 25.1299 39.355 24.6415 39.355 24.6415L39.833 25.0598L39.8413 25.0631Z" fill="#E0A94D"/>
<path d="M40.4748 25.6225L38.2521 27.9034L38.2472 27.8916C38.1266 27.5684 38.0611 27.2282 38.0605 26.8945C38.0639 26.8861 38.0556 26.8828 38.059 26.8743L39.833 25.0598L39.8379 25.0715L40.4665 25.6192L40.4748 25.6225Z" fill="#DC9A31"/>
<path d="M41.1082 26.1819L38.6873 28.6672L38.6824 28.6554C38.4961 28.4234 38.3565 28.171 38.2521 27.9034L38.2472 27.8916L40.4782 25.6141L40.4865 25.6174L41.115 26.165L41.1082 26.1819Z" fill="#E2A434"/>
<path d="M43.4304 28.2263C43.4304 28.2263 43.135 28.6955 43.0357 28.8222C42.5455 29.4874 41.8282 29.8062 41.1001 29.8166C41.0884 29.8216 41.0884 29.8216 41.0801 29.8183L43.0037 27.8483L43.012 27.8517L43.4304 28.2263Z" fill="#E0A94D"/>
<path d="M43.0203 27.855L41.1001 29.8166C41.0884 29.8217 41.0884 29.8217 41.0801 29.8183C40.7419 29.8192 40.4075 29.7628 40.077 29.6492C40.0687 29.6458 40.0687 29.6458 40.0604 29.6425L42.3619 27.2856L42.3668 27.2974L42.9954 27.845L43.0203 27.855Z" fill="#DC9A31"/>
<path d="M42.3868 27.2956L40.0853 29.6525C40.077 29.6492 40.077 29.6492 40.0687 29.6458C39.7962 29.5556 39.5358 29.4114 39.3023 29.2485C39.294 29.2452 39.294 29.2452 39.2857 29.2418L41.7368 26.7295L41.7417 26.7413L42.3702 27.2889L42.3868 27.2956Z" fill="#E2A434"/>
<path d="M41.75 26.7446L39.3023 29.2485C39.294 29.2452 39.294 29.2452 39.2857 29.2418C39.2177 29.1948 39.1449 29.1361 39.0804 29.0806C38.9382 28.9546 38.7993 28.8202 38.6873 28.6672L38.6824 28.6554L41.1116 26.1735L41.1165 26.1853L41.7451 26.7329L41.75 26.7446Z" fill="#EEBD37"/>
<path d="M43.2781 28.4828C44.1653 27.3489 43.9177 25.6597 42.725 24.71C41.5324 23.7602 39.8462 23.9094 38.959 25.0433C38.0718 26.1772 38.3194 27.8663 39.512 28.8161C40.7047 29.7659 42.3908 29.6166 43.2781 28.4828Z" fill="#FADE4B"/>
<path d="M42.7876 28.1927C42.7136 28.2805 42.6347 28.3565 42.5475 28.4292C42.5962 28.3802 42.6566 28.3261 42.7004 28.2654C43.4406 27.3871 43.2967 26.0445 42.3803 25.2534C41.5464 24.5445 40.3689 24.5208 39.6073 25.1649C40.3678 24.4517 41.599 24.4382 42.4592 25.1773C43.3839 25.9718 43.5278 27.3144 42.7876 28.1927Z" fill="#E2A935"/>
<path opacity="0.2" d="M42.7513 28.1954C43.4592 27.2907 43.2638 25.9448 42.3151 25.1894C41.3663 24.434 40.0234 24.5551 39.3155 25.4599C38.6077 26.3647 38.803 27.7105 39.7518 28.4659C40.7005 29.2213 42.0435 29.1002 42.7513 28.1954Z" fill="#E2A935"/>
</g>
<g clip-path="url(#clip4_304_4844)">
<path d="M60.3048 28.6081C60.3048 28.6081 60.9372 29.1813 61.1027 29.3657C61.9802 30.2868 62.2717 31.4594 62.0928 32.5659C62.0974 32.5851 62.0974 32.5851 62.0901 32.5967C62.0011 33.1097 61.8262 33.6015 61.5655 34.0723C61.5582 34.084 61.5582 34.084 61.5509 34.0957C61.3413 34.4847 61.053 34.8408 60.7438 35.1514C60.7365 35.1631 60.7365 35.1631 60.7292 35.1748C60.6398 35.2652 60.5312 35.3599 60.4299 35.4428C60.2009 35.6248 59.96 35.7993 59.698 35.9283L59.6789 35.9325C59.2773 36.153 58.8574 36.2971 58.4237 36.3839L58.4045 36.3881C57.8823 36.4846 57.3491 36.493 56.8431 36.4047C56.8312 36.3973 56.8239 36.409 56.812 36.4016C55.9508 36.2216 55.145 35.7676 54.5955 35.0349C54.3834 34.7402 53.7807 33.8282 53.7807 33.8282L54.5426 33.2153L54.5618 33.2111L55.56 32.4045L55.5673 32.3928L56.5655 31.5863L56.5847 31.582L57.5829 30.7755L57.6021 30.7712L58.6003 29.9647L58.6195 29.9604L59.6177 29.1539L59.625 29.1422L60.3048 28.6081Z" fill="#E2A935"/>
<path d="M54.5499 33.2036L56.8504 36.393C56.8385 36.3856 56.8312 36.3973 56.8193 36.3899C55.9508 36.2216 55.145 35.7676 54.5955 35.0349C54.3834 34.7402 53.7807 33.8282 53.7807 33.8282L54.5426 33.2153L54.5499 33.2036Z" fill="#E0A94D"/>
<path d="M55.5673 32.3928L58.431 36.3722L58.4118 36.3765C57.8896 36.4729 57.3563 36.4813 56.8504 36.393C56.8385 36.3856 56.8312 36.3973 56.8193 36.3899L54.5426 33.2153L54.5618 33.2111L55.56 32.4045L55.5673 32.3928Z" fill="#DC9A31"/>
<path d="M56.5847 31.582L59.7053 35.9166L59.6862 35.9209C59.2846 36.1413 58.8647 36.2854 58.431 36.3722L58.4118 36.3765L55.5554 32.3854L55.5627 32.3737L56.561 31.5672L56.5847 31.582Z" fill="#E2A434"/>
<path d="M60.3048 28.6081C60.3048 28.6081 60.9372 29.1813 61.1027 29.3657C61.9802 30.2868 62.2717 31.4594 62.0928 32.566C62.0974 32.5851 62.0974 32.5851 62.0901 32.5968L59.6177 29.1539L59.625 29.1422L60.3048 28.6081Z" fill="#E0A94D"/>
<path d="M59.6323 29.1305L62.0928 32.5659C62.0974 32.585 62.0974 32.585 62.0901 32.5967C62.0011 33.1097 61.8262 33.6015 61.5655 34.0723C61.5582 34.084 61.5582 34.084 61.5509 34.0957L58.593 29.9764L58.6122 29.9721L59.6104 29.1656L59.6323 29.1305Z" fill="#DC9A31"/>
<path d="M58.6149 29.9413L61.5728 34.0606C61.5655 34.0723 61.5655 34.0723 61.5582 34.084C61.3486 34.473 61.0603 34.8291 60.7511 35.1397C60.7438 35.1514 60.7438 35.1514 60.7365 35.1631L57.5829 30.7755L57.6021 30.7712L58.6003 29.9647L58.6149 29.9413Z" fill="#E2A434"/>
<path d="M57.6094 30.7595L60.7511 35.1397C60.7438 35.1514 60.7438 35.1514 60.7365 35.1631C60.6471 35.2535 60.5385 35.3482 60.4372 35.4312C60.2082 35.6131 59.9673 35.7877 59.7053 35.9166L59.6862 35.9209L56.5728 31.5746L56.592 31.5703L57.5902 30.7638L57.6094 30.7595Z" fill="#EEBD37"/>
<path d="M60.6529 28.9075C59.1711 27.2593 56.5441 27.1832 54.7854 28.7374C53.0267 30.2917 52.8022 32.8878 54.284 34.536C55.7659 36.1842 58.3928 36.2603 60.1516 34.7061C61.9103 33.1518 62.1347 30.5557 60.6529 28.9075Z" fill="#FADE4B"/>
<path d="M60.082 29.5735C60.1954 29.7092 60.2895 29.8492 60.3764 30.0008C60.3152 29.9139 60.2493 29.8078 60.1689 29.7252C59.0353 28.3683 56.9614 28.2276 55.517 29.4054C54.2196 30.48 53.8688 32.2589 54.6416 33.5857C53.7637 32.2421 54.0724 30.372 55.4229 29.2654C56.8746 28.0759 58.9484 28.2166 60.082 29.5735Z" fill="#E2A935"/>
<path opacity="0.2" d="M60.0765 29.6293C58.894 28.3144 56.8015 28.2507 55.4027 29.4871C54.0039 30.7236 53.8285 32.7919 55.0109 34.1068C56.1934 35.4218 58.2859 35.4855 59.6847 34.249C61.0836 33.0126 61.259 30.9443 60.0765 29.6293Z" fill="#E2A935"/>
</g>
<g clip-path="url(#clip5_304_4844)">
<path d="M8.90302 38.6007C8.90302 38.6007 8.85249 38.8807 8.82952 38.96C8.72387 39.3707 8.44368 39.66 8.09918 39.8047C8.09458 39.8093 8.09458 39.8093 8.08999 39.8093C7.92922 39.8747 7.75927 39.912 7.58012 39.9213C7.57553 39.9213 7.57553 39.9213 7.57094 39.9213C7.42395 39.9307 7.27237 39.912 7.12997 39.8793C7.12538 39.8793 7.12538 39.8793 7.12079 39.8793C7.07944 39.87 7.03351 39.856 6.99217 39.842C6.9003 39.8093 6.80844 39.772 6.72575 39.7207L6.72116 39.716C6.58795 39.6413 6.47312 39.548 6.37206 39.4407L6.36747 39.436C6.24804 39.3053 6.15158 39.156 6.08727 38.9973C6.08727 38.9927 6.08268 38.9927 6.08268 38.988C5.98163 38.7127 5.96785 38.4047 6.07809 38.12C6.12402 38.008 6.2756 37.6767 6.2756 37.6767L6.58336 37.784L6.58795 37.7887L6.99217 37.9287H6.99676L7.40098 38.0687L7.40557 38.0733L7.80979 38.2133L7.81439 38.218L8.2186 38.358L8.2232 38.3627L8.62741 38.5027H8.63201L8.90302 38.6007Z" fill="#E2A935"/>
<path d="M6.58795 37.784L6.09187 38.9973C6.09187 38.9927 6.08728 38.9927 6.08728 38.988C5.98163 38.7127 5.96785 38.4047 6.07809 38.12C6.12402 38.008 6.2756 37.6767 6.2756 37.6767L6.58336 37.784H6.58795Z" fill="#E0A94D"/>
<path d="M6.99677 37.9287L6.37666 39.4407L6.37207 39.436C6.25264 39.3053 6.15618 39.156 6.09187 38.9973C6.09187 38.9927 6.08728 38.9927 6.08728 38.988L6.58336 37.784L6.58796 37.7887L6.99217 37.9287H6.99677Z" fill="#DC9A31"/>
<path d="M7.40558 38.0733L6.73035 39.7207L6.72576 39.716C6.59255 39.6413 6.47771 39.548 6.37666 39.4407L6.37207 39.436L6.99677 37.924H7.00136L7.40558 38.064V38.0733Z" fill="#E2A434"/>
<path d="M8.90302 38.6007C8.90302 38.6007 8.85249 38.8807 8.82952 38.96C8.72387 39.3706 8.44368 39.66 8.09918 39.8046C8.09458 39.8093 8.09458 39.8093 8.08999 39.8093L8.62741 38.5027H8.63201L8.90302 38.6007Z" fill="#E0A94D"/>
<path d="M8.6366 38.5027L8.09918 39.8047C8.09458 39.8093 8.09458 39.8093 8.08999 39.8093C7.92922 39.8747 7.75927 39.912 7.58012 39.9213C7.57553 39.9213 7.57553 39.9213 7.57094 39.9213L8.21401 38.358L8.2186 38.3627L8.62282 38.5027H8.6366Z" fill="#DC9A31"/>
<path d="M8.22779 38.358L7.58472 39.9213C7.58013 39.9213 7.58013 39.9213 7.57553 39.9213C7.42854 39.9307 7.27696 39.912 7.13457 39.8793C7.12997 39.8793 7.12997 39.8793 7.12538 39.8793L7.80979 38.2133L7.81439 38.218L8.21861 38.358H8.22779Z" fill="#E2A434"/>
<path d="M7.81898 38.218L7.13456 39.8793C7.12997 39.8793 7.12997 39.8793 7.12538 39.8793C7.08404 39.87 7.0381 39.856 6.99676 39.842C6.9049 39.8093 6.81303 39.772 6.73035 39.7207L6.72575 39.716L7.40557 38.0687L7.41017 38.0733L7.81439 38.2133L7.81898 38.218Z" fill="#EEBD37"/>
<path d="M8.87974 38.7519C9.0844 38.0421 8.64243 37.2857 7.89257 37.0625C7.14271 36.8394 6.36891 37.234 6.16425 37.9439C5.95959 38.6537 6.40156 39.4101 7.15142 39.6332C7.90128 39.8564 8.67508 39.4618 8.87974 38.7519Z" fill="#FADE4B"/>
<path d="M8.59067 38.708C8.57229 38.764 8.54933 38.8153 8.52177 38.8667C8.53555 38.834 8.55392 38.7967 8.56311 38.7593C8.74684 38.1993 8.42071 37.588 7.83276 37.3873C7.29993 37.21 6.73494 37.4247 6.49609 37.8773C6.72116 37.392 7.30452 37.1493 7.85573 37.336C8.44827 37.5367 8.7744 38.148 8.59067 38.708Z" fill="#E2A935"/>
<path opacity="0.2" d="M8.57391 38.7163C8.73716 38.1499 8.38595 37.5468 7.78947 37.3694C7.19299 37.192 6.57711 37.5073 6.41386 38.0737C6.25062 38.6401 6.60183 39.2432 7.19831 39.4206C7.79479 39.598 8.41067 39.2827 8.57391 38.7163Z" fill="#E2A935"/>
</g>
<g clip-path="url(#clip6_304_4844)">
<path d="M42.4478 15.5453L42.2458 15.2906C42.1606 15.1843 42.2213 14.9702 42.3963 14.7117C42.3959 14.7082 42.3993 14.7043 42.4031 14.7039C42.4819 14.5826 42.5866 14.4514 42.7137 14.3142C42.7175 14.3138 42.7171 14.3103 42.7205 14.3064C42.8237 14.1964 42.9417 14.0813 43.0711 13.9649L43.0783 13.9605C43.1379 13.9082 43.1975 13.8558 43.2609 13.803C43.3243 13.7502 43.3881 13.7009 43.4519 13.6515L43.4591 13.6472C43.5977 13.5438 43.7299 13.4516 43.8598 13.3738C43.8636 13.3734 43.8632 13.3699 43.867 13.3695C44.0258 13.2743 44.1751 13.1978 44.3078 13.1442C44.3116 13.1438 44.3112 13.1403 44.315 13.1399C44.6023 13.0232 44.8199 13.0057 44.9051 13.112L45.1072 13.3667L42.4478 15.5453Z" fill="#E2A935"/>
<path d="M44.7298 13.6762L44.304 13.1446C44.3078 13.1442 44.3074 13.1407 44.3112 13.1403C44.5985 13.0237 44.8162 13.0062 44.9013 13.1125L45.1034 13.3672L44.7298 13.6762Z" fill="#E0A94D"/>
<path d="M44.3452 13.9899L43.8522 13.3747C43.856 13.3742 43.8556 13.3708 43.8594 13.3703C44.0182 13.2752 44.1675 13.1986 44.3002 13.1451C44.304 13.1446 44.3036 13.1412 44.3074 13.1407L44.7328 13.6688L44.3452 13.9899Z" fill="#DC9A31"/>
<path d="M43.9645 14.3033L43.4447 13.6559L43.4519 13.6515C43.5905 13.5481 43.7226 13.456 43.8526 13.3781C43.8564 13.3777 43.856 13.3742 43.8598 13.3738L44.3525 13.9856L43.9645 14.3033Z" fill="#E2A434"/>
<path d="M42.4478 15.5453L42.2458 15.2906C42.1606 15.1843 42.2213 14.9703 42.3963 14.7117C42.3959 14.7082 42.3993 14.7043 42.4031 14.7039L42.829 15.2355L42.4478 15.5453Z" fill="#E0A94D"/>
<path d="M42.8184 15.2437L42.3929 14.7156C42.3925 14.7121 42.3959 14.7082 42.3997 14.7078C42.4785 14.5865 42.5832 14.4553 42.7103 14.3181C42.7141 14.3177 42.7137 14.3142 42.7171 14.3103L43.2064 14.926L42.8184 15.2437Z" fill="#DC9A31"/>
<path d="M43.1991 14.9303L42.7065 14.3185C42.7103 14.3181 42.7099 14.3146 42.7133 14.3107C42.8165 14.2008 42.9345 14.0856 43.0639 13.9692L43.0711 13.9649L43.5871 14.6127L43.1991 14.9303Z" fill="#E2A434"/>
<path d="M43.5799 14.617L43.0601 13.9696L43.0673 13.9653C43.1269 13.9129 43.1865 13.8606 43.2499 13.8078C43.3133 13.755 43.3771 13.7056 43.4409 13.6563L43.4481 13.652L43.9717 14.2989L43.5799 14.617Z" fill="#EEBD37"/>
<path d="M43.4095 14.0934C42.682 14.7011 42.2553 15.3575 42.4566 15.5594C42.6578 15.7614 43.4108 15.4324 44.1383 14.8247C44.8659 14.217 45.2925 13.5606 45.0913 13.3587C44.89 13.1567 44.1371 13.4856 43.4095 14.0934Z" fill="#FADE4B"/>
<path d="M42.6244 15.4025C42.6015 15.37 42.5968 15.3283 42.6065 15.2781C42.6085 15.2954 42.6176 15.3084 42.623 15.3219C42.751 15.5006 43.3716 15.2305 44.0076 14.7199C44.5341 14.2988 44.9027 13.8428 44.948 13.5954C44.992 13.8152 44.5955 14.3305 44.0089 14.8005C43.3734 15.3146 42.7524 15.5812 42.6244 15.4025Z" fill="#E2A935"/>
<path opacity="0.5" d="M42.623 15.3219C42.6138 15.3089 42.6081 15.2919 42.6065 15.2781C42.6442 15.0315 43.02 14.5712 43.5466 14.1501C44.1825 13.6395 44.8031 13.3694 44.9273 13.5486C44.9365 13.5616 44.9423 13.5785 44.948 13.5954C44.9027 13.8428 44.5337 14.2953 44.0072 14.7164C43.3716 15.2305 42.751 15.5006 42.623 15.3219Z" fill="#E2A935"/>
</g>
<path d="M15.8808 16.968C15.8808 16.968 16.5132 17.5413 16.6787 17.7257C17.5562 18.6467 17.8476 19.8193 17.6688 20.9259C17.6734 20.945 17.6734 20.945 17.6661 20.9567C17.5771 21.4697 17.4022 21.9615 17.1415 22.4323C17.1342 22.444 17.1342 22.444 17.1269 22.4557C16.9172 22.8446 16.629 23.2008 16.3198 23.5114C16.3125 23.523 16.3125 23.523 16.3052 23.5347C16.2158 23.6251 16.1072 23.7198 16.0059 23.8028C15.7769 23.9848 15.536 24.1593 15.274 24.2882L15.2548 24.2925C14.8533 24.513 14.4334 24.6571 13.9997 24.7438L13.9805 24.7481C13.4583 24.8446 12.925 24.853 12.4191 24.7647C12.4072 24.7573 12.3999 24.769 12.388 24.7616C11.5268 24.5816 10.7209 24.1275 10.1715 23.3949C9.95933 23.1001 9.35672 22.1882 9.35672 22.1882L10.1186 21.5753L10.1378 21.571L11.136 20.7645L11.1433 20.7528L12.1415 19.9463L12.1607 19.942L13.1589 19.1355L13.1781 19.1312L14.1763 18.3247L14.1955 18.3204L15.1937 17.5139L15.201 17.5022L15.8808 16.968Z" fill="#E2A935"/>
<path d="M10.1259 21.5636L12.4264 24.753C12.4145 24.7456 12.4072 24.7573 12.3953 24.7499C11.5267 24.5816 10.7209 24.1275 10.1714 23.3949C9.95932 23.1001 9.3567 22.1882 9.3567 22.1882L10.1186 21.5753L10.1259 21.5636Z" fill="#E0A94D"/>
<path d="M11.1433 20.7528L14.007 24.7321L13.9878 24.7364C13.4656 24.8329 12.9323 24.8413 12.4263 24.753C12.4145 24.7456 12.4072 24.7573 12.3953 24.7499L10.1186 21.5753L10.1378 21.571L11.136 20.7645L11.1433 20.7528Z" fill="#DC9A31"/>
<path d="M12.1607 19.942L15.2813 24.2766L15.2621 24.2808C14.8606 24.5013 14.4407 24.6454 14.007 24.7322L13.9878 24.7364L11.1314 20.7454L11.1387 20.7337L12.1369 19.9272L12.1607 19.942Z" fill="#E2A434"/>
<path d="M15.8808 16.968C15.8808 16.968 16.5132 17.5413 16.6787 17.7257C17.5561 18.6467 17.8476 19.8194 17.6688 20.9259C17.6734 20.945 17.6734 20.945 17.6661 20.9567L15.1937 17.5139L15.201 17.5022L15.8808 16.968Z" fill="#E0A94D"/>
<path d="M15.2083 17.4905L17.6688 20.9259C17.6733 20.945 17.6733 20.945 17.6661 20.9567C17.577 21.4697 17.4022 21.9615 17.1415 22.4323C17.1342 22.444 17.1342 22.444 17.1269 22.4557L14.169 18.3364L14.1882 18.3321L15.1864 17.5256L15.2083 17.4905Z" fill="#DC9A31"/>
<path d="M14.1909 18.3013L17.1488 22.4206C17.1415 22.4323 17.1415 22.4323 17.1342 22.444C16.9245 22.8329 16.6363 23.1891 16.327 23.4997C16.3197 23.5114 16.3197 23.5114 16.3125 23.5231L13.1589 19.1355L13.1781 19.1312L14.1763 18.3247L14.1909 18.3013Z" fill="#E2A434"/>
<path d="M13.1854 19.1195L16.327 23.4997C16.3197 23.5114 16.3197 23.5114 16.3125 23.5231C16.223 23.6135 16.1145 23.7082 16.0132 23.7911C15.7842 23.9731 15.5433 24.1476 15.2813 24.2766L15.2621 24.2808L12.1488 19.9346L12.168 19.9303L13.1662 19.1238L13.1854 19.1195Z" fill="#EEBD37"/>
<path d="M16.2289 17.2675C14.7471 15.6193 12.1201 15.5432 10.3614 17.0974C8.60265 18.6517 8.37818 21.2477 9.86001 22.8959C11.3418 24.5441 13.9688 24.6203 15.7275 23.066C17.4862 21.5118 17.7107 18.9157 16.2289 17.2675Z" fill="#FADE4B"/>
<path d="M15.658 17.9335C15.7713 18.0692 15.8655 18.2091 15.9524 18.3608C15.8912 18.2739 15.8253 18.1678 15.7449 18.0851C14.6113 16.7282 12.5374 16.5875 11.093 17.7654C9.79555 18.84 9.44474 20.6189 10.2176 21.9456C9.33971 20.6021 9.64843 18.7319 10.9988 17.6254C12.4505 16.4359 14.5244 16.5766 15.658 17.9335Z" fill="#E2A935"/>
<path opacity="0.2" d="M15.6525 17.9893C14.47 16.6743 12.3775 16.6107 10.9787 17.8471C9.57985 19.0835 9.40445 21.1519 10.5869 22.4668C11.7694 23.7818 13.8619 23.8454 15.2607 22.609C16.6595 21.3726 16.8349 19.3043 15.6525 17.9893Z" fill="#E2A935"/>
<g clip-path="url(#clip7_304_4844)">
<path d="M65.5663 37.9744L65.8663 38.4267C65.993 38.6156 65.8618 38.9631 65.5339 39.3684C65.5341 39.3742 65.5278 39.3802 65.5215 39.3804C65.3732 39.571 65.1805 39.7744 64.9497 39.9847C64.9433 39.9849 64.9434 39.9907 64.9372 39.9967C64.75 40.165 64.5373 40.3398 64.3055 40.5152L64.2929 40.5214C64.1864 40.6 64.0798 40.6787 63.9669 40.7576C63.8539 40.8364 63.7408 40.9094 63.6277 40.9825L63.6151 40.9886C63.3699 41.141 63.137 41.2756 62.9098 41.3867C62.9034 41.3869 62.9036 41.3927 62.8972 41.3929C62.6196 41.5287 62.3603 41.6348 62.1321 41.7052C62.1257 41.7053 62.1258 41.7112 62.1194 41.7113C61.6249 41.8647 61.2604 41.863 61.1338 41.6741L60.8338 41.2217L65.5663 37.9744Z" fill="#E2A935"/>
<path d="M61.5053 40.7604L62.1385 41.705C62.1321 41.7052 62.1322 41.711 62.1258 41.7112C61.6313 41.8645 61.2668 41.8628 61.1402 41.6739L60.8401 41.2216L61.5053 40.7604Z" fill="#E0A94D"/>
<path d="M62.1895 40.293L62.9226 41.3864C62.9162 41.3866 62.9164 41.3924 62.91 41.3926C62.6324 41.5283 62.3731 41.6345 62.1448 41.7048C62.1385 41.705 62.1386 41.7108 62.1322 41.711L61.4993 40.7723L62.1895 40.293Z" fill="#DC9A31"/>
<path d="M62.8674 39.8257L63.6403 40.9763L63.6277 40.9825C63.3825 41.1349 63.1496 41.2695 62.9225 41.3806C62.9161 41.3807 62.9162 41.3866 62.9098 41.3867L62.1769 40.2991L62.8674 39.8257Z" fill="#E2A434"/>
<path d="M65.5663 37.9744L65.8663 38.4267C65.993 38.6156 65.8618 38.9631 65.5339 39.3684C65.5341 39.3742 65.5278 39.3802 65.5215 39.3804L64.8883 38.4358L65.5663 37.9744Z" fill="#E0A94D"/>
<path d="M64.9072 38.4237L65.5401 39.3624C65.5403 39.3682 65.5341 39.3742 65.5277 39.3744C65.3794 39.565 65.1867 39.7684 64.9559 39.9787C64.9495 39.9789 64.9497 39.9847 64.9434 39.9907L64.2168 38.8971L64.9072 38.4237Z" fill="#DC9A31"/>
<path d="M64.2294 38.891L64.9623 39.9785C64.9559 39.9787 64.9561 39.9845 64.9498 39.9905C64.7626 40.1588 64.55 40.3337 64.3182 40.509L64.3055 40.5152L63.5389 39.3644L64.2294 38.891Z" fill="#E2A434"/>
<path d="M63.5516 39.3582L64.3246 40.5088L64.3119 40.515C64.2054 40.5937 64.0988 40.6724 63.9859 40.7512C63.8729 40.8301 63.7598 40.9031 63.6467 40.9761L63.6341 40.9823L62.8547 39.8319L63.5516 39.3582Z" fill="#EEBD37"/>
<path d="M63.7608 40.2535C65.0572 39.3456 65.86 38.3141 65.5538 37.9497C65.2476 37.5852 63.9484 38.0257 62.652 38.9336C61.3556 39.8415 60.5529 40.873 60.8591 41.2374C61.1652 41.6019 62.4644 41.1614 63.7608 40.2535Z" fill="#FADE4B"/>
<path d="M65.2524 38.1869C65.2859 38.2443 65.2878 38.3142 65.2645 38.3964C65.2637 38.3673 65.2503 38.3444 65.2433 38.3212C65.0557 38.0058 63.9849 38.3671 62.8547 39.1265C61.9191 39.7524 61.2414 40.4587 61.1309 40.8639C61.0888 40.492 61.8215 39.6909 62.8639 38.9922C63.9939 38.227 65.0648 37.8714 65.2524 38.1869Z" fill="#E2A935"/>
<path opacity="0.5" d="M65.2433 38.3212C65.2567 38.3442 65.2639 38.3732 65.2645 38.3965C65.1668 38.8013 64.4765 39.5138 63.5409 40.1396C62.4106 40.899 61.3399 41.2604 61.1587 40.9447C61.1453 40.9218 61.1381 40.8928 61.1309 40.8639C61.2414 40.4587 61.9192 39.7582 62.8549 39.1324C63.9849 38.3672 65.0557 38.0058 65.2433 38.3212Z" fill="#E2A935"/>
</g>
<g clip-path="url(#clip8_304_4844)">
<path d="M15.8905 2.40614L17.4303 1.39058C18.0735 0.961958 19.2532 1.41095 20.6276 2.5287C20.6474 2.52821 20.6677 2.54944 20.6682 2.57115C21.3145 3.07671 22.0041 3.7333 22.7167 4.51968C22.7173 4.54139 22.7371 4.5409 22.7574 4.56213C23.3277 5.19992 23.9199 5.92408 24.5138 6.71338L24.5346 6.75632C24.801 7.11913 25.0675 7.48194 25.3344 7.86646C25.6014 8.25098 25.8485 8.63599 26.0957 9.021L26.1165 9.06394C26.6323 9.89862 27.0875 10.6913 27.4631 11.4643C27.4636 11.486 27.4834 11.4855 27.4839 11.5072C27.9429 12.4519 28.3013 13.3339 28.5383 14.1102C28.5388 14.132 28.5586 14.1315 28.5592 14.1532C29.0759 15.8352 29.0667 17.0738 28.4236 17.5025L26.8837 18.518L15.8905 2.40614Z" fill="#E2A935"/>
<path d="M25.3221 16.2316L28.5378 14.0885C28.5383 14.1102 28.5581 14.1098 28.5586 14.1315C29.0754 15.8135 29.0662 17.0521 28.4231 17.4807L26.8832 18.4963L25.3221 16.2316Z" fill="#E0A94D"/>
<path d="M23.7397 13.9023L27.462 11.4208C27.4625 11.4425 27.4823 11.4421 27.4829 11.4638C27.9418 12.4085 28.3003 13.2905 28.5372 14.0668C28.5378 14.0885 28.5576 14.088 28.5581 14.1098L25.3623 16.2524L23.7397 13.9023Z" fill="#DC9A31"/>
<path d="M22.1577 11.5947L26.0748 8.97807L26.0957 9.02101C26.6114 9.85568 27.0667 10.6484 27.4422 11.4213C27.4427 11.443 27.4625 11.4426 27.4631 11.4643L23.7605 13.9452L22.1577 11.5947Z" fill="#E2A434"/>
<path d="M15.8905 2.40613L17.4303 1.39057C18.0735 0.961956 19.2532 1.41095 20.6276 2.52869C20.6474 2.52821 20.6677 2.54944 20.6682 2.57115L17.4526 4.71424L15.8905 2.40613Z" fill="#E0A94D"/>
<path d="M17.4114 4.65009L20.6073 2.50748C20.6271 2.50699 20.6474 2.52822 20.6479 2.54993C21.2942 3.05549 21.9838 3.71208 22.6964 4.49846C22.6969 4.52017 22.7167 4.51969 22.7371 4.54091L19.0142 7.00065L17.4114 4.65009Z" fill="#DC9A31"/>
<path d="M18.9934 6.95771L22.6959 4.47674C22.6964 4.49846 22.7162 4.49797 22.7365 4.5192C23.3068 5.15699 23.8991 5.88114 24.4929 6.67044L24.5138 6.71338L20.5961 9.30827L18.9934 6.95771Z" fill="#E2A434"/>
<path d="M20.5753 9.26532L24.4924 6.64872L24.5132 6.69166C24.7796 7.05447 25.0461 7.41728 25.313 7.8018C25.58 8.18633 25.8271 8.57134 26.0743 8.95634L26.0951 8.99929L22.1786 11.6376L20.5753 9.26532Z" fill="#EEBD37"/>
<path d="M23.6195 8.56222C20.5458 4.14845 17.0477 1.41123 15.8064 2.44847C14.5651 3.48571 16.0505 7.90463 19.1242 12.3184C22.198 16.7322 25.696 19.4694 26.9373 18.4322C28.1787 17.3949 26.6932 12.976 23.6195 8.56222Z" fill="#FADE4B"/>
<path d="M16.61 3.47479C16.8053 3.36136 17.0429 3.35552 17.3221 3.43556C17.2232 3.438 17.145 3.48337 17.0664 3.50703C15.9926 4.14178 17.2111 7.78368 19.7817 11.6313C21.9002 14.8166 24.2943 17.126 25.6704 17.5049C24.4061 17.6447 21.6904 15.1476 19.3253 11.5991C16.735 7.75193 15.5362 4.10954 16.61 3.47479Z" fill="#E2A935"/>
<path opacity="0.5" d="M17.0664 3.50703C17.1445 3.46165 17.243 3.43751 17.3221 3.43556C18.6971 3.77112 21.1121 6.12345 23.2306 9.30869C25.8012 13.1563 27.0197 16.7982 25.9454 17.4113C25.8673 17.4566 25.7688 17.4808 25.6704 17.5049C24.2943 17.126 21.92 14.8161 19.8015 11.6308C17.2111 7.78367 15.9926 4.14177 17.0664 3.50703Z" fill="#E2A935"/>
</g>
<path d="M53.0027 17.2615L52.2896 16.3626C51.989 15.9874 52.203 15.232 52.8208 14.3195C52.8195 14.3073 52.8315 14.2935 52.8449 14.292C53.123 13.864 53.4924 13.401 53.9408 12.9166C53.9543 12.9151 53.9529 12.9029 53.9649 12.8891C54.3291 12.501 54.7456 12.0947 55.2024 11.6837L55.2278 11.6685C55.4382 11.4836 55.6485 11.2988 55.8722 11.1125C56.0959 10.9261 56.3211 10.752 56.5462 10.5779L56.5717 10.5627C57.0608 10.1977 57.5272 9.87246 57.9857 9.5977C57.9991 9.59619 57.9978 9.58395 58.0112 9.58243C58.5716 9.24661 59.0986 8.97653 59.5668 8.78744C59.5802 8.78593 59.5788 8.77369 59.5922 8.77218C60.6064 8.36046 61.3744 8.29874 61.675 8.67392L62.388 9.57282L53.0027 17.2615Z" fill="#E2A935"/>
<path d="M61.0563 10.6649L59.5533 8.78896C59.5668 8.78744 59.5654 8.7752 59.5788 8.77369C60.5929 8.36197 61.3609 8.30025 61.6615 8.67543L62.3746 9.57433L61.0563 10.6649Z" fill="#E0A94D"/>
<path d="M59.699 11.7722L57.9589 9.60073C57.9723 9.59921 57.9709 9.58697 57.9843 9.58546C58.5447 9.24964 59.0718 8.97956 59.5399 8.79047C59.5533 8.78896 59.552 8.77672 59.5654 8.77521L61.0669 10.6389L59.699 11.7722Z" fill="#DC9A31"/>
<path d="M58.3552 12.878L56.5207 10.5932L56.5462 10.5779C57.0353 10.213 57.5017 9.88773 57.9602 9.61296C57.9737 9.61145 57.9723 9.59921 57.9857 9.5977L59.7245 11.7569L58.3552 12.878Z" fill="#E2A434"/>
<path d="M53.0027 17.2615L52.2896 16.3626C51.989 15.9874 52.203 15.232 52.8208 14.3195C52.8195 14.3073 52.8315 14.2935 52.8449 14.292L54.3479 16.1679L53.0027 17.2615Z" fill="#E0A94D"/>
<path d="M54.3104 16.1969L52.8088 14.3332C52.8074 14.321 52.8195 14.3073 52.8329 14.3057C53.111 13.8778 53.4803 13.4147 53.9288 12.9304C53.9422 12.9289 53.9408 12.9166 53.9529 12.9029L55.6796 15.0759L54.3104 16.1969Z" fill="#DC9A31"/>
<path d="M55.6542 15.0911L53.9154 12.9319C53.9288 12.9304 53.9274 12.9181 53.9395 12.9044C54.3036 12.5163 54.7201 12.1099 55.1769 11.699L55.2024 11.6837L57.0235 13.97L55.6542 15.0911Z" fill="#E2A434"/>
<path d="M56.998 13.9853L55.1635 11.7005L55.1889 11.6853C55.3993 11.5004 55.6096 11.3156 55.8333 11.1293C56.057 10.9429 56.2822 10.7688 56.5073 10.5947L56.5328 10.5795L58.3807 12.8627L56.998 13.9853Z" fill="#EEBD37"/>
<path d="M56.3967 12.1373C53.829 14.2821 52.3232 16.5985 53.0335 17.3113C53.7438 18.024 56.4011 16.8631 58.9688 14.7183C61.5364 12.5735 63.0422 10.257 62.3319 9.54428C61.6216 8.83154 58.9643 9.99246 56.3967 12.1373Z" fill="#FADE4B"/>
<path d="M53.6257 16.7575C53.5448 16.6426 53.5283 16.4957 53.5627 16.3183C53.5695 16.3795 53.6019 16.4255 53.6209 16.4729C54.0726 17.1038 56.263 16.1505 58.5072 14.3483C60.3657 12.8622 61.6664 11.2531 61.8263 10.3798C61.9817 11.1556 60.5822 12.9742 58.5121 14.6328C56.2692 16.4473 54.0775 17.3883 53.6257 16.7575Z" fill="#E2A935"/>
<path opacity="0.5" d="M53.6209 16.4729C53.5885 16.427 53.5682 16.3673 53.5627 16.3183C53.6958 15.4481 55.0219 13.8236 56.8804 12.3376C59.1246 10.5354 61.315 9.58213 61.7533 10.2145C61.7857 10.2604 61.806 10.3201 61.8263 10.3798C61.6664 11.2531 60.3643 12.85 58.5059 14.3361C56.263 16.1505 54.0726 17.1038 53.6209 16.4729Z" fill="#E2A935"/>
<defs>
<filter id="filter0_f_304_4844" x="0" y="2" width="68" height="68" filterUnits="userSpaceOnUse" color-interpolation-filters="sRGB">
<feFlood flood-opacity="0" result="BackgroundImageFix"/>
<feBlend mode="normal" in="SourceGraphic" in2="BackgroundImageFix" result="shape"/>
<feGaussianBlur stdDeviation="5" result="effect1_foregroundBlur_304_4844"/>
</filter>
<radialGradient id="paint0_radial_304_4844" cx="0" cy="0" r="1" gradientUnits="userSpaceOnUse" gradientTransform="translate(34 36) rotate(90) scale(31.3333)">
<stop stop-color="white"/>
<stop offset="1" stop-color="#FFE811"/>
</radialGradient>
<clipPath id="clip0_304_4844">
<rect width="34.3069" height="34.3069" fill="white" transform="translate(29.0392 12) rotate(26)"/>
</clipPath>
<clipPath id="clip1_304_4844">
<rect width="7" height="7" fill="white" transform="translate(28 35)"/>
</clipPath>
<clipPath id="clip2_304_4844">
<rect width="9.00285" height="6.66745" fill="white" transform="matrix(0.91134 0.411654 0.425056 -0.905167 13 36.0352)"/>
</clipPath>
<clipPath id="clip3_304_4844">
<rect width="5.70212" height="5.70212" fill="white" transform="translate(39.35 23.2177) rotate(21.96)"/>
</clipPath>
<clipPath id="clip4_304_4844">
<rect width="8.77795" height="8.77795" fill="white" transform="translate(51.6208 33.4552) rotate(-58.0401)"/>
</clipPath>
<clipPath id="clip5_304_4844">
<rect width="2.92598" height="2.92598" fill="white" transform="translate(6 37)"/>
</clipPath>
<clipPath id="clip6_304_4844">
<rect width="3.10851" height="2.33138" fill="white" transform="translate(45.3499 15.3167) rotate(173.573)"/>
</clipPath>
<clipPath id="clip7_304_4844">
<rect width="5.18985" height="3.89238" fill="white" transform="translate(60.7062 37.9434) rotate(-1.55885)"/>
</clipPath>
<clipPath id="clip8_304_4844">
<rect width="17.6369" height="13.2277" fill="white" transform="translate(15.7418 18.9222) rotate(-91.408)"/>
</clipPath>
</defs>
</svg>
