<svg width="72" height="72" viewBox="0 0 72 72" fill="none" xmlns="http://www.w3.org/2000/svg">
<g clip-path="url(#clip0_304_7077)">
<rect width="72" height="72" rx="8" fill="#F8F8F7"/>
<rect width="72" height="53" fill="white"/>
<rect x="-26" y="28" width="121" height="1" fill="#D9D9D9"/>
<rect x="-26" y="59" width="121" height="1" fill="#D9D9D9"/>
<rect x="-26.5" y="36.5" width="35" height="15" rx="7.5" stroke="#C2C2C2"/>
<rect x="-21" y="42.5" width="24" height="3" rx="1.5" fill="white"/>
<g filter="url(#filter0_d_304_7077)">
<rect x="13.5" y="36.5" width="35" height="15" rx="7.5" stroke="#B86800" shape-rendering="crispEdges"/>
</g>
<rect x="19" y="42.5" width="24" height="3" rx="1.5" fill="#B86800"/>
<rect x="53.5" y="36.5" width="35" height="15" rx="7.5" stroke="black" stroke-opacity="0.24"/>
<rect x="59" y="42.5" width="24" height="3" rx="1.5" fill="#414141"/>
<path fill-rule="evenodd" clip-rule="evenodd" d="M52.5913 69.3603C51.9843 69.7108 51.2381 69.7179 50.6246 69.3791L40.7684 63.9369C39.8011 63.3639 39.4549 62.1205 40.0038 61.1446C40.5488 60.1754 41.7764 59.8552 42.742 60.4272L45.5506 62.0909C45.5506 62.0909 42.0209 55.9773 40.1954 52.8154C39.6636 51.8943 38.4786 49.8418 38.4786 49.8418C37.9152 48.866 38.2273 47.6311 39.1906 47.075C40.1472 46.5227 41.3853 46.8764 41.9427 47.8418L46.0542 54.9632L54.244 51.8149C54.244 51.8149 56.3181 51.4075 57.6906 53.7847C57.6906 53.7847 58.2512 54.7557 58.3708 54.9627C58.592 55.3459 58.7129 55.5553 58.7129 55.5553L59.3971 56.7403C59.9896 57.7666 60.547 59.7135 60.6144 60.951C60.6797 62.1513 60.4688 63.7124 60.3496 64.4711C60.3041 64.7602 60.1275 65.0093 59.8741 65.1556L52.5913 69.3603Z" fill="#B86800"/>
<g clip-path="url(#clip1_304_7077)">
<path fill-rule="evenodd" clip-rule="evenodd" d="M14.5783 9.30296H11.9393C11.4216 9.30296 11 9.7246 11 10.2422V16.0596C11 16.5782 11.4216 16.9998 11.9393 16.9998H14.5783C15.096 16.9998 15.5176 16.5782 15.5176 16.0596V10.2422C15.5176 9.7246 15.096 9.30296 14.5783 9.30296ZM14.5764 16.0586L11.9412 16.0596L11.9393 10.2441L14.5764 10.2422V16.0586ZM17.6805 1H20.3195C20.8372 1 21.2588 1.4207 21.2588 1.93928V16.0596C21.2588 16.5782 20.8372 16.9998 20.3195 16.9998H17.6805C17.1628 16.9998 16.7412 16.5782 16.7412 16.0596V1.93928C16.7412 1.4207 17.1628 1 17.6805 1ZM17.6824 16.0596L20.3176 16.0586V1.93928L17.6805 1.94117L17.6824 16.0596ZM26.0607 4.68654H23.4217C22.9031 4.68654 22.4824 5.10725 22.4824 5.62583V16.0596C22.4824 16.5782 22.9031 16.9998 23.4217 16.9998H26.0607C26.5793 16.9998 27 16.5782 27 16.0596V5.62583C27 5.10725 26.5793 4.68654 26.0607 4.68654ZM23.4236 16.0596L26.0588 16.0586V5.62583L23.4217 5.62771L23.4236 16.0596Z" fill="black" fill-opacity="0.64"/>
</g>
<g clip-path="url(#clip2_304_7077)">
<path fill-rule="evenodd" clip-rule="evenodd" d="M66.9156 6.97331C66.7415 6.44281 66.3199 6.05201 65.791 5.92741L62.2007 5.06653L60.3401 1.79197C60.0578 1.2964 59.5571 1 59 1C58.4429 1 57.9422 1.2964 57.6599 1.79197L55.7692 5.09202L52.2099 5.92741C51.6801 6.05201 51.2594 6.44281 51.0844 6.97236C50.9046 7.51797 51.0157 8.1051 51.3827 8.54026L53.8089 11.459L53.4701 15.2499C53.4183 15.8323 53.6649 16.3798 54.1326 16.713C54.5778 17.032 55.1415 17.0887 55.6374 16.8649L58.9868 15.3575C58.9962 15.3537 59.0037 15.3537 59.0122 15.3575L62.3625 16.8649C62.5639 16.9556 62.7747 16.9999 62.9855 16.9999C63.2952 16.9999 63.6029 16.9027 63.8683 16.713C64.3341 16.3798 64.5826 15.8323 64.5299 15.2499L64.209 11.3995L66.6182 8.54026C66.9843 8.10605 67.0953 7.51891 66.9156 6.97331ZM65.8992 7.93047L63.4909 10.7878C63.3168 10.9936 63.2302 11.2683 63.2538 11.5439L63.5926 15.3348C63.6142 15.5802 63.5126 15.8077 63.3215 15.9446C63.1484 16.0673 62.9394 16.09 62.7474 16.0041L59.3981 14.4966C59.1449 14.3824 58.8551 14.3824 58.6019 14.4966L55.2525 16.0041C55.0596 16.0909 54.8507 16.0692 54.6785 15.9446C54.4874 15.8077 54.3858 15.5802 54.4074 15.3348L54.7462 11.5439C54.7707 11.2711 54.6841 10.9964 54.51 10.7887L52.1008 7.93142C51.9474 7.74923 51.9013 7.50098 51.9784 7.26971C52.0509 7.04977 52.2137 6.8959 52.4245 6.84776L55.9847 6.01142C56.2501 5.94818 56.4797 5.77449 56.6171 5.53473L58.4777 2.26017C58.7054 1.85899 59.2945 1.85805 59.5223 2.26017L61.3829 5.53379C61.5193 5.77449 61.7499 5.94724 62.0172 6.01237L65.5755 6.84776C65.7872 6.8959 65.95 7.05071 66.0225 7.26971C66.0987 7.50192 66.0526 7.74923 65.8992 7.93047Z" fill="black" fill-opacity="0.64"/>
</g>
</g>
<defs>
<filter id="filter0_d_304_7077" x="10" y="34" width="42" height="22" filterUnits="userSpaceOnUse" color-interpolation-filters="sRGB">
<feFlood flood-opacity="0" result="BackgroundImageFix"/>
<feColorMatrix in="SourceAlpha" type="matrix" values="0 0 0 0 0 0 0 0 0 0 0 0 0 0 0 0 0 0 127 0" result="hardAlpha"/>
<feOffset dy="1"/>
<feGaussianBlur stdDeviation="1.5"/>
<feComposite in2="hardAlpha" operator="out"/>
<feColorMatrix type="matrix" values="0 0 0 0 0 0 0 0 0 0 0 0 0 0 0 0 0 0 0.4 0"/>
<feBlend mode="normal" in2="BackgroundImageFix" result="effect1_dropShadow_304_7077"/>
<feBlend mode="normal" in="SourceGraphic" in2="effect1_dropShadow_304_7077" result="shape"/>
</filter>
<clipPath id="clip0_304_7077">
<rect width="72" height="72" rx="8" fill="white"/>
</clipPath>
<clipPath id="clip1_304_7077">
<rect width="16" height="16" fill="white" transform="translate(11 1)"/>
</clipPath>
<clipPath id="clip2_304_7077">
<rect width="16" height="16" fill="white" transform="translate(51 1)"/>
</clipPath>
</defs>
</svg>
